M48
; DRILL file {KiCad 7.0.9} date Wed Mar 20 17:51:05 2024
; FORMAT={-:-/ absolute / inch / decimal}
; #@! TF.CreationDate,2024-03-20T17:51:05+05:30
; #@! TF.GenerationSoftware,Kicad,Pcbnew,7.0.9
; #@! TF.FileFunction,MixedPlating,1,2
FMAT,2
INCH
; #@! TA.AperFunction,Plated,PTH,ViaDrill
T1C0.0157
; #@! TA.AperFunction,Plated,PTH,ComponentDrill
T2C0.0394
%
G90
G05
T1
X5.57Y-3.72
X5.59Y-3.25
X5.665Y-3.555
X5.7Y-3.66
X5.71Y-4.38
X5.7374Y-4.14
X5.76Y-3.61
X5.78Y-3.68
X5.84Y-4.09
X5.84Y-4.29
X5.85Y-4.38
X5.89Y-3.35
X5.89Y-3.4
X5.89Y-4.17
X5.9094Y-3.54
X5.9134Y-3.9933
X5.93Y-4.4
X5.94Y-3.42
X5.95Y-3.69
X5.9532Y-3.3468
X6.0Y-4.04
X6.0Y-4.25
X6.01Y-3.72
X6.02Y-3.87
X6.03Y-3.37
X6.06Y-3.75
X6.0666Y-4.1669
X6.1Y-3.35
X6.1806Y-4.04
X6.1874Y-4.26
X6.24Y-3.28
X6.25Y-3.43
X6.25Y-3.96
X6.25Y-4.07
X6.2794Y-4.22
X6.2819Y-4.0087
X6.31Y-4.14
X6.34Y-4.02
X6.35Y-3.82
X6.36Y-3.95
X6.38Y-3.28
X6.41Y-3.46
X6.45Y-3.3
X6.455Y-3.195
X6.49Y-3.95
X6.52Y-3.27
X6.5226Y-3.09
X6.54Y-3.5
X6.6034Y-3.5266
X6.78Y-3.48
T2
X5.05Y-3.4274
X5.1Y-3.514
X5.15Y-3.6006
X5.2Y-3.6872
X5.25Y-3.7738
X5.3Y-3.8604
X5.35Y-3.947
X5.4Y-4.0336
X5.45Y-4.1202
X5.5Y-4.2068
X5.55Y-4.2934
X5.6Y-4.38
X5.65Y-4.4666
X5.7Y-4.5532
X6.3Y-4.5586
X6.35Y-4.472
X6.4Y-4.3854
X6.45Y-4.2988
X6.5Y-4.2122
X6.55Y-4.1256
X6.6Y-4.039
X6.65Y-3.9524
X6.7Y-3.8658
X6.75Y-3.7792
X6.8Y-3.6926
X6.85Y-3.606
X6.9Y-3.5194
X6.95Y-3.4328
T0
M30
