%TF.GenerationSoftware,KiCad,Pcbnew,7.0.9*%
%TF.CreationDate,2024-03-20T17:49:37+05:30*%
%TF.ProjectId,Valentino,56616c65-6e74-4696-9e6f-2e6b69636164,v01*%
%TF.SameCoordinates,Original*%
%TF.FileFunction,Paste,Top*%
%TF.FilePolarity,Positive*%
%FSLAX46Y46*%
G04 Gerber Fmt 4.6, Leading zero omitted, Abs format (unit mm)*
G04 Created by KiCad (PCBNEW 7.0.9) date 2024-03-20 17:49:37*
%MOMM*%
%LPD*%
G01*
G04 APERTURE LIST*
G04 Aperture macros list*
%AMRoundRect*
0 Rectangle with rounded corners*
0 $1 Rounding radius*
0 $2 $3 $4 $5 $6 $7 $8 $9 X,Y pos of 4 corners*
0 Add a 4 corners polygon primitive as box body*
4,1,4,$2,$3,$4,$5,$6,$7,$8,$9,$2,$3,0*
0 Add four circle primitives for the rounded corners*
1,1,$1+$1,$2,$3*
1,1,$1+$1,$4,$5*
1,1,$1+$1,$6,$7*
1,1,$1+$1,$8,$9*
0 Add four rect primitives between the rounded corners*
20,1,$1+$1,$2,$3,$4,$5,0*
20,1,$1+$1,$4,$5,$6,$7,0*
20,1,$1+$1,$6,$7,$8,$9,0*
20,1,$1+$1,$8,$9,$2,$3,0*%
G04 Aperture macros list end*
%ADD10RoundRect,0.250000X-0.250000X-0.475000X0.250000X-0.475000X0.250000X0.475000X-0.250000X0.475000X0*%
%ADD11RoundRect,0.243750X0.456250X-0.243750X0.456250X0.243750X-0.456250X0.243750X-0.456250X-0.243750X0*%
%ADD12RoundRect,0.250000X0.250000X0.475000X-0.250000X0.475000X-0.250000X-0.475000X0.250000X-0.475000X0*%
%ADD13RoundRect,0.250000X0.450000X-0.262500X0.450000X0.262500X-0.450000X0.262500X-0.450000X-0.262500X0*%
%ADD14R,1.600000X0.550000*%
%ADD15R,0.550000X1.600000*%
%ADD16RoundRect,0.150000X-0.512500X-0.150000X0.512500X-0.150000X0.512500X0.150000X-0.512500X0.150000X0*%
%ADD17R,1.800000X1.400000*%
%ADD18R,0.650000X1.050000*%
%ADD19RoundRect,0.250000X0.262500X0.450000X-0.262500X0.450000X-0.262500X-0.450000X0.262500X-0.450000X0*%
%ADD20RoundRect,0.250000X-0.475000X0.250000X-0.475000X-0.250000X0.475000X-0.250000X0.475000X0.250000X0*%
%ADD21RoundRect,0.218750X0.381250X-0.218750X0.381250X0.218750X-0.381250X0.218750X-0.381250X-0.218750X0*%
G04 APERTURE END LIST*
D10*
%TO.C,C9*%
X155260000Y-108204000D03*
X157160000Y-108204000D03*
%TD*%
D11*
%TO.C,D2*%
X164338000Y-75359500D03*
X164338000Y-73484500D03*
%TD*%
D12*
%TO.C,C8*%
X167574000Y-78486000D03*
X165674000Y-78486000D03*
%TD*%
D13*
%TO.C,R2*%
X168402000Y-75334500D03*
X168402000Y-73509500D03*
%TD*%
D14*
%TO.C,U1*%
X148150000Y-84830000D03*
X148150000Y-85630000D03*
X148150000Y-86430000D03*
X148150000Y-87230000D03*
X148150000Y-88030000D03*
X148150000Y-88830000D03*
X148150000Y-89630000D03*
X148150000Y-90430000D03*
D15*
X149600000Y-91880000D03*
X150400000Y-91880000D03*
X151200000Y-91880000D03*
X152000000Y-91880000D03*
X152800000Y-91880000D03*
X153600000Y-91880000D03*
X154400000Y-91880000D03*
X155200000Y-91880000D03*
D14*
X156650000Y-90430000D03*
X156650000Y-89630000D03*
X156650000Y-88830000D03*
X156650000Y-88030000D03*
X156650000Y-87230000D03*
X156650000Y-86430000D03*
X156650000Y-85630000D03*
X156650000Y-84830000D03*
D15*
X155200000Y-83380000D03*
X154400000Y-83380000D03*
X153600000Y-83380000D03*
X152800000Y-83380000D03*
X152000000Y-83380000D03*
X151200000Y-83380000D03*
X150400000Y-83380000D03*
X149600000Y-83380000D03*
%TD*%
D12*
%TO.C,C1*%
X140142000Y-82550000D03*
X138242000Y-82550000D03*
%TD*%
%TO.C,C6*%
X167320000Y-90678000D03*
X165420000Y-90678000D03*
%TD*%
D10*
%TO.C,C3*%
X143830000Y-105156000D03*
X145730000Y-105156000D03*
%TD*%
D16*
%TO.C,U3*%
X150125000Y-107950000D03*
X150125000Y-108900000D03*
X150125000Y-109850000D03*
X152400000Y-109850000D03*
X152400000Y-107950000D03*
%TD*%
D12*
%TO.C,C5*%
X167574000Y-83058000D03*
X165674000Y-83058000D03*
%TD*%
D10*
%TO.C,C2*%
X138308000Y-90424000D03*
X140208000Y-90424000D03*
%TD*%
D17*
%TO.C,Y2*%
X150200000Y-103830000D03*
X154600000Y-103830000D03*
X154600000Y-101430000D03*
X150200000Y-101430000D03*
%TD*%
D10*
%TO.C,C4*%
X155260000Y-113030000D03*
X157160000Y-113030000D03*
%TD*%
D18*
%TO.C,SW1*%
X136325000Y-78275000D03*
X136325000Y-74125000D03*
X138475000Y-78275000D03*
X138475000Y-74125000D03*
%TD*%
D19*
%TO.C,R1*%
X161694500Y-78486000D03*
X159869500Y-78486000D03*
%TD*%
D20*
%TO.C,C7*%
X146812000Y-110556000D03*
X146812000Y-112456000D03*
%TD*%
D21*
%TO.C,L1*%
X160020000Y-75484500D03*
X160020000Y-73359500D03*
%TD*%
M02*
