%TF.GenerationSoftware,KiCad,Pcbnew,7.0.9*%
%TF.CreationDate,2024-03-20T17:49:37+05:30*%
%TF.ProjectId,Valentino,56616c65-6e74-4696-9e6f-2e6b69636164,v01*%
%TF.SameCoordinates,Original*%
%TF.FileFunction,Copper,L2,Bot*%
%TF.FilePolarity,Positive*%
%FSLAX46Y46*%
G04 Gerber Fmt 4.6, Leading zero omitted, Abs format (unit mm)*
G04 Created by KiCad (PCBNEW 7.0.9) date 2024-03-20 17:49:37*
%MOMM*%
%LPD*%
G01*
G04 APERTURE LIST*
G04 Aperture macros list*
%AMHorizOval*
0 Thick line with rounded ends*
0 $1 width*
0 $2 $3 position (X,Y) of the first rounded end (center of the circle)*
0 $4 $5 position (X,Y) of the second rounded end (center of the circle)*
0 Add line between two ends*
20,1,$1,$2,$3,$4,$5,0*
0 Add two circle primitives to create the rounded ends*
1,1,$1,$2,$3*
1,1,$1,$4,$5*%
%AMRotRect*
0 Rectangle, with rotation*
0 The origin of the aperture is its center*
0 $1 length*
0 $2 width*
0 $3 Rotation angle, in degrees counterclockwise*
0 Add horizontal line*
21,1,$1,$2,0,0,$3*%
G04 Aperture macros list end*
%ADD10C,0.300000*%
%TA.AperFunction,NonConductor*%
%ADD11C,0.300000*%
%TD*%
%TA.AperFunction,ComponentPad*%
%ADD12RotRect,1.700000X1.700000X330.000000*%
%TD*%
%TA.AperFunction,ComponentPad*%
%ADD13HorizOval,1.700000X0.000000X0.000000X0.000000X0.000000X0*%
%TD*%
%TA.AperFunction,ComponentPad*%
%ADD14RotRect,1.700000X1.700000X30.000000*%
%TD*%
%TA.AperFunction,ComponentPad*%
%ADD15HorizOval,1.700000X0.000000X0.000000X0.000000X0.000000X0*%
%TD*%
%TA.AperFunction,ViaPad*%
%ADD16C,0.800000*%
%TD*%
%TA.AperFunction,Conductor*%
%ADD17C,0.381000*%
%TD*%
%TA.AperFunction,Conductor*%
%ADD18C,0.254000*%
%TD*%
G04 APERTURE END LIST*
D10*
D11*
X154274346Y-123006828D02*
X153917203Y-124006828D01*
X153917203Y-124006828D02*
X153560060Y-123006828D01*
X152702917Y-122506828D02*
X152560060Y-122506828D01*
X152560060Y-122506828D02*
X152417203Y-122578257D01*
X152417203Y-122578257D02*
X152345775Y-122649685D01*
X152345775Y-122649685D02*
X152274346Y-122792542D01*
X152274346Y-122792542D02*
X152202917Y-123078257D01*
X152202917Y-123078257D02*
X152202917Y-123435400D01*
X152202917Y-123435400D02*
X152274346Y-123721114D01*
X152274346Y-123721114D02*
X152345775Y-123863971D01*
X152345775Y-123863971D02*
X152417203Y-123935400D01*
X152417203Y-123935400D02*
X152560060Y-124006828D01*
X152560060Y-124006828D02*
X152702917Y-124006828D01*
X152702917Y-124006828D02*
X152845775Y-123935400D01*
X152845775Y-123935400D02*
X152917203Y-123863971D01*
X152917203Y-123863971D02*
X152988632Y-123721114D01*
X152988632Y-123721114D02*
X153060060Y-123435400D01*
X153060060Y-123435400D02*
X153060060Y-123078257D01*
X153060060Y-123078257D02*
X152988632Y-122792542D01*
X152988632Y-122792542D02*
X152917203Y-122649685D01*
X152917203Y-122649685D02*
X152845775Y-122578257D01*
X152845775Y-122578257D02*
X152702917Y-122506828D01*
X150774346Y-124006828D02*
X151631489Y-124006828D01*
X151202918Y-124006828D02*
X151202918Y-122506828D01*
X151202918Y-122506828D02*
X151345775Y-122721114D01*
X151345775Y-122721114D02*
X151488632Y-122863971D01*
X151488632Y-122863971D02*
X151631489Y-122935400D01*
D12*
%TO.P,VCC,1,Pin_1*%
%TO.N,VCC*%
X176530000Y-87193336D03*
D13*
%TO.P,VCC,2,Pin_2*%
%TO.N,/A0*%
X175260000Y-89393041D03*
%TO.P,VCC,3,Pin_3*%
%TO.N,/A1*%
X173990000Y-91592745D03*
%TO.P,VCC,4,Pin_4*%
%TO.N,/A2*%
X172720000Y-93792450D03*
%TO.P,VCC,5,Pin_5*%
%TO.N,/A3*%
X171450000Y-95992154D03*
%TO.P,VCC,6,Pin_6*%
%TO.N,/A4*%
X170180000Y-98191859D03*
%TO.P,VCC,7,Pin_7*%
%TO.N,/A5*%
X168910000Y-100391563D03*
%TO.P,VCC,8,Pin_8*%
%TO.N,/328_RX*%
X167640000Y-102591268D03*
%TO.P,VCC,9,Pin_9*%
%TO.N,/328_TX*%
X166370000Y-104790972D03*
%TO.P,VCC,10,Pin_10*%
%TO.N,/SS*%
X165100000Y-106990677D03*
%TO.P,VCC,11,Pin_11*%
%TO.N,/MOSI*%
X163830000Y-109190382D03*
%TO.P,VCC,12,Pin_12*%
%TO.N,/MISO*%
X162560000Y-111390086D03*
%TO.P,VCC,13,Pin_13*%
%TO.N,/SCK*%
X161290000Y-113589791D03*
%TO.P,VCC,14,Pin_14*%
%TO.N,VCC*%
X160020000Y-115789495D03*
%TD*%
D14*
%TO.P,J2,1,Pin_1*%
%TO.N,/D2*%
X128270000Y-87055252D03*
D15*
%TO.P,J2,2,Pin_2*%
%TO.N,/D3*%
X129539999Y-89254956D03*
%TO.P,J2,3,Pin_3*%
%TO.N,/D4*%
X130810000Y-91454660D03*
%TO.P,J2,4,Pin_4*%
%TO.N,/D5*%
X132080000Y-93654366D03*
%TO.P,J2,5,Pin_5*%
%TO.N,/D6*%
X133349999Y-95854070D03*
%TO.P,J2,6,Pin_6*%
%TO.N,/D7*%
X134619999Y-98053775D03*
%TO.P,J2,7,Pin_7*%
%TO.N,/D8*%
X135890000Y-100253479D03*
%TO.P,J2,8,Pin_8*%
%TO.N,/D9*%
X137159999Y-102453184D03*
%TO.P,J2,9,Pin_9*%
%TO.N,/AREF*%
X138429999Y-104652889D03*
%TO.P,J2,10,Pin_10*%
%TO.N,/RTS*%
X139700000Y-106852594D03*
%TO.P,J2,11,Pin_11*%
%TO.N,VCC*%
X140969999Y-109052298D03*
%TO.P,J2,12,Pin_12*%
%TO.N,+3.3V*%
X142240000Y-111252000D03*
%TO.P,J2,13,Pin_13*%
%TO.N,/RESET*%
X143509999Y-113451707D03*
%TO.P,J2,14,Pin_14*%
%TO.N,GND*%
X144780000Y-115651411D03*
%TD*%
D16*
%TO.N,VCC*%
X154940000Y-85090000D03*
X163957000Y-81153000D03*
%TO.N,/RESET*%
X150622000Y-111760000D03*
X150876000Y-86868000D03*
%TO.N,GND*%
X148590000Y-111252000D03*
X165674000Y-78486000D03*
X152400000Y-102616000D03*
X150200000Y-101430000D03*
X145730000Y-105156000D03*
X150099500Y-89916000D03*
X157160000Y-108204000D03*
X167725931Y-89576069D03*
X149606000Y-86360000D03*
X165608000Y-83058000D03*
X156986500Y-102616000D03*
%TO.N,+3.3V*%
X148336000Y-108966000D03*
X152400000Y-107950000D03*
%TO.N,/XTAL1*%
X148336000Y-103886000D03*
X141986000Y-82550000D03*
X143891000Y-90297000D03*
X152908000Y-98298000D03*
%TO.N,/XTAL2*%
X144780000Y-92964000D03*
X141478000Y-94488000D03*
%TO.N,/D5*%
X146304000Y-91694000D03*
%TO.N,/D6*%
X146812000Y-93472000D03*
%TO.N,/D7*%
X151130000Y-93726000D03*
%TO.N,/D8*%
X152654000Y-94488000D03*
%TO.N,/D9*%
X153924000Y-95250000D03*
%TO.N,/MOSI*%
X158750000Y-100584000D03*
%TO.N,/MISO*%
X160274000Y-105156000D03*
X161036000Y-102108000D03*
%TO.N,/SCK*%
X161544000Y-100330000D03*
X159497500Y-107188000D03*
%TO.N,Net-(U1-AVCC)*%
X164846000Y-100330000D03*
X161290000Y-97028000D03*
%TO.N,/AREF*%
X149606000Y-105918000D03*
X158750000Y-103378000D03*
X154092030Y-105840000D03*
X159560319Y-101820181D03*
%TO.N,/A1*%
X172212000Y-88392000D03*
%TO.N,/A2*%
X158496000Y-83312000D03*
X158750000Y-87122000D03*
X166116000Y-88900000D03*
%TO.N,/A3*%
X162814000Y-87884000D03*
X162052000Y-83312000D03*
%TO.N,/A4*%
X163830000Y-83820000D03*
%TO.N,/A5*%
X153162000Y-85598000D03*
%TO.N,/328_RX*%
X151212491Y-85007509D03*
%TO.N,/328_TX*%
X149606000Y-85090000D03*
%TO.N,/RTS*%
X145034000Y-111252000D03*
%TD*%
D17*
%TO.N,VCC*%
X158242000Y-81788000D02*
X161290000Y-81788000D01*
X154940000Y-85090000D02*
X158242000Y-81788000D01*
X161925000Y-81153000D02*
X163957000Y-81153000D01*
X161290000Y-81788000D02*
X161925000Y-81153000D01*
D18*
%TO.N,/RESET*%
X153924000Y-109728000D02*
X153924000Y-107442000D01*
X156210000Y-95758000D02*
X150876000Y-90424000D01*
X156210000Y-105156000D02*
X156210000Y-95758000D01*
X150622000Y-111760000D02*
X151892000Y-111760000D01*
X151892000Y-111760000D02*
X153924000Y-109728000D01*
X150876000Y-90424000D02*
X150876000Y-86868000D01*
X153924000Y-107442000D02*
X156210000Y-105156000D01*
%TO.N,GND*%
X165608000Y-83058000D02*
X165674000Y-82992000D01*
X145745000Y-105141000D02*
X148179844Y-105141000D01*
X156986500Y-102616000D02*
X156986500Y-105170500D01*
X165608000Y-83058000D02*
X167725931Y-85175931D01*
X152400000Y-102616000D02*
X151386000Y-102616000D01*
X145730000Y-108392000D02*
X145730000Y-105156000D01*
X150099500Y-89916000D02*
X150099500Y-86853500D01*
X150200000Y-103120844D02*
X150200000Y-101430000D01*
X165674000Y-82992000D02*
X165674000Y-78486000D01*
X150099500Y-86853500D02*
X149606000Y-86360000D01*
X167725931Y-85175931D02*
X167725931Y-89576069D01*
X151386000Y-102616000D02*
X150200000Y-101430000D01*
X145730000Y-105156000D02*
X145745000Y-105141000D01*
X156986500Y-105170500D02*
X157480000Y-105664000D01*
X148179844Y-105141000D02*
X150200000Y-103120844D01*
X148590000Y-111252000D02*
X145730000Y-108392000D01*
X157480000Y-107884000D02*
X157160000Y-108204000D01*
X157480000Y-105664000D02*
X157480000Y-107884000D01*
D17*
%TO.N,+3.3V*%
X148336000Y-108966000D02*
X151384000Y-108966000D01*
X151384000Y-108966000D02*
X152400000Y-107950000D01*
D18*
%TO.N,/XTAL1*%
X148082000Y-103632000D02*
X148336000Y-103886000D01*
X145796000Y-83820000D02*
X145796000Y-88392000D01*
X152908000Y-98806000D02*
X152400000Y-99314000D01*
X152400000Y-99314000D02*
X149098000Y-99314000D01*
X152908000Y-98298000D02*
X152908000Y-98806000D01*
X148082000Y-100330000D02*
X148082000Y-103632000D01*
X145796000Y-83820000D02*
X145796000Y-83312000D01*
X145796000Y-88392000D02*
X143891000Y-90297000D01*
X145034000Y-82550000D02*
X141986000Y-82550000D01*
X145796000Y-83312000D02*
X145034000Y-82550000D01*
X149098000Y-99314000D02*
X148082000Y-100330000D01*
%TO.N,/XTAL2*%
X141478000Y-94488000D02*
X143002000Y-92964000D01*
X143002000Y-92964000D02*
X144780000Y-92964000D01*
%TO.N,/D5*%
X133278366Y-92456000D02*
X141478000Y-92456000D01*
X142240000Y-91694000D02*
X146304000Y-91694000D01*
X132080000Y-93654366D02*
X133278366Y-92456000D01*
X141478000Y-92456000D02*
X142240000Y-91694000D01*
%TO.N,/D6*%
X134208069Y-94996000D02*
X133349999Y-95854070D01*
X142748000Y-95758000D02*
X139954000Y-95758000D01*
X139192000Y-94996000D02*
X134208069Y-94996000D01*
X139954000Y-95758000D02*
X139192000Y-94996000D01*
X144272000Y-94234000D02*
X142748000Y-95758000D01*
X146050000Y-94234000D02*
X144272000Y-94234000D01*
X146812000Y-93472000D02*
X146050000Y-94234000D01*
%TO.N,/D7*%
X147574000Y-94234000D02*
X150622000Y-94234000D01*
X150622000Y-94234000D02*
X151130000Y-93726000D01*
X135128000Y-96266000D02*
X138684000Y-96266000D01*
X143510000Y-96774000D02*
X145034000Y-95250000D01*
X145034000Y-95250000D02*
X145288000Y-95250000D01*
X145288000Y-95250000D02*
X146558000Y-95250000D01*
X134619999Y-98053775D02*
X134619999Y-96774001D01*
X146558000Y-95250000D02*
X147574000Y-94234000D01*
X138684000Y-96266000D02*
X139192000Y-96774000D01*
X134619999Y-96774001D02*
X135128000Y-96266000D01*
X139192000Y-96774000D02*
X143510000Y-96774000D01*
%TO.N,/D8*%
X151892000Y-95250000D02*
X152654000Y-94488000D01*
X148082000Y-95250000D02*
X151892000Y-95250000D01*
X145796000Y-96266000D02*
X147066000Y-96266000D01*
X144018000Y-98044000D02*
X145796000Y-96266000D01*
X138099479Y-98044000D02*
X144018000Y-98044000D01*
X135890000Y-100253479D02*
X138099479Y-98044000D01*
X147066000Y-96266000D02*
X148082000Y-95250000D01*
%TO.N,/D9*%
X148590000Y-96266000D02*
X147828000Y-97028000D01*
X153924000Y-95250000D02*
X152908000Y-96266000D01*
X143510000Y-100330000D02*
X139283183Y-100330000D01*
X146812000Y-97028000D02*
X143510000Y-100330000D01*
X147828000Y-97028000D02*
X146812000Y-97028000D01*
X139283183Y-100330000D02*
X137159999Y-102453184D01*
X152908000Y-96266000D02*
X148590000Y-96266000D01*
%TO.N,/MOSI*%
X157734000Y-103886000D02*
X157734000Y-102870000D01*
X158496000Y-107442000D02*
X158496000Y-104648000D01*
X163830000Y-109190382D02*
X160244382Y-109190382D01*
X157734000Y-102870000D02*
X158750000Y-101854000D01*
X160244382Y-109190382D02*
X158496000Y-107442000D01*
X158496000Y-104648000D02*
X157734000Y-103886000D01*
X158750000Y-101854000D02*
X158750000Y-100584000D01*
%TO.N,/MISO*%
X161036000Y-102108000D02*
X161036000Y-104394000D01*
X161036000Y-104394000D02*
X160274000Y-105156000D01*
%TO.N,/SCK*%
X162037000Y-104379000D02*
X162037000Y-100823000D01*
X161544000Y-106426000D02*
X162052000Y-105918000D01*
X160259500Y-106426000D02*
X159497500Y-107188000D01*
X162037000Y-100823000D02*
X161544000Y-100330000D01*
X162052000Y-104394000D02*
X162037000Y-104379000D01*
X162052000Y-105918000D02*
X162052000Y-104394000D01*
X161544000Y-106426000D02*
X160259500Y-106426000D01*
%TO.N,Net-(U1-AVCC)*%
X163322000Y-100330000D02*
X164846000Y-100330000D01*
X162814000Y-99822000D02*
X163322000Y-100330000D01*
X162814000Y-98552000D02*
X162814000Y-99822000D01*
X161290000Y-97028000D02*
X162814000Y-98552000D01*
%TO.N,/AREF*%
X154014030Y-105918000D02*
X154092030Y-105840000D01*
X149606000Y-105918000D02*
X154014030Y-105918000D01*
X158750000Y-102630500D02*
X159560319Y-101820181D01*
X158750000Y-103378000D02*
X158750000Y-102630500D01*
%TO.N,/A1*%
X172212000Y-88392000D02*
X172212000Y-89814745D01*
X172212000Y-89814745D02*
X173990000Y-91592745D01*
%TO.N,/A2*%
X166116000Y-89154000D02*
X166116000Y-88900000D01*
X171129550Y-92202000D02*
X169164000Y-92202000D01*
X169164000Y-92202000D02*
X166116000Y-89154000D01*
X158750000Y-83566000D02*
X158496000Y-83312000D01*
X172720000Y-93792450D02*
X171129550Y-92202000D01*
X158750000Y-87122000D02*
X158750000Y-83566000D01*
%TO.N,/A3*%
X162052000Y-83312000D02*
X162814000Y-84074000D01*
X162814000Y-84074000D02*
X162814000Y-87884000D01*
%TO.N,/A4*%
X163830000Y-83820000D02*
X164592000Y-84582000D01*
X164592000Y-84582000D02*
X164592000Y-93218000D01*
X165608000Y-95250000D02*
X168549859Y-98191859D01*
X168549859Y-98191859D02*
X170180000Y-98191859D01*
X165608000Y-94234000D02*
X165608000Y-95250000D01*
X164592000Y-93218000D02*
X165608000Y-94234000D01*
%TO.N,/A5*%
X154432000Y-86868000D02*
X154432000Y-89408000D01*
X153162000Y-85598000D02*
X154432000Y-86868000D01*
X159766000Y-94742000D02*
X163260437Y-94742000D01*
X163260437Y-94742000D02*
X168910000Y-100391563D01*
X154432000Y-89408000D02*
X159766000Y-94742000D01*
%TO.N,/328_RX*%
X153162000Y-89916000D02*
X159004000Y-95758000D01*
X153162000Y-86957018D02*
X153162000Y-89916000D01*
X161798000Y-95758000D02*
X166116000Y-100076000D01*
X159004000Y-95758000D02*
X161798000Y-95758000D01*
X166116000Y-101067268D02*
X167640000Y-102591268D01*
X166116000Y-100076000D02*
X166116000Y-101067268D01*
X151212491Y-85007509D02*
X153162000Y-86957018D01*
%TO.N,/328_TX*%
X152146000Y-89916000D02*
X161544000Y-99314000D01*
X149606000Y-85090000D02*
X150196844Y-85090000D01*
X162560000Y-100980972D02*
X166370000Y-104790972D01*
X162310000Y-99826000D02*
X162310000Y-99997156D01*
X152146000Y-87039156D02*
X152146000Y-89916000D01*
X162321000Y-100008156D02*
X162321000Y-100345000D01*
X150196844Y-85090000D02*
X152146000Y-87039156D01*
X162310000Y-99997156D02*
X162321000Y-100008156D01*
X162560000Y-100584000D02*
X162560000Y-100980972D01*
X161544000Y-99314000D02*
X161798000Y-99314000D01*
X161798000Y-99314000D02*
X162310000Y-99826000D01*
X162321000Y-100345000D02*
X162560000Y-100584000D01*
%TO.N,/RTS*%
X139700000Y-106852594D02*
X142920594Y-106852594D01*
X143764000Y-107696000D02*
X145034000Y-108966000D01*
X145034000Y-108966000D02*
X145034000Y-111252000D01*
X142920594Y-106852594D02*
X143764000Y-107696000D01*
%TD*%
%TA.AperFunction,Conductor*%
%TO.N,GND*%
G36*
X137356482Y-60720829D02*
G01*
X138103078Y-60753137D01*
X138106209Y-60753353D01*
X138769602Y-60816495D01*
X138850122Y-60824160D01*
X138853287Y-60824543D01*
X139592535Y-60933656D01*
X139595690Y-60934205D01*
X140328329Y-61081338D01*
X140331420Y-61082042D01*
X141038947Y-61262579D01*
X141055487Y-61266800D01*
X141058551Y-61267666D01*
X141772155Y-61489571D01*
X141775110Y-61490575D01*
X142476329Y-61749031D01*
X142479208Y-61750178D01*
X143166119Y-62044477D01*
X143169014Y-62045807D01*
X143597776Y-62256331D01*
X143839800Y-62375166D01*
X143842585Y-62376623D01*
X144495501Y-62740189D01*
X144498215Y-62741793D01*
X145131465Y-63138564D01*
X145134114Y-63140320D01*
X145746029Y-63569248D01*
X145748569Y-63571128D01*
X146337538Y-64031083D01*
X146339995Y-64033107D01*
X146904398Y-64522824D01*
X146906761Y-64524984D01*
X147445146Y-65043200D01*
X147447370Y-65045452D01*
X147958301Y-65590789D01*
X147960412Y-65593163D01*
X148420118Y-66137630D01*
X148437090Y-66163819D01*
X148439210Y-66168222D01*
X148439211Y-66168223D01*
X148439212Y-66168224D01*
X148446681Y-66174180D01*
X148466145Y-66193601D01*
X148468448Y-66196476D01*
X148479101Y-66202333D01*
X148496667Y-66214044D01*
X148499447Y-66216261D01*
X148510767Y-66225289D01*
X148510769Y-66225290D01*
X148511063Y-66225357D01*
X148526675Y-66231296D01*
X148526699Y-66231224D01*
X148538340Y-66234907D01*
X148538342Y-66234908D01*
X148563056Y-66237638D01*
X148570036Y-66238817D01*
X148577410Y-66240500D01*
X148585542Y-66240500D01*
X148592349Y-66240874D01*
X148617624Y-66243667D01*
X148617629Y-66243665D01*
X148629789Y-66242614D01*
X148629807Y-66242828D01*
X148646169Y-66240500D01*
X156163806Y-66240500D01*
X156180159Y-66242828D01*
X156180178Y-66242611D01*
X156192346Y-66243665D01*
X156192348Y-66243664D01*
X156192350Y-66243665D01*
X156217642Y-66240873D01*
X156224445Y-66240500D01*
X156232588Y-66240500D01*
X156232590Y-66240500D01*
X156239942Y-66238821D01*
X156246946Y-66237640D01*
X156250436Y-66237254D01*
X156271633Y-66234916D01*
X156271635Y-66234914D01*
X156283285Y-66231232D01*
X156283306Y-66231300D01*
X156298918Y-66225361D01*
X156299231Y-66225290D01*
X156313319Y-66214054D01*
X156330886Y-66202344D01*
X156341532Y-66196493D01*
X156343846Y-66193605D01*
X156363299Y-66174195D01*
X156370788Y-66168224D01*
X156372883Y-66163871D01*
X156389869Y-66137662D01*
X156849500Y-65593428D01*
X156851588Y-65591081D01*
X157362420Y-65045991D01*
X157364630Y-65043750D01*
X157902951Y-64525730D01*
X157905247Y-64523632D01*
X158469601Y-64034085D01*
X158472003Y-64032109D01*
X159060833Y-63572385D01*
X159063386Y-63570495D01*
X159675161Y-63141782D01*
X159677772Y-63140051D01*
X160310879Y-62743484D01*
X160313593Y-62741880D01*
X160966315Y-62378533D01*
X160969125Y-62377063D01*
X161426565Y-62152530D01*
X161639733Y-62047897D01*
X161642632Y-62046567D01*
X161646039Y-62045108D01*
X162329319Y-61752468D01*
X162332258Y-61751299D01*
X163033237Y-61493032D01*
X163036205Y-61492025D01*
X163749599Y-61270287D01*
X163752623Y-61269433D01*
X164476498Y-61084823D01*
X164479563Y-61084125D01*
X165212004Y-60937130D01*
X165215113Y-60936589D01*
X165954153Y-60827603D01*
X165957308Y-60827222D01*
X166217763Y-60802465D01*
X166700983Y-60756534D01*
X166704123Y-60756317D01*
X167450489Y-60724115D01*
X167453644Y-60724061D01*
X168200656Y-60730433D01*
X168203800Y-60730541D01*
X168523469Y-60749801D01*
X168949470Y-60775468D01*
X168952660Y-60775743D01*
X169694997Y-60859102D01*
X169698169Y-60859542D01*
X170435195Y-60981110D01*
X170438329Y-60981709D01*
X171168138Y-61141173D01*
X171171203Y-61141926D01*
X171891821Y-61338857D01*
X171894861Y-61339773D01*
X172604337Y-61573638D01*
X172607305Y-61574703D01*
X173303770Y-61844885D01*
X173306690Y-61846105D01*
X173988257Y-62151873D01*
X173991144Y-62153259D01*
X174655998Y-62493794D01*
X174658809Y-62495327D01*
X175305215Y-62869742D01*
X175307934Y-62871412D01*
X175934163Y-63278707D01*
X175936736Y-63280476D01*
X176541130Y-63719577D01*
X176543629Y-63721493D01*
X177058329Y-64137666D01*
X177124514Y-64191181D01*
X177126952Y-64193258D01*
X177682808Y-64692302D01*
X177685132Y-64694500D01*
X178214488Y-65221576D01*
X178216667Y-65223862D01*
X178372099Y-65395494D01*
X178718116Y-65777576D01*
X178720204Y-65780004D01*
X179192389Y-66358853D01*
X179194311Y-66361337D01*
X179635999Y-66963811D01*
X179637816Y-66966429D01*
X180047797Y-67590877D01*
X180049484Y-67593599D01*
X180426671Y-68238362D01*
X180428216Y-68241167D01*
X180771628Y-68904570D01*
X180773024Y-68907448D01*
X180848128Y-69072941D01*
X181081713Y-69587655D01*
X181082961Y-69590604D01*
X181355408Y-70284023D01*
X181356134Y-70285869D01*
X181357215Y-70288843D01*
X181593583Y-70995646D01*
X181594134Y-70997293D01*
X181595071Y-71000356D01*
X181795098Y-71720081D01*
X181795875Y-71723187D01*
X181958479Y-72452274D01*
X181959095Y-72455417D01*
X182083841Y-73191919D01*
X182084294Y-73195089D01*
X182170855Y-73937063D01*
X182171144Y-73940252D01*
X182219282Y-74685674D01*
X182219406Y-74688874D01*
X182228998Y-75435814D01*
X182228957Y-75439016D01*
X182200330Y-76176344D01*
X182199620Y-76183600D01*
X181994983Y-77481625D01*
X181935989Y-77855830D01*
X181632382Y-79534215D01*
X181290938Y-81205314D01*
X180911832Y-82868273D01*
X180495257Y-84522244D01*
X180041427Y-86166383D01*
X179550572Y-87799850D01*
X179022943Y-89421812D01*
X178458810Y-91031442D01*
X177858460Y-92627917D01*
X177222199Y-94210424D01*
X176550353Y-95778154D01*
X175843264Y-97330307D01*
X175101294Y-98866091D01*
X174324820Y-100384723D01*
X173514239Y-101885427D01*
X172669965Y-103367438D01*
X171792429Y-104829999D01*
X170882078Y-106272363D01*
X169939377Y-107693795D01*
X168964807Y-109093570D01*
X167958866Y-110470972D01*
X166922067Y-111825299D01*
X165854939Y-113155859D01*
X164758026Y-114461974D01*
X163631889Y-115742978D01*
X162477102Y-116998215D01*
X161294255Y-118227047D01*
X160083951Y-119428844D01*
X158846808Y-120602995D01*
X157583457Y-121748900D01*
X156294543Y-122865975D01*
X155130685Y-123829498D01*
X155066494Y-123857086D01*
X154997577Y-123845589D01*
X154945815Y-123798658D01*
X154927612Y-123733982D01*
X154927612Y-121851037D01*
X150118555Y-121851037D01*
X150118555Y-123934139D01*
X150098870Y-124001178D01*
X150046066Y-124046933D01*
X149976908Y-124056877D01*
X149917659Y-124031417D01*
X149819277Y-123953648D01*
X149702638Y-123857086D01*
X148505457Y-122865975D01*
X147216542Y-121748901D01*
X145953191Y-120602996D01*
X144716047Y-119428845D01*
X144666860Y-119380004D01*
X150594451Y-119380004D01*
X150614616Y-119649101D01*
X150674664Y-119912188D01*
X150674666Y-119912195D01*
X150773257Y-120163398D01*
X150908185Y-120397102D01*
X150918189Y-120409646D01*
X151076442Y-120608089D01*
X151134141Y-120661625D01*
X151274259Y-120791635D01*
X151497226Y-120943651D01*
X151740359Y-121060738D01*
X151998228Y-121140280D01*
X151998229Y-121140280D01*
X151998232Y-121140281D01*
X152265063Y-121180499D01*
X152265068Y-121180499D01*
X152265071Y-121180500D01*
X152265072Y-121180500D01*
X152534928Y-121180500D01*
X152534929Y-121180500D01*
X152534936Y-121180499D01*
X152801767Y-121140281D01*
X152801768Y-121140280D01*
X152801772Y-121140280D01*
X153059641Y-121060738D01*
X153302775Y-120943651D01*
X153525741Y-120791635D01*
X153723561Y-120608085D01*
X153891815Y-120397102D01*
X154026743Y-120163398D01*
X154125334Y-119912195D01*
X154185383Y-119649103D01*
X154205549Y-119380000D01*
X154185383Y-119110897D01*
X154125334Y-118847805D01*
X154026743Y-118596602D01*
X153891815Y-118362898D01*
X153723561Y-118151915D01*
X153723560Y-118151914D01*
X153723557Y-118151910D01*
X153525741Y-117968365D01*
X153302775Y-117816349D01*
X153302769Y-117816346D01*
X153302768Y-117816345D01*
X153302767Y-117816344D01*
X153059643Y-117699263D01*
X153059645Y-117699263D01*
X152801773Y-117619720D01*
X152801767Y-117619718D01*
X152534936Y-117579500D01*
X152534929Y-117579500D01*
X152265071Y-117579500D01*
X152265063Y-117579500D01*
X151998232Y-117619718D01*
X151998226Y-117619720D01*
X151740358Y-117699262D01*
X151497230Y-117816346D01*
X151274258Y-117968365D01*
X151076442Y-118151910D01*
X150908185Y-118362898D01*
X150773258Y-118596599D01*
X150773256Y-118596603D01*
X150674666Y-118847804D01*
X150674664Y-118847811D01*
X150614616Y-119110898D01*
X150594451Y-119379995D01*
X150594451Y-119380004D01*
X144666860Y-119380004D01*
X143505743Y-118227047D01*
X142322895Y-116998216D01*
X141168108Y-115742979D01*
X140041970Y-114461976D01*
X138945057Y-113155861D01*
X137877929Y-111825300D01*
X136841129Y-110470973D01*
X135835187Y-109093572D01*
X134860617Y-107693797D01*
X133917916Y-106272365D01*
X133007565Y-104830001D01*
X132130028Y-103367440D01*
X131285753Y-101885430D01*
X130475172Y-100384726D01*
X129698698Y-98866094D01*
X128956727Y-97330310D01*
X128249638Y-95778156D01*
X127577791Y-94210426D01*
X126941531Y-92627920D01*
X126341180Y-91031445D01*
X125777046Y-89421815D01*
X125249417Y-87799852D01*
X124935790Y-86756165D01*
X126603373Y-86756165D01*
X126627241Y-86898091D01*
X126651499Y-86952928D01*
X127549369Y-88508080D01*
X127549371Y-88508084D01*
X127574865Y-88542999D01*
X127584725Y-88556502D01*
X127693325Y-88646171D01*
X127695704Y-88648135D01*
X127695706Y-88648137D01*
X127801455Y-88693420D01*
X127828007Y-88704791D01*
X127970912Y-88721878D01*
X128109224Y-88698618D01*
X128178599Y-88706912D01*
X128232478Y-88751397D01*
X128253753Y-88817948D01*
X128249563Y-88852994D01*
X128204937Y-89019542D01*
X128204935Y-89019552D01*
X128184340Y-89254955D01*
X128184340Y-89254956D01*
X128204935Y-89490359D01*
X128204937Y-89490369D01*
X128266093Y-89718611D01*
X128266095Y-89718615D01*
X128266096Y-89718619D01*
X128332548Y-89861125D01*
X128365964Y-89932786D01*
X128365966Y-89932790D01*
X128443591Y-90043649D01*
X128501504Y-90126357D01*
X128668598Y-90293451D01*
X128707241Y-90320509D01*
X128862164Y-90428988D01*
X128862166Y-90428989D01*
X128862169Y-90428991D01*
X129076336Y-90528859D01*
X129304591Y-90590019D01*
X129530257Y-90609762D01*
X129595325Y-90635214D01*
X129636304Y-90691805D01*
X129640182Y-90761567D01*
X129631831Y-90785695D01*
X129536098Y-90990995D01*
X129536094Y-90991004D01*
X129474938Y-91219246D01*
X129474936Y-91219256D01*
X129454341Y-91454659D01*
X129454341Y-91454660D01*
X129474936Y-91690063D01*
X129474938Y-91690073D01*
X129536094Y-91918315D01*
X129536096Y-91918319D01*
X129536097Y-91918323D01*
X129600484Y-92056400D01*
X129635965Y-92132490D01*
X129635967Y-92132494D01*
X129726446Y-92261710D01*
X129771505Y-92326061D01*
X129938599Y-92493155D01*
X129984124Y-92525032D01*
X130132165Y-92628692D01*
X130132167Y-92628693D01*
X130132170Y-92628695D01*
X130346337Y-92728563D01*
X130346343Y-92728564D01*
X130346344Y-92728565D01*
X130401285Y-92743286D01*
X130574592Y-92789723D01*
X130800258Y-92809466D01*
X130865326Y-92834918D01*
X130906305Y-92891509D01*
X130910183Y-92961271D01*
X130901832Y-92985399D01*
X130806098Y-93190701D01*
X130806094Y-93190710D01*
X130744938Y-93418952D01*
X130744936Y-93418962D01*
X130724341Y-93654365D01*
X130724341Y-93654366D01*
X130744936Y-93889769D01*
X130744938Y-93889779D01*
X130806094Y-94118021D01*
X130806096Y-94118025D01*
X130806097Y-94118029D01*
X130890832Y-94299744D01*
X130905965Y-94332196D01*
X130905967Y-94332200D01*
X131002655Y-94470284D01*
X131041505Y-94525767D01*
X131208599Y-94692861D01*
X131305384Y-94760631D01*
X131402165Y-94828398D01*
X131402167Y-94828399D01*
X131402170Y-94828401D01*
X131616337Y-94928269D01*
X131844592Y-94989429D01*
X132070256Y-95009172D01*
X132135324Y-95034624D01*
X132176303Y-95091215D01*
X132180181Y-95160977D01*
X132171830Y-95185105D01*
X132076097Y-95390405D01*
X132076093Y-95390414D01*
X132014937Y-95618656D01*
X132014935Y-95618666D01*
X131994340Y-95854069D01*
X131994340Y-95854070D01*
X132014935Y-96089473D01*
X132014937Y-96089483D01*
X132076093Y-96317725D01*
X132076095Y-96317729D01*
X132076096Y-96317733D01*
X132107844Y-96385816D01*
X132175964Y-96531900D01*
X132175966Y-96531904D01*
X132272654Y-96669988D01*
X132311504Y-96725471D01*
X132478598Y-96892565D01*
X132531802Y-96929819D01*
X132672164Y-97028102D01*
X132672166Y-97028103D01*
X132672169Y-97028105D01*
X132886336Y-97127973D01*
X133114591Y-97189133D01*
X133340257Y-97208876D01*
X133405325Y-97234328D01*
X133446304Y-97290919D01*
X133450182Y-97360681D01*
X133441831Y-97384809D01*
X133412087Y-97448594D01*
X133363378Y-97553052D01*
X133346097Y-97590110D01*
X133346093Y-97590119D01*
X133284937Y-97818361D01*
X133284935Y-97818371D01*
X133264340Y-98053774D01*
X133264340Y-98053775D01*
X133284935Y-98289178D01*
X133284937Y-98289188D01*
X133346093Y-98517430D01*
X133346095Y-98517434D01*
X133346096Y-98517438D01*
X133425551Y-98687829D01*
X133445964Y-98731605D01*
X133445966Y-98731609D01*
X133542654Y-98869693D01*
X133581504Y-98925176D01*
X133748598Y-99092270D01*
X133822268Y-99143854D01*
X133942164Y-99227807D01*
X133942166Y-99227808D01*
X133942169Y-99227810D01*
X134156336Y-99327678D01*
X134384591Y-99388838D01*
X134610257Y-99408581D01*
X134675325Y-99434033D01*
X134716304Y-99490624D01*
X134720182Y-99560386D01*
X134711831Y-99584514D01*
X134627788Y-99764745D01*
X134622977Y-99775063D01*
X134616098Y-99789814D01*
X134616094Y-99789823D01*
X134554938Y-100018065D01*
X134554936Y-100018075D01*
X134534341Y-100253478D01*
X134534341Y-100253479D01*
X134554936Y-100488882D01*
X134554938Y-100488892D01*
X134616094Y-100717134D01*
X134616096Y-100717138D01*
X134616097Y-100717142D01*
X134683746Y-100862216D01*
X134715965Y-100931309D01*
X134715967Y-100931313D01*
X134812655Y-101069397D01*
X134851505Y-101124880D01*
X135018599Y-101291974D01*
X135093160Y-101344182D01*
X135212165Y-101427511D01*
X135212167Y-101427512D01*
X135212170Y-101427514D01*
X135426337Y-101527382D01*
X135426343Y-101527383D01*
X135426344Y-101527384D01*
X135443187Y-101531897D01*
X135654592Y-101588542D01*
X135880257Y-101608285D01*
X135945325Y-101633737D01*
X135986304Y-101690328D01*
X135990182Y-101760090D01*
X135981831Y-101784218D01*
X135886097Y-101989519D01*
X135886093Y-101989528D01*
X135824937Y-102217770D01*
X135824935Y-102217780D01*
X135804340Y-102453183D01*
X135804340Y-102453184D01*
X135824935Y-102688587D01*
X135824937Y-102688597D01*
X135886093Y-102916839D01*
X135886095Y-102916843D01*
X135886096Y-102916847D01*
X135950086Y-103054073D01*
X135985964Y-103131014D01*
X135985966Y-103131018D01*
X136082654Y-103269102D01*
X136121504Y-103324585D01*
X136288598Y-103491679D01*
X136385383Y-103559449D01*
X136482164Y-103627216D01*
X136482166Y-103627217D01*
X136482169Y-103627219D01*
X136696336Y-103727087D01*
X136924591Y-103788247D01*
X137150257Y-103807990D01*
X137215325Y-103833442D01*
X137256304Y-103890033D01*
X137260182Y-103959795D01*
X137251831Y-103983923D01*
X137156097Y-104189224D01*
X137156093Y-104189233D01*
X137094937Y-104417475D01*
X137094935Y-104417485D01*
X137074340Y-104652888D01*
X137074340Y-104652889D01*
X137094935Y-104888292D01*
X137094937Y-104888302D01*
X137156093Y-105116544D01*
X137156095Y-105116548D01*
X137156096Y-105116552D01*
X137235168Y-105286121D01*
X137255964Y-105330719D01*
X137255966Y-105330723D01*
X137352651Y-105468802D01*
X137391504Y-105524290D01*
X137558598Y-105691384D01*
X137613376Y-105729740D01*
X137752164Y-105826921D01*
X137752166Y-105826922D01*
X137752169Y-105826924D01*
X137966336Y-105926792D01*
X138194591Y-105987952D01*
X138420257Y-106007695D01*
X138485325Y-106033147D01*
X138526304Y-106089738D01*
X138530182Y-106159500D01*
X138521831Y-106183627D01*
X138426099Y-106388924D01*
X138426094Y-106388938D01*
X138364938Y-106617180D01*
X138364936Y-106617190D01*
X138344341Y-106852593D01*
X138344341Y-106852594D01*
X138364936Y-107087997D01*
X138364938Y-107088007D01*
X138426094Y-107316249D01*
X138426096Y-107316253D01*
X138426097Y-107316257D01*
X138490487Y-107454341D01*
X138525965Y-107530424D01*
X138525967Y-107530428D01*
X138620616Y-107665599D01*
X138661505Y-107723995D01*
X138828599Y-107891089D01*
X138925384Y-107958859D01*
X139022165Y-108026626D01*
X139022167Y-108026627D01*
X139022170Y-108026629D01*
X139236337Y-108126497D01*
X139464592Y-108187657D01*
X139690256Y-108207400D01*
X139755324Y-108232852D01*
X139796303Y-108289443D01*
X139800181Y-108359205D01*
X139791830Y-108383333D01*
X139696097Y-108588633D01*
X139696093Y-108588642D01*
X139634937Y-108816884D01*
X139634935Y-108816894D01*
X139614340Y-109052297D01*
X139614340Y-109052298D01*
X139634935Y-109287701D01*
X139634937Y-109287711D01*
X139696093Y-109515953D01*
X139696095Y-109515957D01*
X139696096Y-109515961D01*
X139789597Y-109716474D01*
X139795964Y-109730128D01*
X139795966Y-109730132D01*
X139892654Y-109868216D01*
X139931504Y-109923699D01*
X140098598Y-110090793D01*
X140166452Y-110138305D01*
X140292164Y-110226330D01*
X140292166Y-110226331D01*
X140292169Y-110226333D01*
X140506336Y-110326201D01*
X140734591Y-110387361D01*
X140960256Y-110407104D01*
X141025324Y-110432556D01*
X141066303Y-110489147D01*
X141070181Y-110558909D01*
X141061830Y-110583037D01*
X140966098Y-110788335D01*
X140966094Y-110788344D01*
X140904938Y-111016586D01*
X140904936Y-111016596D01*
X140884341Y-111251999D01*
X140884341Y-111252000D01*
X140904936Y-111487403D01*
X140904938Y-111487413D01*
X140966094Y-111715655D01*
X140966096Y-111715659D01*
X140966097Y-111715663D01*
X141017222Y-111825300D01*
X141065965Y-111929830D01*
X141065967Y-111929834D01*
X141162654Y-112067916D01*
X141201505Y-112123401D01*
X141368599Y-112290495D01*
X141439968Y-112340468D01*
X141562165Y-112426032D01*
X141562167Y-112426033D01*
X141562170Y-112426035D01*
X141776337Y-112525903D01*
X142004592Y-112587063D01*
X142230257Y-112606806D01*
X142295325Y-112632258D01*
X142336304Y-112688849D01*
X142340182Y-112758611D01*
X142331831Y-112782738D01*
X142236098Y-112988037D01*
X142236093Y-112988051D01*
X142174937Y-113216293D01*
X142174935Y-113216303D01*
X142154340Y-113451706D01*
X142154340Y-113451707D01*
X142174935Y-113687110D01*
X142174937Y-113687120D01*
X142236093Y-113915362D01*
X142236095Y-113915366D01*
X142236096Y-113915370D01*
X142300482Y-114053446D01*
X142335964Y-114129537D01*
X142335966Y-114129541D01*
X142432654Y-114267625D01*
X142471504Y-114323108D01*
X142638598Y-114490202D01*
X142735383Y-114557972D01*
X142832164Y-114625739D01*
X142832166Y-114625740D01*
X142832169Y-114625742D01*
X143046336Y-114725610D01*
X143274591Y-114786770D01*
X143500787Y-114806560D01*
X143565855Y-114832013D01*
X143606834Y-114888604D01*
X143610712Y-114958366D01*
X143602361Y-114982493D01*
X143506570Y-115187918D01*
X143506566Y-115187927D01*
X143445432Y-115416084D01*
X143445430Y-115416095D01*
X143424843Y-115651409D01*
X143424843Y-115651412D01*
X143445430Y-115886726D01*
X143445432Y-115886737D01*
X143502635Y-116100221D01*
X144280000Y-115651410D01*
X144280000Y-115723300D01*
X144320507Y-115861255D01*
X144398239Y-115982209D01*
X144506900Y-116076363D01*
X144527591Y-116085812D01*
X143752635Y-116533234D01*
X143908917Y-116689516D01*
X144102421Y-116825011D01*
X144316507Y-116924840D01*
X144316516Y-116924844D01*
X144544673Y-116985978D01*
X144544684Y-116985980D01*
X144779998Y-117006568D01*
X144780002Y-117006568D01*
X145015315Y-116985980D01*
X145015322Y-116985979D01*
X145228811Y-116928774D01*
X144780000Y-116151411D01*
X144815763Y-116151411D01*
X144922315Y-116136091D01*
X145053100Y-116076363D01*
X145161761Y-115982209D01*
X145213330Y-115901964D01*
X145661823Y-116678774D01*
X145818106Y-116522492D01*
X145818109Y-116522489D01*
X145953600Y-116328989D01*
X146053429Y-116114903D01*
X146053433Y-116114894D01*
X146114567Y-115886737D01*
X146114569Y-115886726D01*
X146135157Y-115651412D01*
X146135157Y-115651409D01*
X146114569Y-115416095D01*
X146114568Y-115416088D01*
X146057363Y-115202598D01*
X145280000Y-115651408D01*
X145280000Y-115579522D01*
X145239493Y-115441567D01*
X145161761Y-115320613D01*
X145053100Y-115226459D01*
X145032406Y-115217008D01*
X145807363Y-114769586D01*
X145651082Y-114613305D01*
X145457578Y-114477810D01*
X145243492Y-114377981D01*
X145243483Y-114377977D01*
X145015326Y-114316843D01*
X145015316Y-114316841D01*
X144789517Y-114297086D01*
X144724449Y-114271633D01*
X144683470Y-114215042D01*
X144679592Y-114145280D01*
X144687941Y-114121157D01*
X144783902Y-113915370D01*
X144845062Y-113687115D01*
X144865658Y-113451707D01*
X144845062Y-113216299D01*
X144783902Y-112988044D01*
X144684034Y-112773878D01*
X144667122Y-112749724D01*
X144548493Y-112580304D01*
X144381401Y-112413213D01*
X144381394Y-112413208D01*
X144187833Y-112277674D01*
X144187829Y-112277672D01*
X144149423Y-112259763D01*
X143973662Y-112177804D01*
X143973658Y-112177803D01*
X143973654Y-112177801D01*
X143745412Y-112116645D01*
X143745402Y-112116643D01*
X143519741Y-112096900D01*
X143454673Y-112071447D01*
X143413694Y-112014856D01*
X143409816Y-111945094D01*
X143418164Y-111920974D01*
X143513903Y-111715663D01*
X143575063Y-111487408D01*
X143595659Y-111252000D01*
X143575063Y-111016592D01*
X143513903Y-110788337D01*
X143414035Y-110574171D01*
X143403349Y-110558909D01*
X143278494Y-110380597D01*
X143111402Y-110213506D01*
X143111395Y-110213501D01*
X142917834Y-110077967D01*
X142917830Y-110077965D01*
X142868631Y-110055023D01*
X142703663Y-109978097D01*
X142703659Y-109978096D01*
X142703655Y-109978094D01*
X142475413Y-109916938D01*
X142475403Y-109916936D01*
X142249743Y-109897193D01*
X142184675Y-109871740D01*
X142143696Y-109815149D01*
X142139818Y-109745387D01*
X142148169Y-109721260D01*
X142150401Y-109716474D01*
X142243902Y-109515961D01*
X142305062Y-109287706D01*
X142325658Y-109052298D01*
X142305062Y-108816890D01*
X142253080Y-108622888D01*
X142243904Y-108588642D01*
X142243903Y-108588641D01*
X142243902Y-108588635D01*
X142144034Y-108374469D01*
X142127122Y-108350315D01*
X142008493Y-108180895D01*
X141841401Y-108013804D01*
X141841394Y-108013799D01*
X141647833Y-107878265D01*
X141647829Y-107878263D01*
X141605848Y-107858687D01*
X141433662Y-107778395D01*
X141433658Y-107778394D01*
X141433654Y-107778392D01*
X141230166Y-107723869D01*
X141170505Y-107687504D01*
X141139976Y-107624657D01*
X141148271Y-107555282D01*
X141192756Y-107501404D01*
X141259308Y-107480129D01*
X141262259Y-107480094D01*
X142609313Y-107480094D01*
X142676352Y-107499779D01*
X142696994Y-107516413D01*
X144370181Y-109189600D01*
X144403666Y-109250923D01*
X144406500Y-109277281D01*
X144406500Y-110555534D01*
X144386815Y-110622573D01*
X144374650Y-110638506D01*
X144301466Y-110719785D01*
X144206821Y-110883715D01*
X144206818Y-110883722D01*
X144163645Y-111016596D01*
X144148326Y-111063744D01*
X144128540Y-111252000D01*
X144148326Y-111440256D01*
X144148327Y-111440259D01*
X144206818Y-111620277D01*
X144206821Y-111620284D01*
X144301467Y-111784216D01*
X144364068Y-111853741D01*
X144428129Y-111924888D01*
X144581265Y-112036148D01*
X144581270Y-112036151D01*
X144754192Y-112113142D01*
X144754197Y-112113144D01*
X144939354Y-112152500D01*
X144939355Y-112152500D01*
X145128644Y-112152500D01*
X145128646Y-112152500D01*
X145313803Y-112113144D01*
X145486730Y-112036151D01*
X145639871Y-111924888D01*
X145766533Y-111784216D01*
X145861179Y-111620284D01*
X145919674Y-111440256D01*
X145939460Y-111252000D01*
X145919674Y-111063744D01*
X145861179Y-110883716D01*
X145766533Y-110719784D01*
X145693350Y-110638506D01*
X145663120Y-110575515D01*
X145661500Y-110555534D01*
X145661500Y-109048964D01*
X145663228Y-109033314D01*
X145662946Y-109033288D01*
X145663680Y-109025525D01*
X145661500Y-108956154D01*
X145661500Y-108926528D01*
X145661500Y-108926524D01*
X145660627Y-108919614D01*
X145660168Y-108913785D01*
X145658700Y-108867057D01*
X145653082Y-108847720D01*
X145649138Y-108828674D01*
X145646616Y-108808707D01*
X145629402Y-108765231D01*
X145627513Y-108759710D01*
X145614468Y-108714808D01*
X145604225Y-108697489D01*
X145595662Y-108680011D01*
X145588253Y-108661297D01*
X145588253Y-108661296D01*
X145560771Y-108623472D01*
X145557567Y-108618596D01*
X145533763Y-108578344D01*
X145533761Y-108578342D01*
X145533759Y-108578339D01*
X145519531Y-108564112D01*
X145506896Y-108549320D01*
X145495063Y-108533033D01*
X145495060Y-108533031D01*
X145495060Y-108533030D01*
X145495059Y-108533029D01*
X145459035Y-108503228D01*
X145454713Y-108499294D01*
X143422970Y-106467551D01*
X143413125Y-106455262D01*
X143412907Y-106455443D01*
X143407934Y-106449432D01*
X143357335Y-106401916D01*
X143344343Y-106388924D01*
X143336391Y-106380971D01*
X143330890Y-106376705D01*
X143326442Y-106372906D01*
X143292362Y-106340902D01*
X143292357Y-106340898D01*
X143274716Y-106331200D01*
X143258451Y-106320516D01*
X143242557Y-106308187D01*
X143242556Y-106308186D01*
X143227398Y-106301626D01*
X143199648Y-106289617D01*
X143194401Y-106287047D01*
X143153431Y-106264523D01*
X143153422Y-106264520D01*
X143133928Y-106259514D01*
X143115527Y-106253214D01*
X143097053Y-106245220D01*
X143097046Y-106245218D01*
X143050881Y-106237907D01*
X143045157Y-106236722D01*
X142999873Y-106225094D01*
X142999866Y-106225094D01*
X142979736Y-106225094D01*
X142960337Y-106223567D01*
X142940462Y-106220419D01*
X142940461Y-106220419D01*
X142893915Y-106224819D01*
X142888077Y-106225094D01*
X140973826Y-106225094D01*
X140906787Y-106205409D01*
X140872251Y-106172217D01*
X140738494Y-105981191D01*
X140571402Y-105814100D01*
X140571395Y-105814095D01*
X140377834Y-105678561D01*
X140377830Y-105678559D01*
X140331281Y-105656853D01*
X140163663Y-105578691D01*
X140163659Y-105578690D01*
X140163655Y-105578688D01*
X139935413Y-105517532D01*
X139935403Y-105517530D01*
X139709741Y-105497787D01*
X139644673Y-105472334D01*
X139603694Y-105415743D01*
X139599816Y-105345981D01*
X139608164Y-105321860D01*
X139703902Y-105116552D01*
X139765062Y-104888297D01*
X139785658Y-104652889D01*
X139765062Y-104417481D01*
X139703902Y-104189226D01*
X139604034Y-103975060D01*
X139593346Y-103959795D01*
X139541674Y-103886000D01*
X147430540Y-103886000D01*
X147450326Y-104074256D01*
X147450327Y-104074259D01*
X147508818Y-104254277D01*
X147508821Y-104254284D01*
X147603467Y-104418216D01*
X147695431Y-104520352D01*
X147730129Y-104558888D01*
X147883265Y-104670148D01*
X147883270Y-104670151D01*
X148056192Y-104747142D01*
X148056197Y-104747144D01*
X148241354Y-104786500D01*
X148241355Y-104786500D01*
X148430644Y-104786500D01*
X148430646Y-104786500D01*
X148615803Y-104747144D01*
X148788730Y-104670151D01*
X148941871Y-104558888D01*
X149068533Y-104418216D01*
X149163179Y-104254284D01*
X149221674Y-104074256D01*
X149241460Y-103886000D01*
X149221674Y-103697744D01*
X149163179Y-103517716D01*
X149068533Y-103353784D01*
X148941871Y-103213112D01*
X148909708Y-103189744D01*
X148788734Y-103101851D01*
X148788730Y-103101849D01*
X148783061Y-103099325D01*
X148729825Y-103054073D01*
X148709506Y-102987223D01*
X148709500Y-102986047D01*
X148709500Y-100641281D01*
X148729185Y-100574242D01*
X148745819Y-100553600D01*
X149321600Y-99977819D01*
X149382923Y-99944334D01*
X149409281Y-99941500D01*
X152317033Y-99941500D01*
X152332681Y-99943227D01*
X152332708Y-99942946D01*
X152340475Y-99943680D01*
X152340476Y-99943679D01*
X152340477Y-99943680D01*
X152409860Y-99941500D01*
X152439476Y-99941500D01*
X152446378Y-99940627D01*
X152452190Y-99940169D01*
X152498943Y-99938701D01*
X152518272Y-99933084D01*
X152537328Y-99929137D01*
X152557293Y-99926616D01*
X152600770Y-99909401D01*
X152606276Y-99907516D01*
X152651191Y-99894468D01*
X152668515Y-99884221D01*
X152685983Y-99875663D01*
X152704703Y-99868253D01*
X152742542Y-99840759D01*
X152747391Y-99837574D01*
X152787656Y-99813763D01*
X152801897Y-99799520D01*
X152816678Y-99786897D01*
X152832967Y-99775063D01*
X152832969Y-99775059D01*
X152832971Y-99775059D01*
X152854087Y-99749532D01*
X152862776Y-99739028D01*
X152866689Y-99734728D01*
X153293043Y-99308374D01*
X153305325Y-99298537D01*
X153305144Y-99298318D01*
X153311152Y-99293346D01*
X153311162Y-99293340D01*
X153358677Y-99242741D01*
X153379623Y-99221796D01*
X153383892Y-99216290D01*
X153387676Y-99211859D01*
X153419693Y-99177767D01*
X153429389Y-99160128D01*
X153440073Y-99143861D01*
X153452408Y-99127962D01*
X153470978Y-99085046D01*
X153473534Y-99079827D01*
X153496072Y-99038834D01*
X153501081Y-99019322D01*
X153507374Y-99000942D01*
X153515373Y-98982459D01*
X153515373Y-98982453D01*
X153518339Y-98975602D01*
X153539987Y-98941882D01*
X153640533Y-98830216D01*
X153735179Y-98666284D01*
X153793674Y-98486256D01*
X153813460Y-98298000D01*
X153793674Y-98109744D01*
X153735179Y-97929716D01*
X153640533Y-97765784D01*
X153513871Y-97625112D01*
X153511522Y-97623405D01*
X153360734Y-97513851D01*
X153360729Y-97513848D01*
X153187807Y-97436857D01*
X153187802Y-97436855D01*
X153031721Y-97403680D01*
X153002646Y-97397500D01*
X152813354Y-97397500D01*
X152784279Y-97403680D01*
X152628197Y-97436855D01*
X152628192Y-97436857D01*
X152455270Y-97513848D01*
X152455265Y-97513851D01*
X152302129Y-97625111D01*
X152175466Y-97765785D01*
X152080821Y-97929715D01*
X152080818Y-97929722D01*
X152024675Y-98102514D01*
X152022326Y-98109744D01*
X152002540Y-98298000D01*
X152022326Y-98486256D01*
X152022327Y-98486259D01*
X152034649Y-98524182D01*
X152036644Y-98594023D01*
X152000564Y-98653856D01*
X151937863Y-98684684D01*
X151916718Y-98686500D01*
X149180967Y-98686500D01*
X149165318Y-98684772D01*
X149165292Y-98685054D01*
X149157524Y-98684319D01*
X149088140Y-98686500D01*
X149058522Y-98686500D01*
X149051618Y-98687371D01*
X149045800Y-98687829D01*
X148999057Y-98689298D01*
X148979713Y-98694918D01*
X148960669Y-98698862D01*
X148957709Y-98699235D01*
X148940707Y-98701384D01*
X148940703Y-98701385D01*
X148940700Y-98701386D01*
X148897235Y-98718594D01*
X148891710Y-98720485D01*
X148846809Y-98733531D01*
X148846806Y-98733533D01*
X148829480Y-98743779D01*
X148812010Y-98752337D01*
X148793298Y-98759745D01*
X148755463Y-98787233D01*
X148750580Y-98790440D01*
X148710346Y-98814234D01*
X148696106Y-98828474D01*
X148681320Y-98841102D01*
X148665033Y-98852936D01*
X148665032Y-98852936D01*
X148635227Y-98888963D01*
X148631295Y-98893285D01*
X147696953Y-99827626D01*
X147684669Y-99837469D01*
X147684849Y-99837687D01*
X147678838Y-99842659D01*
X147631322Y-99893258D01*
X147610375Y-99914205D01*
X147606106Y-99919709D01*
X147602315Y-99924147D01*
X147570308Y-99958230D01*
X147570305Y-99958234D01*
X147560606Y-99975877D01*
X147549928Y-99992133D01*
X147537594Y-100008034D01*
X147537589Y-100008042D01*
X147519025Y-100050943D01*
X147516454Y-100056191D01*
X147493927Y-100097167D01*
X147488920Y-100116668D01*
X147482621Y-100135064D01*
X147475893Y-100150612D01*
X147474625Y-100153544D01*
X147474624Y-100153546D01*
X147467312Y-100199716D01*
X147466127Y-100205438D01*
X147454500Y-100250723D01*
X147454500Y-100270858D01*
X147452973Y-100290257D01*
X147449825Y-100310131D01*
X147454225Y-100356677D01*
X147454500Y-100362515D01*
X147454500Y-103549032D01*
X147452772Y-103564681D01*
X147453054Y-103564708D01*
X147452319Y-103572475D01*
X147454500Y-103641859D01*
X147454500Y-103665260D01*
X147450405Y-103691125D01*
X147451676Y-103691396D01*
X147450325Y-103697749D01*
X147441524Y-103781488D01*
X147430540Y-103886000D01*
X139541674Y-103886000D01*
X139468493Y-103781486D01*
X139301401Y-103614395D01*
X139301394Y-103614390D01*
X139107833Y-103478856D01*
X139107829Y-103478854D01*
X139073107Y-103462663D01*
X138893662Y-103378986D01*
X138893658Y-103378985D01*
X138893654Y-103378983D01*
X138665412Y-103317827D01*
X138665402Y-103317825D01*
X138439741Y-103298082D01*
X138374673Y-103272629D01*
X138333694Y-103216038D01*
X138329816Y-103146276D01*
X138338164Y-103122155D01*
X138433902Y-102916847D01*
X138495062Y-102688592D01*
X138515658Y-102453184D01*
X138495062Y-102217776D01*
X138479436Y-102159459D01*
X138468740Y-102119540D01*
X138470403Y-102049690D01*
X138500832Y-101999768D01*
X139506783Y-100993819D01*
X139568106Y-100960334D01*
X139594464Y-100957500D01*
X143427033Y-100957500D01*
X143442681Y-100959227D01*
X143442708Y-100958946D01*
X143450475Y-100959680D01*
X143450476Y-100959679D01*
X143450477Y-100959680D01*
X143519860Y-100957500D01*
X143549476Y-100957500D01*
X143556378Y-100956627D01*
X143562190Y-100956169D01*
X143608943Y-100954701D01*
X143628272Y-100949084D01*
X143647328Y-100945137D01*
X143667293Y-100942616D01*
X143710770Y-100925401D01*
X143716276Y-100923516D01*
X143761191Y-100910468D01*
X143778515Y-100900221D01*
X143795983Y-100891663D01*
X143814703Y-100884253D01*
X143852542Y-100856759D01*
X143857391Y-100853574D01*
X143897656Y-100829763D01*
X143911897Y-100815520D01*
X143926678Y-100802897D01*
X143942967Y-100791063D01*
X143942969Y-100791059D01*
X143942971Y-100791059D01*
X143955979Y-100775334D01*
X143972776Y-100755028D01*
X143976689Y-100750728D01*
X147035600Y-97691819D01*
X147096923Y-97658334D01*
X147123281Y-97655500D01*
X147745033Y-97655500D01*
X147760681Y-97657227D01*
X147760708Y-97656946D01*
X147768475Y-97657680D01*
X147768476Y-97657679D01*
X147768477Y-97657680D01*
X147837860Y-97655500D01*
X147867476Y-97655500D01*
X147874378Y-97654627D01*
X147880190Y-97654169D01*
X147926943Y-97652701D01*
X147946272Y-97647084D01*
X147965328Y-97643137D01*
X147985293Y-97640616D01*
X148028770Y-97623401D01*
X148034276Y-97621516D01*
X148079191Y-97608468D01*
X148096515Y-97598221D01*
X148113983Y-97589663D01*
X148132703Y-97582253D01*
X148170542Y-97554759D01*
X148175391Y-97551574D01*
X148215656Y-97527763D01*
X148229897Y-97513520D01*
X148244678Y-97500897D01*
X148260967Y-97489063D01*
X148260969Y-97489059D01*
X148260971Y-97489059D01*
X148273611Y-97473779D01*
X148290776Y-97453028D01*
X148294689Y-97448728D01*
X148813600Y-96929819D01*
X148874923Y-96896334D01*
X148901281Y-96893500D01*
X152825033Y-96893500D01*
X152840681Y-96895227D01*
X152840708Y-96894946D01*
X152848475Y-96895680D01*
X152848476Y-96895679D01*
X152848477Y-96895680D01*
X152917860Y-96893500D01*
X152947476Y-96893500D01*
X152954378Y-96892627D01*
X152960190Y-96892169D01*
X153006943Y-96890701D01*
X153026272Y-96885084D01*
X153045328Y-96881137D01*
X153065293Y-96878616D01*
X153108770Y-96861401D01*
X153114276Y-96859516D01*
X153159191Y-96846468D01*
X153176515Y-96836221D01*
X153193983Y-96827663D01*
X153212703Y-96820253D01*
X153250542Y-96792759D01*
X153255391Y-96789574D01*
X153295656Y-96765763D01*
X153309897Y-96751520D01*
X153324678Y-96738897D01*
X153340967Y-96727063D01*
X153340969Y-96727059D01*
X153340971Y-96727059D01*
X153352845Y-96712703D01*
X153370776Y-96691028D01*
X153374689Y-96686728D01*
X153874600Y-96186819D01*
X153935923Y-96153334D01*
X153962281Y-96150500D01*
X154018644Y-96150500D01*
X154018646Y-96150500D01*
X154203803Y-96111144D01*
X154376730Y-96034151D01*
X154529871Y-95922888D01*
X154656533Y-95782216D01*
X154751179Y-95618284D01*
X154794515Y-95484907D01*
X154833952Y-95427234D01*
X154898311Y-95400035D01*
X154967157Y-95411949D01*
X155000127Y-95435546D01*
X155546181Y-95981600D01*
X155579666Y-96042923D01*
X155582500Y-96069281D01*
X155582500Y-104844718D01*
X155562815Y-104911757D01*
X155546181Y-104932399D01*
X155065561Y-105413018D01*
X155004238Y-105446503D01*
X154934546Y-105441519D01*
X154878613Y-105399647D01*
X154870493Y-105387337D01*
X154845620Y-105344256D01*
X154824563Y-105307784D01*
X154697901Y-105167112D01*
X154697900Y-105167111D01*
X154544764Y-105055851D01*
X154544759Y-105055848D01*
X154371837Y-104978857D01*
X154371832Y-104978855D01*
X154226031Y-104947865D01*
X154186676Y-104939500D01*
X153997384Y-104939500D01*
X153964927Y-104946398D01*
X153812227Y-104978855D01*
X153812222Y-104978857D01*
X153639300Y-105055848D01*
X153639295Y-105055851D01*
X153486160Y-105167110D01*
X153486153Y-105167116D01*
X153412001Y-105249472D01*
X153352514Y-105286121D01*
X153319851Y-105290500D01*
X150307947Y-105290500D01*
X150240908Y-105270815D01*
X150215800Y-105249476D01*
X150211871Y-105245112D01*
X150211869Y-105245111D01*
X150211867Y-105245108D01*
X150211864Y-105245106D01*
X150058734Y-105133851D01*
X150058729Y-105133848D01*
X149885807Y-105056857D01*
X149885802Y-105056855D01*
X149740001Y-105025865D01*
X149700646Y-105017500D01*
X149511354Y-105017500D01*
X149478897Y-105024398D01*
X149326197Y-105056855D01*
X149326192Y-105056857D01*
X149153270Y-105133848D01*
X149153265Y-105133851D01*
X149000129Y-105245111D01*
X148873466Y-105385785D01*
X148778821Y-105549715D01*
X148778818Y-105549722D01*
X148732790Y-105691384D01*
X148720326Y-105729744D01*
X148700540Y-105918000D01*
X148720326Y-106106256D01*
X148720327Y-106106259D01*
X148778818Y-106286277D01*
X148778821Y-106286284D01*
X148873467Y-106450216D01*
X148963204Y-106549879D01*
X149000129Y-106590888D01*
X149153265Y-106702148D01*
X149153270Y-106702151D01*
X149326192Y-106779142D01*
X149326197Y-106779144D01*
X149511354Y-106818500D01*
X149511355Y-106818500D01*
X149700644Y-106818500D01*
X149700646Y-106818500D01*
X149885803Y-106779144D01*
X150058730Y-106702151D01*
X150211871Y-106590888D01*
X150215799Y-106586525D01*
X150275286Y-106549879D01*
X150307947Y-106545500D01*
X153490756Y-106545500D01*
X153557795Y-106565185D01*
X153563641Y-106569182D01*
X153644557Y-106627971D01*
X153643167Y-106629883D01*
X153683959Y-106672675D01*
X153697173Y-106741284D01*
X153671197Y-106806145D01*
X153661417Y-106817162D01*
X153538953Y-106939626D01*
X153526669Y-106949469D01*
X153526849Y-106949687D01*
X153520838Y-106954659D01*
X153473322Y-107005258D01*
X153452375Y-107026205D01*
X153448106Y-107031709D01*
X153444315Y-107036147D01*
X153412308Y-107070230D01*
X153412305Y-107070234D01*
X153402606Y-107087877D01*
X153391928Y-107104133D01*
X153379594Y-107120034D01*
X153379589Y-107120042D01*
X153361025Y-107162943D01*
X153358454Y-107168191D01*
X153335927Y-107209167D01*
X153330920Y-107228668D01*
X153324621Y-107247064D01*
X153317893Y-107262612D01*
X153316625Y-107265544D01*
X153316625Y-107265546D01*
X153309312Y-107311719D01*
X153308126Y-107317446D01*
X153306627Y-107323280D01*
X153270885Y-107383315D01*
X153208359Y-107414497D01*
X153138901Y-107406924D01*
X153094376Y-107375407D01*
X153005871Y-107277112D01*
X152989949Y-107265544D01*
X152852734Y-107165851D01*
X152852729Y-107165848D01*
X152679807Y-107088857D01*
X152679802Y-107088855D01*
X152523721Y-107055680D01*
X152494646Y-107049500D01*
X152305354Y-107049500D01*
X152276279Y-107055680D01*
X152120197Y-107088855D01*
X152120192Y-107088857D01*
X151947270Y-107165848D01*
X151947265Y-107165851D01*
X151794129Y-107277111D01*
X151667466Y-107417785D01*
X151572821Y-107581715D01*
X151572818Y-107581722D01*
X151519213Y-107746703D01*
X151514326Y-107761744D01*
X151511683Y-107786893D01*
X151507558Y-107826140D01*
X151480973Y-107890754D01*
X151471918Y-107900858D01*
X151134095Y-108238682D01*
X151072774Y-108272166D01*
X151046416Y-108275000D01*
X148957232Y-108275000D01*
X148890193Y-108255315D01*
X148884347Y-108251318D01*
X148788734Y-108181851D01*
X148788729Y-108181848D01*
X148615807Y-108104857D01*
X148615802Y-108104855D01*
X148470001Y-108073865D01*
X148430646Y-108065500D01*
X148241354Y-108065500D01*
X148208897Y-108072398D01*
X148056197Y-108104855D01*
X148056192Y-108104857D01*
X147883270Y-108181848D01*
X147883265Y-108181851D01*
X147730129Y-108293111D01*
X147603466Y-108433785D01*
X147508821Y-108597715D01*
X147508818Y-108597722D01*
X147454388Y-108765241D01*
X147450326Y-108777744D01*
X147430540Y-108966000D01*
X147450326Y-109154256D01*
X147450327Y-109154259D01*
X147508818Y-109334277D01*
X147508821Y-109334284D01*
X147603467Y-109498216D01*
X147689299Y-109593542D01*
X147730129Y-109638888D01*
X147883265Y-109750148D01*
X147883270Y-109750151D01*
X148056192Y-109827142D01*
X148056197Y-109827144D01*
X148241354Y-109866500D01*
X148241355Y-109866500D01*
X148430644Y-109866500D01*
X148430646Y-109866500D01*
X148615803Y-109827144D01*
X148788730Y-109750151D01*
X148816284Y-109730132D01*
X148884347Y-109680682D01*
X148950153Y-109657202D01*
X148957232Y-109657000D01*
X151361247Y-109657000D01*
X151364992Y-109657113D01*
X151426026Y-109660805D01*
X151426026Y-109660804D01*
X151426028Y-109660805D01*
X151486185Y-109649779D01*
X151489870Y-109649219D01*
X151550582Y-109641848D01*
X151559788Y-109638356D01*
X151581403Y-109632330D01*
X151591085Y-109630557D01*
X151646865Y-109605451D01*
X151650281Y-109604037D01*
X151707482Y-109582344D01*
X151715580Y-109576754D01*
X151735139Y-109565722D01*
X151744105Y-109561688D01*
X151792249Y-109523968D01*
X151795255Y-109521757D01*
X151803651Y-109515962D01*
X151845583Y-109487020D01*
X151886144Y-109441234D01*
X151888678Y-109438542D01*
X152445913Y-108881308D01*
X152507234Y-108847825D01*
X152507557Y-108847755D01*
X152679803Y-108811144D01*
X152852730Y-108734151D01*
X153005871Y-108622888D01*
X153080351Y-108540168D01*
X153139836Y-108503521D01*
X153209693Y-108504851D01*
X153267742Y-108543738D01*
X153295552Y-108607834D01*
X153296500Y-108623142D01*
X153296500Y-109416719D01*
X153276815Y-109483758D01*
X153260181Y-109504400D01*
X151668400Y-111096181D01*
X151607077Y-111129666D01*
X151580719Y-111132500D01*
X151323947Y-111132500D01*
X151256908Y-111112815D01*
X151231800Y-111091476D01*
X151227871Y-111087112D01*
X151227869Y-111087111D01*
X151227867Y-111087108D01*
X151227864Y-111087106D01*
X151074734Y-110975851D01*
X151074729Y-110975848D01*
X150901807Y-110898857D01*
X150901802Y-110898855D01*
X150756001Y-110867865D01*
X150716646Y-110859500D01*
X150527354Y-110859500D01*
X150494897Y-110866398D01*
X150342197Y-110898855D01*
X150342192Y-110898857D01*
X150169270Y-110975848D01*
X150169265Y-110975851D01*
X150016129Y-111087111D01*
X149889466Y-111227785D01*
X149794821Y-111391715D01*
X149794818Y-111391722D01*
X149736327Y-111571740D01*
X149736326Y-111571744D01*
X149716540Y-111760000D01*
X149736326Y-111948256D01*
X149736327Y-111948259D01*
X149794818Y-112128277D01*
X149794821Y-112128284D01*
X149889467Y-112292216D01*
X150000702Y-112415755D01*
X150016129Y-112432888D01*
X150169265Y-112544148D01*
X150169270Y-112544151D01*
X150342192Y-112621142D01*
X150342197Y-112621144D01*
X150527354Y-112660500D01*
X150527355Y-112660500D01*
X150716644Y-112660500D01*
X150716646Y-112660500D01*
X150901803Y-112621144D01*
X151074730Y-112544151D01*
X151227871Y-112432888D01*
X151231799Y-112428525D01*
X151291286Y-112391879D01*
X151323947Y-112387500D01*
X151809033Y-112387500D01*
X151824681Y-112389227D01*
X151824708Y-112388946D01*
X151832475Y-112389680D01*
X151832476Y-112389679D01*
X151832477Y-112389680D01*
X151901860Y-112387500D01*
X151931476Y-112387500D01*
X151938378Y-112386627D01*
X151944190Y-112386169D01*
X151990943Y-112384701D01*
X152010272Y-112379084D01*
X152029328Y-112375137D01*
X152049293Y-112372616D01*
X152092770Y-112355401D01*
X152098276Y-112353516D01*
X152143191Y-112340468D01*
X152160515Y-112330221D01*
X152177983Y-112321663D01*
X152196703Y-112314253D01*
X152234542Y-112286759D01*
X152239391Y-112283574D01*
X152279656Y-112259763D01*
X152293897Y-112245520D01*
X152308678Y-112232897D01*
X152324967Y-112221063D01*
X152324969Y-112221059D01*
X152324971Y-112221059D01*
X152336845Y-112206703D01*
X152354776Y-112185028D01*
X152358689Y-112180728D01*
X154309043Y-110230374D01*
X154321325Y-110220537D01*
X154321144Y-110220318D01*
X154327152Y-110215346D01*
X154327162Y-110215340D01*
X154374677Y-110164741D01*
X154395623Y-110143796D01*
X154399892Y-110138290D01*
X154403676Y-110133859D01*
X154435693Y-110099767D01*
X154445389Y-110082128D01*
X154456073Y-110065861D01*
X154468408Y-110049962D01*
X154486983Y-110007034D01*
X154489534Y-110001827D01*
X154512072Y-109960834D01*
X154517078Y-109941334D01*
X154523376Y-109922936D01*
X154531374Y-109904458D01*
X154538688Y-109858276D01*
X154539870Y-109852565D01*
X154551500Y-109807272D01*
X154551500Y-109787141D01*
X154553027Y-109767741D01*
X154554898Y-109755928D01*
X154556175Y-109747867D01*
X154551775Y-109701321D01*
X154551500Y-109695483D01*
X154551500Y-107753280D01*
X154571185Y-107686241D01*
X154587814Y-107665604D01*
X156595043Y-105658374D01*
X156607325Y-105648537D01*
X156607144Y-105648318D01*
X156613152Y-105643346D01*
X156613162Y-105643340D01*
X156660677Y-105592741D01*
X156681623Y-105571796D01*
X156685892Y-105566290D01*
X156689676Y-105561859D01*
X156721693Y-105527767D01*
X156731389Y-105510128D01*
X156742073Y-105493861D01*
X156754408Y-105477962D01*
X156772978Y-105435046D01*
X156775534Y-105429827D01*
X156798072Y-105388834D01*
X156803081Y-105369322D01*
X156809378Y-105350932D01*
X156817373Y-105332459D01*
X156824689Y-105286257D01*
X156825864Y-105280583D01*
X156837500Y-105235272D01*
X156837500Y-105215141D01*
X156839027Y-105195741D01*
X156839832Y-105190660D01*
X156842175Y-105175867D01*
X156837775Y-105129321D01*
X156837500Y-105123483D01*
X156837500Y-95840964D01*
X156839228Y-95825314D01*
X156838946Y-95825288D01*
X156839679Y-95817528D01*
X156839678Y-95817527D01*
X156839680Y-95817523D01*
X156839120Y-95799735D01*
X156856687Y-95732114D01*
X156908026Y-95684721D01*
X156976838Y-95672608D01*
X157041275Y-95699620D01*
X157050740Y-95708159D01*
X160884091Y-99541510D01*
X160917576Y-99602833D01*
X160912592Y-99672525D01*
X160888560Y-99712163D01*
X160811466Y-99797784D01*
X160716821Y-99961715D01*
X160716818Y-99961722D01*
X160658327Y-100141740D01*
X160658326Y-100141744D01*
X160638540Y-100330000D01*
X160658326Y-100518256D01*
X160658327Y-100518259D01*
X160716818Y-100698277D01*
X160716821Y-100698284D01*
X160811467Y-100862216D01*
X160938129Y-101002888D01*
X160938130Y-101002889D01*
X160941736Y-101006136D01*
X160978384Y-101065622D01*
X160977053Y-101135479D01*
X160938166Y-101193527D01*
X160884544Y-101219575D01*
X160756197Y-101246855D01*
X160756192Y-101246857D01*
X160583270Y-101323848D01*
X160583266Y-101323850D01*
X160504682Y-101380945D01*
X160438876Y-101404424D01*
X160370822Y-101388598D01*
X160324411Y-101342626D01*
X160309480Y-101316766D01*
X160292852Y-101287965D01*
X160243240Y-101232866D01*
X160217787Y-101204597D01*
X160166190Y-101147293D01*
X160166189Y-101147292D01*
X160013053Y-101036032D01*
X160013048Y-101036029D01*
X159840126Y-100959038D01*
X159840121Y-100959036D01*
X159726819Y-100934954D01*
X159665337Y-100901762D01*
X159631561Y-100840599D01*
X159634514Y-100778657D01*
X159634322Y-100778617D01*
X159634572Y-100777437D01*
X159634672Y-100775337D01*
X159635674Y-100772256D01*
X159655460Y-100584000D01*
X159635674Y-100395744D01*
X159577179Y-100215716D01*
X159482533Y-100051784D01*
X159355871Y-99911112D01*
X159353522Y-99909405D01*
X159202734Y-99799851D01*
X159202729Y-99799848D01*
X159029807Y-99722857D01*
X159029802Y-99722855D01*
X158884001Y-99691865D01*
X158844646Y-99683500D01*
X158655354Y-99683500D01*
X158632588Y-99688339D01*
X158470197Y-99722855D01*
X158470192Y-99722857D01*
X158297270Y-99799848D01*
X158297265Y-99799851D01*
X158144129Y-99911111D01*
X158017466Y-100051785D01*
X157922821Y-100215715D01*
X157922818Y-100215722D01*
X157867907Y-100384723D01*
X157864326Y-100395744D01*
X157844540Y-100584000D01*
X157864326Y-100772256D01*
X157864327Y-100772259D01*
X157922818Y-100952277D01*
X157922821Y-100952284D01*
X158012641Y-101107858D01*
X158017467Y-101116216D01*
X158090651Y-101197494D01*
X158120880Y-101260484D01*
X158122500Y-101280465D01*
X158122500Y-101542718D01*
X158102815Y-101609757D01*
X158086181Y-101630399D01*
X157348953Y-102367626D01*
X157336669Y-102377469D01*
X157336849Y-102377687D01*
X157330838Y-102382659D01*
X157283322Y-102433258D01*
X157262375Y-102454205D01*
X157258106Y-102459709D01*
X157254315Y-102464147D01*
X157222308Y-102498230D01*
X157222305Y-102498234D01*
X157212606Y-102515877D01*
X157201928Y-102532133D01*
X157189594Y-102548034D01*
X157189589Y-102548042D01*
X157171025Y-102590943D01*
X157168454Y-102596191D01*
X157145927Y-102637167D01*
X157140920Y-102656668D01*
X157134621Y-102675064D01*
X157131913Y-102681325D01*
X157126625Y-102693544D01*
X157126624Y-102693546D01*
X157119312Y-102739716D01*
X157118127Y-102745438D01*
X157106500Y-102790723D01*
X157106500Y-102810858D01*
X157104973Y-102830257D01*
X157101825Y-102850131D01*
X157106225Y-102896677D01*
X157106500Y-102902515D01*
X157106500Y-103803032D01*
X157104772Y-103818681D01*
X157105054Y-103818708D01*
X157104319Y-103826475D01*
X157106500Y-103895859D01*
X157106500Y-103925477D01*
X157107371Y-103932380D01*
X157107829Y-103938199D01*
X157109298Y-103984942D01*
X157114916Y-104004275D01*
X157118862Y-104023329D01*
X157121383Y-104043287D01*
X157121386Y-104043299D01*
X157138595Y-104086765D01*
X157140487Y-104092293D01*
X157153530Y-104137187D01*
X157153530Y-104137188D01*
X157163777Y-104154515D01*
X157172335Y-104171985D01*
X157179745Y-104190701D01*
X157207229Y-104228529D01*
X157210437Y-104233413D01*
X157234234Y-104273652D01*
X157234240Y-104273660D01*
X157248469Y-104287888D01*
X157261109Y-104302687D01*
X157272934Y-104318964D01*
X157272936Y-104318965D01*
X157272937Y-104318967D01*
X157308957Y-104348765D01*
X157313268Y-104352687D01*
X157584365Y-104623784D01*
X157832181Y-104871600D01*
X157865666Y-104932923D01*
X157868500Y-104959281D01*
X157868500Y-107359032D01*
X157866772Y-107374681D01*
X157867054Y-107374708D01*
X157866319Y-107382475D01*
X157868500Y-107451859D01*
X157868500Y-107481477D01*
X157869371Y-107488380D01*
X157869829Y-107494199D01*
X157871298Y-107540942D01*
X157876916Y-107560275D01*
X157880861Y-107579327D01*
X157881164Y-107581722D01*
X157883383Y-107599287D01*
X157883386Y-107599299D01*
X157900595Y-107642765D01*
X157902487Y-107648293D01*
X157915530Y-107693187D01*
X157915530Y-107693188D01*
X157925777Y-107710515D01*
X157934335Y-107727985D01*
X157941745Y-107746701D01*
X157969229Y-107784529D01*
X157972437Y-107789413D01*
X157996234Y-107829652D01*
X157996240Y-107829660D01*
X158010469Y-107843888D01*
X158023106Y-107858684D01*
X158025573Y-107862079D01*
X158034934Y-107874964D01*
X158034936Y-107874965D01*
X158034937Y-107874967D01*
X158069175Y-107903291D01*
X158070957Y-107904765D01*
X158075268Y-107908687D01*
X158926291Y-108759710D01*
X159742006Y-109575425D01*
X159751853Y-109587715D01*
X159752071Y-109587536D01*
X159757039Y-109593542D01*
X159807639Y-109641059D01*
X159820618Y-109654037D01*
X159828587Y-109662006D01*
X159834088Y-109666273D01*
X159838527Y-109670064D01*
X159872615Y-109702075D01*
X159890266Y-109711778D01*
X159906516Y-109722453D01*
X159916410Y-109730128D01*
X159922420Y-109734790D01*
X159922423Y-109734792D01*
X159965324Y-109753356D01*
X159970572Y-109755926D01*
X160011548Y-109778454D01*
X160030622Y-109783351D01*
X160031042Y-109783459D01*
X160049446Y-109789759D01*
X160067924Y-109797756D01*
X160111420Y-109804644D01*
X160114106Y-109805070D01*
X160119811Y-109806251D01*
X160165110Y-109817882D01*
X160185240Y-109817882D01*
X160204639Y-109819409D01*
X160224515Y-109822557D01*
X160267161Y-109818525D01*
X160271061Y-109818157D01*
X160276899Y-109817882D01*
X162267740Y-109817882D01*
X162334779Y-109837567D01*
X162380534Y-109890371D01*
X162390478Y-109959529D01*
X162361453Y-110023085D01*
X162302675Y-110060859D01*
X162299833Y-110061657D01*
X162096344Y-110116180D01*
X162096335Y-110116184D01*
X161882171Y-110216050D01*
X161882169Y-110216051D01*
X161688597Y-110351591D01*
X161521505Y-110518683D01*
X161385965Y-110712255D01*
X161385964Y-110712257D01*
X161286098Y-110926421D01*
X161286094Y-110926430D01*
X161224938Y-111154672D01*
X161224936Y-111154682D01*
X161204341Y-111390085D01*
X161204341Y-111390086D01*
X161224936Y-111625489D01*
X161224938Y-111625499D01*
X161286094Y-111853741D01*
X161286096Y-111853745D01*
X161286097Y-111853749D01*
X161330168Y-111948259D01*
X161381831Y-112059051D01*
X161392323Y-112128129D01*
X161363803Y-112191913D01*
X161305327Y-112230152D01*
X161280257Y-112234984D01*
X161054596Y-112254727D01*
X161054586Y-112254729D01*
X160826344Y-112315885D01*
X160826335Y-112315889D01*
X160612171Y-112415755D01*
X160612169Y-112415756D01*
X160418597Y-112551296D01*
X160251505Y-112718388D01*
X160115965Y-112911960D01*
X160115964Y-112911962D01*
X160016098Y-113126126D01*
X160016094Y-113126135D01*
X159954938Y-113354377D01*
X159954936Y-113354387D01*
X159934341Y-113589790D01*
X159934341Y-113589791D01*
X159954936Y-113825194D01*
X159954938Y-113825204D01*
X160016094Y-114053446D01*
X160016096Y-114053450D01*
X160016097Y-114053454D01*
X160091447Y-114215042D01*
X160111831Y-114258755D01*
X160122323Y-114327833D01*
X160093803Y-114391617D01*
X160035327Y-114429856D01*
X160010257Y-114434688D01*
X159784596Y-114454431D01*
X159784586Y-114454433D01*
X159556344Y-114515589D01*
X159556335Y-114515593D01*
X159342171Y-114615459D01*
X159342169Y-114615460D01*
X159148597Y-114751000D01*
X158981505Y-114918092D01*
X158845965Y-115111664D01*
X158845964Y-115111666D01*
X158746098Y-115325830D01*
X158746094Y-115325839D01*
X158684938Y-115554081D01*
X158684936Y-115554091D01*
X158664341Y-115789494D01*
X158664341Y-115789495D01*
X158684936Y-116024898D01*
X158684938Y-116024908D01*
X158746094Y-116253150D01*
X158746096Y-116253154D01*
X158746097Y-116253158D01*
X158781458Y-116328989D01*
X158845965Y-116467325D01*
X158845967Y-116467329D01*
X158884591Y-116522489D01*
X158981505Y-116660896D01*
X159148599Y-116827990D01*
X159245384Y-116895760D01*
X159342165Y-116963527D01*
X159342167Y-116963528D01*
X159342170Y-116963530D01*
X159556337Y-117063398D01*
X159784592Y-117124558D01*
X159972918Y-117141034D01*
X160019999Y-117145154D01*
X160020000Y-117145154D01*
X160020001Y-117145154D01*
X160059234Y-117141721D01*
X160255408Y-117124558D01*
X160483663Y-117063398D01*
X160697830Y-116963530D01*
X160891401Y-116827990D01*
X161058495Y-116660896D01*
X161194035Y-116467325D01*
X161293903Y-116253158D01*
X161355063Y-116024903D01*
X161375659Y-115789495D01*
X161355063Y-115554087D01*
X161293903Y-115325832D01*
X161198167Y-115120528D01*
X161187676Y-115051453D01*
X161216196Y-114987669D01*
X161274672Y-114949429D01*
X161299737Y-114944598D01*
X161525408Y-114924854D01*
X161753663Y-114863694D01*
X161967830Y-114763826D01*
X162161401Y-114628286D01*
X162328495Y-114461192D01*
X162464035Y-114267621D01*
X162563903Y-114053454D01*
X162625063Y-113825199D01*
X162645659Y-113589791D01*
X162625063Y-113354383D01*
X162563903Y-113126128D01*
X162468168Y-112920825D01*
X162457676Y-112851747D01*
X162486196Y-112787963D01*
X162544672Y-112749724D01*
X162569737Y-112744893D01*
X162795408Y-112725149D01*
X163023663Y-112663989D01*
X163237830Y-112564121D01*
X163431401Y-112428581D01*
X163598495Y-112261487D01*
X163734035Y-112067916D01*
X163833903Y-111853749D01*
X163895063Y-111625494D01*
X163915659Y-111390086D01*
X163895063Y-111154678D01*
X163847147Y-110975851D01*
X163833905Y-110926430D01*
X163833902Y-110926421D01*
X163738168Y-110721121D01*
X163727676Y-110652044D01*
X163756196Y-110588260D01*
X163814672Y-110550020D01*
X163839737Y-110545189D01*
X164065408Y-110525445D01*
X164293663Y-110464285D01*
X164507830Y-110364417D01*
X164701401Y-110228877D01*
X164868495Y-110061783D01*
X165004035Y-109868212D01*
X165103903Y-109654045D01*
X165165063Y-109425790D01*
X165185659Y-109190382D01*
X165165063Y-108954974D01*
X165103903Y-108726719D01*
X165008168Y-108521416D01*
X164997676Y-108452338D01*
X165026196Y-108388554D01*
X165084672Y-108350315D01*
X165109737Y-108345484D01*
X165335408Y-108325740D01*
X165563663Y-108264580D01*
X165777830Y-108164712D01*
X165971401Y-108029172D01*
X166138495Y-107862078D01*
X166274035Y-107668507D01*
X166373903Y-107454340D01*
X166435063Y-107226085D01*
X166455659Y-106990677D01*
X166452342Y-106952770D01*
X166448735Y-106911534D01*
X166435063Y-106755269D01*
X166373903Y-106527014D01*
X166280402Y-106326501D01*
X166278168Y-106321711D01*
X166267676Y-106252633D01*
X166296196Y-106188849D01*
X166354672Y-106150610D01*
X166379737Y-106145779D01*
X166605408Y-106126035D01*
X166833663Y-106064875D01*
X167047830Y-105965007D01*
X167241401Y-105829467D01*
X167408495Y-105662373D01*
X167544035Y-105468802D01*
X167643903Y-105254635D01*
X167705063Y-105026380D01*
X167725659Y-104790972D01*
X167705063Y-104555564D01*
X167650706Y-104352698D01*
X167643905Y-104327316D01*
X167643902Y-104327307D01*
X167632421Y-104302687D01*
X167548167Y-104122005D01*
X167537676Y-104052930D01*
X167566196Y-103989146D01*
X167624672Y-103950906D01*
X167649737Y-103946075D01*
X167875408Y-103926331D01*
X168103663Y-103865171D01*
X168317830Y-103765303D01*
X168511401Y-103629763D01*
X168678495Y-103462669D01*
X168814035Y-103269098D01*
X168913903Y-103054931D01*
X168975063Y-102826676D01*
X168995659Y-102591268D01*
X168975063Y-102355860D01*
X168913903Y-102127605D01*
X168818168Y-101922302D01*
X168807676Y-101853224D01*
X168836196Y-101789440D01*
X168894672Y-101751201D01*
X168919737Y-101746370D01*
X169145408Y-101726626D01*
X169373663Y-101665466D01*
X169587830Y-101565598D01*
X169781401Y-101430058D01*
X169948495Y-101262964D01*
X170084035Y-101069393D01*
X170183903Y-100855226D01*
X170245063Y-100626971D01*
X170265659Y-100391563D01*
X170245063Y-100156155D01*
X170196758Y-99975877D01*
X170183905Y-99927907D01*
X170183902Y-99927898D01*
X170177516Y-99914204D01*
X170088167Y-99722596D01*
X170077676Y-99653521D01*
X170106196Y-99589737D01*
X170164672Y-99551497D01*
X170189737Y-99546666D01*
X170415408Y-99526922D01*
X170643663Y-99465762D01*
X170857830Y-99365894D01*
X171051401Y-99230354D01*
X171218495Y-99063260D01*
X171354035Y-98869689D01*
X171453903Y-98655522D01*
X171515063Y-98427267D01*
X171535659Y-98191859D01*
X171515063Y-97956451D01*
X171453903Y-97728196D01*
X171358168Y-97522893D01*
X171347676Y-97453815D01*
X171376196Y-97390031D01*
X171434672Y-97351792D01*
X171459737Y-97346961D01*
X171685408Y-97327217D01*
X171913663Y-97266057D01*
X172127830Y-97166189D01*
X172321401Y-97030649D01*
X172488495Y-96863555D01*
X172624035Y-96669984D01*
X172723903Y-96455817D01*
X172785063Y-96227562D01*
X172805659Y-95992154D01*
X172785063Y-95756746D01*
X172723903Y-95528491D01*
X172628167Y-95323187D01*
X172617676Y-95254112D01*
X172646196Y-95190328D01*
X172704672Y-95152088D01*
X172729737Y-95147257D01*
X172955408Y-95127513D01*
X173183663Y-95066353D01*
X173397830Y-94966485D01*
X173591401Y-94830945D01*
X173758495Y-94663851D01*
X173894035Y-94470280D01*
X173993903Y-94256113D01*
X174055063Y-94027858D01*
X174075659Y-93792450D01*
X174055063Y-93557042D01*
X174006364Y-93375293D01*
X173993905Y-93328794D01*
X173993904Y-93328793D01*
X173993903Y-93328787D01*
X173898168Y-93123484D01*
X173887676Y-93054406D01*
X173916196Y-92990622D01*
X173974672Y-92952383D01*
X173999737Y-92947552D01*
X174225408Y-92927808D01*
X174453663Y-92866648D01*
X174667830Y-92766780D01*
X174861401Y-92631240D01*
X175028495Y-92464146D01*
X175164035Y-92270575D01*
X175263903Y-92056408D01*
X175325063Y-91828153D01*
X175345659Y-91592745D01*
X175325063Y-91357337D01*
X175263903Y-91129082D01*
X175168167Y-90923778D01*
X175157676Y-90854703D01*
X175186196Y-90790919D01*
X175244672Y-90752679D01*
X175269737Y-90747848D01*
X175495408Y-90728104D01*
X175723663Y-90666944D01*
X175937830Y-90567076D01*
X176131401Y-90431536D01*
X176298495Y-90264442D01*
X176434035Y-90070871D01*
X176533903Y-89856704D01*
X176595063Y-89628449D01*
X176615659Y-89393041D01*
X176595063Y-89157633D01*
X176550435Y-88991077D01*
X176552098Y-88921228D01*
X176591261Y-88863366D01*
X176655489Y-88835862D01*
X176690774Y-88836702D01*
X176829087Y-88859962D01*
X176829087Y-88859961D01*
X176829088Y-88859962D01*
X176971993Y-88842875D01*
X177092432Y-88791300D01*
X177104293Y-88786221D01*
X177104293Y-88786220D01*
X177104295Y-88786220D01*
X177215275Y-88694586D01*
X177250631Y-88646167D01*
X178148502Y-87091006D01*
X178172758Y-87036177D01*
X178191852Y-86922633D01*
X178196626Y-86894249D01*
X178196626Y-86894248D01*
X178179539Y-86751343D01*
X178148877Y-86679740D01*
X178122885Y-86619042D01*
X178122883Y-86619040D01*
X178031251Y-86508062D01*
X178031247Y-86508058D01*
X177982835Y-86472707D01*
X177982827Y-86472702D01*
X177079456Y-85951142D01*
X176427670Y-85574834D01*
X176372841Y-85550578D01*
X176372838Y-85550577D01*
X176372837Y-85550577D01*
X176230912Y-85526709D01*
X176088005Y-85543797D01*
X175955706Y-85600450D01*
X175955704Y-85600452D01*
X175844726Y-85692084D01*
X175844722Y-85692088D01*
X175809371Y-85740500D01*
X175809366Y-85740508D01*
X174991225Y-87157575D01*
X174911498Y-87295666D01*
X174905044Y-87310256D01*
X174887241Y-87350498D01*
X174863373Y-87492422D01*
X174863373Y-87492423D01*
X174880461Y-87635330D01*
X174937114Y-87767628D01*
X174937115Y-87767629D01*
X174937116Y-87767631D01*
X175026417Y-87875785D01*
X175053921Y-87940013D01*
X175042335Y-88008916D01*
X174995336Y-88060616D01*
X174962891Y-88074510D01*
X174796344Y-88119135D01*
X174796335Y-88119139D01*
X174582171Y-88219005D01*
X174582169Y-88219006D01*
X174388597Y-88354546D01*
X174221505Y-88521638D01*
X174085965Y-88715210D01*
X174085964Y-88715212D01*
X173986098Y-88929376D01*
X173986094Y-88929385D01*
X173924938Y-89157627D01*
X173924936Y-89157637D01*
X173904341Y-89393040D01*
X173904341Y-89393041D01*
X173924936Y-89628444D01*
X173924938Y-89628454D01*
X173986094Y-89856696D01*
X173986096Y-89856700D01*
X173986097Y-89856704D01*
X174073271Y-90043649D01*
X174081831Y-90062005D01*
X174092323Y-90131083D01*
X174063803Y-90194867D01*
X174005327Y-90233106D01*
X173980257Y-90237938D01*
X173754596Y-90257681D01*
X173754583Y-90257684D01*
X173656356Y-90284003D01*
X173586507Y-90282340D01*
X173536583Y-90251909D01*
X172875819Y-89591145D01*
X172842334Y-89529822D01*
X172839500Y-89503464D01*
X172839500Y-89088465D01*
X172859185Y-89021426D01*
X172871343Y-89005500D01*
X172944533Y-88924216D01*
X173039179Y-88760284D01*
X173097674Y-88580256D01*
X173117460Y-88392000D01*
X173097674Y-88203744D01*
X173039179Y-88023716D01*
X172944533Y-87859784D01*
X172817871Y-87719112D01*
X172785708Y-87695744D01*
X172664734Y-87607851D01*
X172664729Y-87607848D01*
X172491807Y-87530857D01*
X172491802Y-87530855D01*
X172333674Y-87497245D01*
X172306646Y-87491500D01*
X172117354Y-87491500D01*
X172090326Y-87497245D01*
X171932197Y-87530855D01*
X171932192Y-87530857D01*
X171759270Y-87607848D01*
X171759265Y-87607851D01*
X171606129Y-87719111D01*
X171479466Y-87859785D01*
X171384821Y-88023715D01*
X171384818Y-88023722D01*
X171344517Y-88147758D01*
X171326326Y-88203744D01*
X171306540Y-88392000D01*
X171326326Y-88580256D01*
X171326327Y-88580259D01*
X171384818Y-88760277D01*
X171384821Y-88760284D01*
X171479467Y-88924216D01*
X171552651Y-89005494D01*
X171582880Y-89068484D01*
X171584500Y-89088465D01*
X171584500Y-89731777D01*
X171582772Y-89747426D01*
X171583054Y-89747453D01*
X171582319Y-89755220D01*
X171584500Y-89824604D01*
X171584500Y-89854222D01*
X171585371Y-89861125D01*
X171585829Y-89866944D01*
X171587298Y-89913687D01*
X171592916Y-89933020D01*
X171596862Y-89952074D01*
X171599383Y-89972032D01*
X171599386Y-89972044D01*
X171616595Y-90015510D01*
X171618487Y-90021038D01*
X171631530Y-90065932D01*
X171631530Y-90065933D01*
X171641777Y-90083260D01*
X171650335Y-90100730D01*
X171657745Y-90119446D01*
X171685229Y-90157274D01*
X171688437Y-90162158D01*
X171712234Y-90202397D01*
X171712240Y-90202405D01*
X171726469Y-90216633D01*
X171739109Y-90231432D01*
X171750934Y-90247709D01*
X171750936Y-90247710D01*
X171750937Y-90247712D01*
X171786957Y-90277510D01*
X171791268Y-90281432D01*
X172237938Y-90728102D01*
X172649164Y-91139328D01*
X172682649Y-91200651D01*
X172681258Y-91259101D01*
X172654939Y-91357328D01*
X172654936Y-91357341D01*
X172634341Y-91592744D01*
X172634341Y-91592745D01*
X172654936Y-91828148D01*
X172654938Y-91828158D01*
X172716094Y-92056400D01*
X172716096Y-92056404D01*
X172716097Y-92056408D01*
X172751575Y-92132490D01*
X172811831Y-92261710D01*
X172822323Y-92330788D01*
X172793803Y-92394572D01*
X172735327Y-92432811D01*
X172710257Y-92437643D01*
X172484596Y-92457386D01*
X172484583Y-92457389D01*
X172386356Y-92483708D01*
X172316507Y-92482045D01*
X172266583Y-92451614D01*
X171631926Y-91816957D01*
X171622081Y-91804668D01*
X171621863Y-91804849D01*
X171616890Y-91798838D01*
X171609801Y-91792181D01*
X171566291Y-91751322D01*
X171555818Y-91740849D01*
X171545347Y-91730377D01*
X171539846Y-91726111D01*
X171535398Y-91722312D01*
X171513823Y-91702051D01*
X171501317Y-91690307D01*
X171501316Y-91690306D01*
X171501313Y-91690304D01*
X171483672Y-91680606D01*
X171467407Y-91669922D01*
X171451513Y-91657593D01*
X171451512Y-91657592D01*
X171436354Y-91651032D01*
X171408604Y-91639023D01*
X171403357Y-91636453D01*
X171362387Y-91613929D01*
X171362378Y-91613926D01*
X171342884Y-91608920D01*
X171324483Y-91602620D01*
X171306009Y-91594626D01*
X171306002Y-91594624D01*
X171259837Y-91587313D01*
X171254113Y-91586128D01*
X171208829Y-91574500D01*
X171208822Y-91574500D01*
X171188692Y-91574500D01*
X171169293Y-91572973D01*
X171149418Y-91569825D01*
X171149417Y-91569825D01*
X171102871Y-91574225D01*
X171097033Y-91574500D01*
X169475281Y-91574500D01*
X169408242Y-91554815D01*
X169387600Y-91538181D01*
X167037408Y-89187989D01*
X167003923Y-89126666D01*
X167001768Y-89087356D01*
X167021460Y-88900000D01*
X167001674Y-88711744D01*
X166943179Y-88531716D01*
X166848533Y-88367784D01*
X166721871Y-88227112D01*
X166710713Y-88219005D01*
X166568734Y-88115851D01*
X166568729Y-88115848D01*
X166395807Y-88038857D01*
X166395802Y-88038855D01*
X166250001Y-88007865D01*
X166210646Y-87999500D01*
X166021354Y-87999500D01*
X165988897Y-88006398D01*
X165836197Y-88038855D01*
X165836192Y-88038857D01*
X165663270Y-88115848D01*
X165663265Y-88115851D01*
X165510129Y-88227111D01*
X165435650Y-88309829D01*
X165376163Y-88346478D01*
X165306306Y-88345147D01*
X165248258Y-88306261D01*
X165220448Y-88242164D01*
X165219500Y-88226857D01*
X165219500Y-84664964D01*
X165221228Y-84649313D01*
X165220946Y-84649287D01*
X165221680Y-84641524D01*
X165219500Y-84572140D01*
X165219500Y-84542530D01*
X165219500Y-84542524D01*
X165218626Y-84535607D01*
X165218169Y-84529792D01*
X165217751Y-84516492D01*
X165216701Y-84483058D01*
X165211082Y-84463718D01*
X165207139Y-84444685D01*
X165204616Y-84424707D01*
X165187403Y-84381234D01*
X165185514Y-84375713D01*
X165173575Y-84334620D01*
X165172468Y-84330809D01*
X165172467Y-84330807D01*
X165162225Y-84313489D01*
X165153662Y-84296011D01*
X165146253Y-84277297D01*
X165146253Y-84277296D01*
X165118771Y-84239472D01*
X165115567Y-84234596D01*
X165091763Y-84194344D01*
X165091761Y-84194342D01*
X165091759Y-84194339D01*
X165077531Y-84180112D01*
X165064896Y-84165320D01*
X165053063Y-84149033D01*
X165053060Y-84149031D01*
X165053060Y-84149030D01*
X165053059Y-84149029D01*
X165017035Y-84119228D01*
X165012713Y-84115294D01*
X164768628Y-83871209D01*
X164735143Y-83809886D01*
X164732990Y-83796506D01*
X164715674Y-83631744D01*
X164657179Y-83451716D01*
X164562533Y-83287784D01*
X164435871Y-83147112D01*
X164403708Y-83123744D01*
X164282734Y-83035851D01*
X164282729Y-83035848D01*
X164109807Y-82958857D01*
X164109802Y-82958855D01*
X163964001Y-82927865D01*
X163924646Y-82919500D01*
X163735354Y-82919500D01*
X163712588Y-82924339D01*
X163550197Y-82958855D01*
X163550192Y-82958857D01*
X163377270Y-83035848D01*
X163377265Y-83035851D01*
X163224132Y-83147109D01*
X163224129Y-83147111D01*
X163224129Y-83147112D01*
X163159828Y-83218526D01*
X163156174Y-83222584D01*
X163096687Y-83259232D01*
X163026830Y-83257901D01*
X162968782Y-83219014D01*
X162940972Y-83154918D01*
X162940713Y-83152662D01*
X162937674Y-83123744D01*
X162879179Y-82943716D01*
X162784533Y-82779784D01*
X162657871Y-82639112D01*
X162646275Y-82630687D01*
X162504734Y-82527851D01*
X162504729Y-82527848D01*
X162331807Y-82450857D01*
X162331802Y-82450855D01*
X162186001Y-82419865D01*
X162146646Y-82411500D01*
X161957354Y-82411500D01*
X161957351Y-82411500D01*
X161955131Y-82411734D01*
X161953851Y-82411500D01*
X161950855Y-82411500D01*
X161950855Y-82410952D01*
X161886402Y-82399165D01*
X161835377Y-82351433D01*
X161818259Y-82283693D01*
X161840481Y-82217452D01*
X161854482Y-82200738D01*
X162174902Y-81880319D01*
X162236225Y-81846834D01*
X162262583Y-81844000D01*
X163335768Y-81844000D01*
X163402807Y-81863685D01*
X163408653Y-81867682D01*
X163504265Y-81937148D01*
X163504270Y-81937151D01*
X163677192Y-82014142D01*
X163677197Y-82014144D01*
X163862354Y-82053500D01*
X163862355Y-82053500D01*
X164051644Y-82053500D01*
X164051646Y-82053500D01*
X164236803Y-82014144D01*
X164409730Y-81937151D01*
X164562871Y-81825888D01*
X164689533Y-81685216D01*
X164784179Y-81521284D01*
X164842674Y-81341256D01*
X164862460Y-81153000D01*
X164842674Y-80964744D01*
X164784179Y-80784716D01*
X164689533Y-80620784D01*
X164562871Y-80480112D01*
X164548653Y-80469782D01*
X164409734Y-80368851D01*
X164409729Y-80368848D01*
X164236807Y-80291857D01*
X164236802Y-80291855D01*
X164091001Y-80260865D01*
X164051646Y-80252500D01*
X163862354Y-80252500D01*
X163829897Y-80259398D01*
X163677197Y-80291855D01*
X163677192Y-80291857D01*
X163504270Y-80368848D01*
X163504265Y-80368851D01*
X163408653Y-80438318D01*
X163342847Y-80461798D01*
X163335768Y-80462000D01*
X161947764Y-80462000D01*
X161944019Y-80461887D01*
X161882974Y-80458194D01*
X161882970Y-80458194D01*
X161835979Y-80466805D01*
X161822806Y-80469219D01*
X161819108Y-80469782D01*
X161758419Y-80477151D01*
X161758416Y-80477152D01*
X161749217Y-80480641D01*
X161727609Y-80486664D01*
X161717921Y-80488439D01*
X161662148Y-80513540D01*
X161658689Y-80514972D01*
X161601519Y-80536655D01*
X161593408Y-80542253D01*
X161573873Y-80553271D01*
X161564896Y-80557311D01*
X161564894Y-80557312D01*
X161516763Y-80595019D01*
X161513748Y-80597237D01*
X161463418Y-80631979D01*
X161463411Y-80631985D01*
X161422856Y-80677762D01*
X161420289Y-80680488D01*
X161040097Y-81060681D01*
X160978774Y-81094166D01*
X160952416Y-81097000D01*
X158264753Y-81097000D01*
X158261008Y-81096887D01*
X158199974Y-81093195D01*
X158199969Y-81093195D01*
X158160048Y-81100510D01*
X158139817Y-81104218D01*
X158136124Y-81104780D01*
X158075415Y-81112152D01*
X158075414Y-81112152D01*
X158066203Y-81115645D01*
X158044606Y-81121666D01*
X158034916Y-81123442D01*
X157979156Y-81148537D01*
X157975697Y-81149969D01*
X157918527Y-81171652D01*
X157918523Y-81171654D01*
X157918518Y-81171656D01*
X157918513Y-81171659D01*
X157918510Y-81171661D01*
X157910410Y-81177251D01*
X157890881Y-81188266D01*
X157881900Y-81192308D01*
X157881895Y-81192311D01*
X157881894Y-81192312D01*
X157865295Y-81205316D01*
X157833764Y-81230017D01*
X157830750Y-81232235D01*
X157780416Y-81266980D01*
X157780414Y-81266981D01*
X157739863Y-81312754D01*
X157737296Y-81315480D01*
X154894088Y-84158689D01*
X154832765Y-84192174D01*
X154832188Y-84192298D01*
X154660197Y-84228855D01*
X154660192Y-84228857D01*
X154487270Y-84305848D01*
X154487265Y-84305851D01*
X154334129Y-84417111D01*
X154207466Y-84557785D01*
X154112821Y-84721715D01*
X154112818Y-84721722D01*
X154054326Y-84901742D01*
X154054325Y-84901746D01*
X154051295Y-84930575D01*
X154024710Y-84995189D01*
X153967412Y-85035173D01*
X153897592Y-85037831D01*
X153837420Y-85002321D01*
X153835856Y-85000616D01*
X153767871Y-84925112D01*
X153767870Y-84925111D01*
X153614734Y-84813851D01*
X153614729Y-84813848D01*
X153441807Y-84736857D01*
X153441802Y-84736855D01*
X153260748Y-84698372D01*
X153256646Y-84697500D01*
X153067354Y-84697500D01*
X153063252Y-84698372D01*
X152882197Y-84736855D01*
X152882192Y-84736857D01*
X152709270Y-84813848D01*
X152709265Y-84813851D01*
X152556129Y-84925111D01*
X152429465Y-85065785D01*
X152429463Y-85065788D01*
X152410969Y-85097821D01*
X152360402Y-85146036D01*
X152291794Y-85159258D01*
X152226930Y-85133290D01*
X152215902Y-85123501D01*
X152151119Y-85058718D01*
X152117634Y-84997395D01*
X152115481Y-84984015D01*
X152098165Y-84819253D01*
X152039670Y-84639225D01*
X151945024Y-84475293D01*
X151818362Y-84334621D01*
X151817396Y-84333919D01*
X151665225Y-84223360D01*
X151665220Y-84223357D01*
X151492298Y-84146366D01*
X151492293Y-84146364D01*
X151346115Y-84115294D01*
X151307137Y-84107009D01*
X151117845Y-84107009D01*
X151085388Y-84113907D01*
X150932688Y-84146364D01*
X150932683Y-84146366D01*
X150759761Y-84223357D01*
X150759756Y-84223360D01*
X150606620Y-84334620D01*
X150606619Y-84334621D01*
X150504656Y-84447862D01*
X150445170Y-84484510D01*
X150377909Y-84483965D01*
X150373304Y-84482626D01*
X150373302Y-84482626D01*
X150373299Y-84482625D01*
X150373294Y-84482624D01*
X150327131Y-84475313D01*
X150321407Y-84474128D01*
X150281970Y-84464002D01*
X150221932Y-84428264D01*
X150220657Y-84426870D01*
X150218709Y-84424707D01*
X150211871Y-84417112D01*
X150211870Y-84417111D01*
X150211864Y-84417106D01*
X150058734Y-84305851D01*
X150058729Y-84305848D01*
X149885807Y-84228857D01*
X149885802Y-84228855D01*
X149740001Y-84197865D01*
X149700646Y-84189500D01*
X149511354Y-84189500D01*
X149488588Y-84194339D01*
X149326197Y-84228855D01*
X149326192Y-84228857D01*
X149153270Y-84305848D01*
X149153265Y-84305851D01*
X149000129Y-84417111D01*
X148873466Y-84557785D01*
X148778821Y-84721715D01*
X148778818Y-84721722D01*
X148720327Y-84901740D01*
X148720326Y-84901744D01*
X148700540Y-85090000D01*
X148720326Y-85278256D01*
X148720327Y-85278259D01*
X148778818Y-85458277D01*
X148778821Y-85458284D01*
X148873467Y-85622216D01*
X148979971Y-85740500D01*
X149000129Y-85762888D01*
X149153265Y-85874148D01*
X149153270Y-85874151D01*
X149326192Y-85951142D01*
X149326197Y-85951144D01*
X149511354Y-85990500D01*
X149511355Y-85990500D01*
X149700644Y-85990500D01*
X149700646Y-85990500D01*
X149885803Y-85951144D01*
X149959295Y-85918423D01*
X150004986Y-85898080D01*
X150074236Y-85888795D01*
X150137513Y-85918423D01*
X150143103Y-85923678D01*
X150255342Y-86035917D01*
X150288827Y-86097240D01*
X150283843Y-86166932D01*
X150259811Y-86206570D01*
X150143466Y-86335784D01*
X150048821Y-86499715D01*
X150048818Y-86499722D01*
X149994388Y-86667241D01*
X149990326Y-86679744D01*
X149970540Y-86868000D01*
X149990326Y-87056256D01*
X149990327Y-87056259D01*
X150048818Y-87236277D01*
X150048821Y-87236284D01*
X150116980Y-87354340D01*
X150143467Y-87400216D01*
X150216651Y-87481494D01*
X150246880Y-87544484D01*
X150248500Y-87564465D01*
X150248500Y-90341032D01*
X150246772Y-90356681D01*
X150247054Y-90356708D01*
X150246319Y-90364475D01*
X150248500Y-90433859D01*
X150248500Y-90463477D01*
X150249371Y-90470380D01*
X150249829Y-90476199D01*
X150251298Y-90522942D01*
X150256916Y-90542275D01*
X150260862Y-90561329D01*
X150263383Y-90581287D01*
X150263386Y-90581299D01*
X150280595Y-90624765D01*
X150282487Y-90630293D01*
X150295530Y-90675187D01*
X150295530Y-90675188D01*
X150305777Y-90692515D01*
X150314335Y-90709985D01*
X150321745Y-90728701D01*
X150349229Y-90766529D01*
X150352437Y-90771413D01*
X150376234Y-90811652D01*
X150376240Y-90811660D01*
X150390469Y-90825888D01*
X150403109Y-90840687D01*
X150414934Y-90856964D01*
X150414936Y-90856965D01*
X150414937Y-90856967D01*
X150450957Y-90886765D01*
X150455268Y-90890687D01*
X151712334Y-92147753D01*
X152964974Y-93400393D01*
X152998459Y-93461716D01*
X152993475Y-93531408D01*
X152951603Y-93587341D01*
X152886139Y-93611758D01*
X152851513Y-93609365D01*
X152748646Y-93587500D01*
X152559354Y-93587500D01*
X152509375Y-93598123D01*
X152374199Y-93626855D01*
X152196564Y-93705944D01*
X152127314Y-93715228D01*
X152064037Y-93685600D01*
X152026824Y-93626465D01*
X152022809Y-93605638D01*
X152015674Y-93537744D01*
X151957179Y-93357716D01*
X151862533Y-93193784D01*
X151735871Y-93053112D01*
X151730916Y-93049512D01*
X151582734Y-92941851D01*
X151582729Y-92941848D01*
X151409807Y-92864857D01*
X151409802Y-92864855D01*
X151264001Y-92833865D01*
X151224646Y-92825500D01*
X151035354Y-92825500D01*
X151015242Y-92829775D01*
X150850197Y-92864855D01*
X150850192Y-92864857D01*
X150677270Y-92941848D01*
X150677265Y-92941851D01*
X150524129Y-93053111D01*
X150397466Y-93193785D01*
X150302821Y-93357715D01*
X150302818Y-93357721D01*
X150249826Y-93520818D01*
X150210389Y-93578493D01*
X150146030Y-93605692D01*
X150131895Y-93606500D01*
X147841039Y-93606500D01*
X147774000Y-93586815D01*
X147728245Y-93534011D01*
X147719183Y-93478498D01*
X147717460Y-93478498D01*
X147717460Y-93472002D01*
X147716073Y-93458806D01*
X147697674Y-93283744D01*
X147639179Y-93103716D01*
X147544533Y-92939784D01*
X147417871Y-92799112D01*
X147415658Y-92797504D01*
X147264734Y-92687851D01*
X147264729Y-92687848D01*
X147091807Y-92610857D01*
X147091802Y-92610855D01*
X146963455Y-92583575D01*
X146901973Y-92550383D01*
X146868197Y-92489220D01*
X146872849Y-92419505D01*
X146906269Y-92370131D01*
X146909865Y-92366891D01*
X146909871Y-92366888D01*
X147036533Y-92226216D01*
X147131179Y-92062284D01*
X147189674Y-91882256D01*
X147209460Y-91694000D01*
X147189674Y-91505744D01*
X147131179Y-91325716D01*
X147036533Y-91161784D01*
X146909871Y-91021112D01*
X146909870Y-91021111D01*
X146756734Y-90909851D01*
X146756729Y-90909848D01*
X146583807Y-90832857D01*
X146583802Y-90832855D01*
X146438001Y-90801865D01*
X146398646Y-90793500D01*
X146209354Y-90793500D01*
X146176897Y-90800398D01*
X146024197Y-90832855D01*
X146024192Y-90832857D01*
X145851270Y-90909848D01*
X145851265Y-90909851D01*
X145698135Y-91021106D01*
X145698132Y-91021108D01*
X145696175Y-91023281D01*
X145694200Y-91025474D01*
X145634714Y-91062121D01*
X145602053Y-91066500D01*
X144688390Y-91066500D01*
X144621351Y-91046815D01*
X144575596Y-90994011D01*
X144565652Y-90924853D01*
X144594677Y-90861297D01*
X144596240Y-90859528D01*
X144598546Y-90856967D01*
X144623533Y-90829216D01*
X144718179Y-90665284D01*
X144776674Y-90485256D01*
X144793989Y-90320505D01*
X144820572Y-90255894D01*
X144829619Y-90245798D01*
X146181043Y-88894374D01*
X146193325Y-88884537D01*
X146193144Y-88884318D01*
X146199152Y-88879346D01*
X146199162Y-88879340D01*
X146246677Y-88828741D01*
X146267623Y-88807796D01*
X146271892Y-88802290D01*
X146275676Y-88797859D01*
X146307693Y-88763767D01*
X146317389Y-88746128D01*
X146328073Y-88729861D01*
X146340408Y-88713962D01*
X146358983Y-88671034D01*
X146361534Y-88665827D01*
X146384072Y-88624834D01*
X146389078Y-88605334D01*
X146395376Y-88586936D01*
X146403374Y-88568458D01*
X146410688Y-88522276D01*
X146411870Y-88516565D01*
X146423500Y-88471272D01*
X146423500Y-88451141D01*
X146425027Y-88431741D01*
X146428175Y-88411867D01*
X146423775Y-88365321D01*
X146423500Y-88359483D01*
X146423500Y-83394964D01*
X146425228Y-83379313D01*
X146424946Y-83379287D01*
X146425680Y-83371524D01*
X146423500Y-83302140D01*
X146423500Y-83272530D01*
X146423500Y-83272524D01*
X146422626Y-83265607D01*
X146422169Y-83259792D01*
X146422110Y-83257901D01*
X146420701Y-83213058D01*
X146415082Y-83193718D01*
X146411139Y-83174685D01*
X146408616Y-83154707D01*
X146391403Y-83111234D01*
X146389514Y-83105713D01*
X146376467Y-83060807D01*
X146366225Y-83043489D01*
X146357662Y-83026011D01*
X146350253Y-83007297D01*
X146350253Y-83007296D01*
X146322771Y-82969472D01*
X146319567Y-82964596D01*
X146295763Y-82924344D01*
X146295761Y-82924342D01*
X146295759Y-82924339D01*
X146281531Y-82910112D01*
X146268896Y-82895320D01*
X146257063Y-82879033D01*
X146257060Y-82879031D01*
X146257060Y-82879030D01*
X146257059Y-82879029D01*
X146221035Y-82849228D01*
X146216713Y-82845294D01*
X145536376Y-82164957D01*
X145526531Y-82152668D01*
X145526313Y-82152849D01*
X145521340Y-82146838D01*
X145501355Y-82128071D01*
X145470741Y-82099322D01*
X145460268Y-82088849D01*
X145449797Y-82078377D01*
X145444296Y-82074111D01*
X145439848Y-82070312D01*
X145405768Y-82038308D01*
X145405763Y-82038304D01*
X145388122Y-82028606D01*
X145371857Y-82017922D01*
X145371680Y-82017785D01*
X145355962Y-82005592D01*
X145340804Y-81999032D01*
X145313054Y-81987023D01*
X145307807Y-81984453D01*
X145266837Y-81961929D01*
X145266828Y-81961926D01*
X145247334Y-81956920D01*
X145228933Y-81950620D01*
X145210459Y-81942626D01*
X145210452Y-81942624D01*
X145164287Y-81935313D01*
X145158563Y-81934128D01*
X145113279Y-81922500D01*
X145113272Y-81922500D01*
X145093142Y-81922500D01*
X145073743Y-81920973D01*
X145053868Y-81917825D01*
X145053867Y-81917825D01*
X145007321Y-81922225D01*
X145001483Y-81922500D01*
X142687947Y-81922500D01*
X142620908Y-81902815D01*
X142595800Y-81881476D01*
X142591871Y-81877112D01*
X142591869Y-81877111D01*
X142591867Y-81877108D01*
X142591864Y-81877106D01*
X142438734Y-81765851D01*
X142438729Y-81765848D01*
X142265807Y-81688857D01*
X142265802Y-81688855D01*
X142120001Y-81657865D01*
X142080646Y-81649500D01*
X141891354Y-81649500D01*
X141858897Y-81656398D01*
X141706197Y-81688855D01*
X141706192Y-81688857D01*
X141533270Y-81765848D01*
X141533265Y-81765851D01*
X141380129Y-81877111D01*
X141253466Y-82017785D01*
X141158821Y-82181715D01*
X141158818Y-82181722D01*
X141132783Y-82261851D01*
X141100326Y-82361744D01*
X141080540Y-82550000D01*
X141100326Y-82738256D01*
X141100327Y-82738259D01*
X141158818Y-82918277D01*
X141158821Y-82918284D01*
X141253467Y-83082216D01*
X141343204Y-83181879D01*
X141380129Y-83222888D01*
X141533265Y-83334148D01*
X141533270Y-83334151D01*
X141706192Y-83411142D01*
X141706197Y-83411144D01*
X141891354Y-83450500D01*
X141891355Y-83450500D01*
X142080644Y-83450500D01*
X142080646Y-83450500D01*
X142265803Y-83411144D01*
X142438730Y-83334151D01*
X142591871Y-83222888D01*
X142595799Y-83218525D01*
X142655286Y-83181879D01*
X142687947Y-83177500D01*
X144722719Y-83177500D01*
X144789758Y-83197185D01*
X144810400Y-83213819D01*
X145132181Y-83535600D01*
X145165666Y-83596923D01*
X145168500Y-83623281D01*
X145168500Y-88080719D01*
X145148815Y-88147758D01*
X145132181Y-88168400D01*
X143940400Y-89360181D01*
X143879077Y-89393666D01*
X143852719Y-89396500D01*
X143796354Y-89396500D01*
X143763897Y-89403398D01*
X143611197Y-89435855D01*
X143611192Y-89435857D01*
X143438270Y-89512848D01*
X143438265Y-89512851D01*
X143285129Y-89624111D01*
X143158466Y-89764785D01*
X143063821Y-89928715D01*
X143063818Y-89928722D01*
X143008215Y-90099853D01*
X143005326Y-90108744D01*
X142985540Y-90297000D01*
X143005326Y-90485256D01*
X143005327Y-90485259D01*
X143063818Y-90665277D01*
X143063821Y-90665284D01*
X143158467Y-90829216D01*
X143168796Y-90840687D01*
X143185760Y-90859528D01*
X143215990Y-90922520D01*
X143207365Y-90991855D01*
X143162623Y-91045520D01*
X143095971Y-91066478D01*
X143093610Y-91066500D01*
X142322967Y-91066500D01*
X142307318Y-91064772D01*
X142307292Y-91065054D01*
X142299524Y-91064319D01*
X142230141Y-91066500D01*
X142200522Y-91066500D01*
X142193618Y-91067371D01*
X142187800Y-91067829D01*
X142141060Y-91069298D01*
X142141054Y-91069299D01*
X142121719Y-91074916D01*
X142102680Y-91078859D01*
X142082715Y-91081382D01*
X142082701Y-91081385D01*
X142039235Y-91098594D01*
X142033710Y-91100485D01*
X141988809Y-91113531D01*
X141988806Y-91113533D01*
X141971480Y-91123779D01*
X141954010Y-91132337D01*
X141935298Y-91139745D01*
X141897463Y-91167233D01*
X141892580Y-91170440D01*
X141852346Y-91194234D01*
X141838106Y-91208474D01*
X141823320Y-91221102D01*
X141807033Y-91232936D01*
X141807032Y-91232936D01*
X141777227Y-91268963D01*
X141773295Y-91273284D01*
X141254400Y-91792181D01*
X141193077Y-91825666D01*
X141166719Y-91828500D01*
X133361331Y-91828500D01*
X133345680Y-91826772D01*
X133345654Y-91827054D01*
X133337891Y-91826319D01*
X133268520Y-91828500D01*
X133238887Y-91828500D01*
X133231973Y-91829373D01*
X133226156Y-91829830D01*
X133179424Y-91831299D01*
X133179420Y-91831300D01*
X133160088Y-91836916D01*
X133141048Y-91840859D01*
X133121074Y-91843383D01*
X133121067Y-91843385D01*
X133077605Y-91860592D01*
X133072078Y-91862485D01*
X133027175Y-91875531D01*
X133027174Y-91875531D01*
X133009840Y-91885782D01*
X132992378Y-91894336D01*
X132973666Y-91901745D01*
X132973661Y-91901748D01*
X132935839Y-91929226D01*
X132930957Y-91932433D01*
X132890707Y-91956238D01*
X132876473Y-91970472D01*
X132861684Y-91983104D01*
X132845398Y-91994937D01*
X132815593Y-92030963D01*
X132811661Y-92035285D01*
X132533415Y-92313530D01*
X132472092Y-92347015D01*
X132413641Y-92345624D01*
X132315413Y-92319304D01*
X132315403Y-92319302D01*
X132089742Y-92299559D01*
X132024674Y-92274106D01*
X131983695Y-92217515D01*
X131979817Y-92147753D01*
X131988168Y-92123626D01*
X132083903Y-91918323D01*
X132145063Y-91690068D01*
X132165659Y-91454660D01*
X132145063Y-91219252D01*
X132083903Y-90990997D01*
X131984035Y-90776831D01*
X131980242Y-90771413D01*
X131848494Y-90583257D01*
X131681402Y-90416166D01*
X131681395Y-90416161D01*
X131487834Y-90280627D01*
X131487830Y-90280625D01*
X131453128Y-90264443D01*
X131273663Y-90180757D01*
X131273659Y-90180756D01*
X131273655Y-90180754D01*
X131045413Y-90119598D01*
X131045403Y-90119596D01*
X130819742Y-90099853D01*
X130754674Y-90074400D01*
X130713695Y-90017809D01*
X130709817Y-89948047D01*
X130718168Y-89923920D01*
X130813902Y-89718619D01*
X130875062Y-89490364D01*
X130895658Y-89254956D01*
X130875062Y-89019548D01*
X130813902Y-88791293D01*
X130714034Y-88577127D01*
X130699593Y-88556502D01*
X130578493Y-88383553D01*
X130411401Y-88216462D01*
X130411394Y-88216457D01*
X130393232Y-88203740D01*
X130313282Y-88147758D01*
X130217833Y-88080923D01*
X130217829Y-88080921D01*
X130174285Y-88060616D01*
X130003662Y-87981053D01*
X130003658Y-87981052D01*
X130003654Y-87981050D01*
X129837108Y-87936425D01*
X129777447Y-87900060D01*
X129746918Y-87837213D01*
X129755213Y-87767838D01*
X129773577Y-87737708D01*
X129862884Y-87629547D01*
X129919539Y-87497245D01*
X129936626Y-87354340D01*
X129936196Y-87351785D01*
X129916773Y-87236284D01*
X129912758Y-87212411D01*
X129888504Y-87157583D01*
X129888502Y-87157579D01*
X129888500Y-87157575D01*
X128990630Y-85602423D01*
X128990628Y-85602419D01*
X128970486Y-85574834D01*
X128955275Y-85554002D01*
X128844295Y-85462368D01*
X128844293Y-85462366D01*
X128711994Y-85405713D01*
X128569087Y-85388625D01*
X128569086Y-85388625D01*
X128427160Y-85412493D01*
X128372323Y-85436751D01*
X126817171Y-86334621D01*
X126817167Y-86334623D01*
X126768751Y-86369976D01*
X126768747Y-86369980D01*
X126677116Y-86480956D01*
X126677114Y-86480958D01*
X126620461Y-86613257D01*
X126603373Y-86756164D01*
X126603373Y-86756165D01*
X124935790Y-86756165D01*
X124758562Y-86166385D01*
X124304731Y-84522246D01*
X123888156Y-82868275D01*
X123509050Y-81205316D01*
X123167606Y-79534218D01*
X122863998Y-77855832D01*
X122602951Y-76200004D01*
X150594451Y-76200004D01*
X150614616Y-76469101D01*
X150674664Y-76732188D01*
X150674666Y-76732195D01*
X150773257Y-76983398D01*
X150908185Y-77217102D01*
X150918189Y-77229646D01*
X151076442Y-77428089D01*
X151134141Y-77481625D01*
X151274259Y-77611635D01*
X151497226Y-77763651D01*
X151740359Y-77880738D01*
X151998228Y-77960280D01*
X151998229Y-77960280D01*
X151998232Y-77960281D01*
X152265063Y-78000499D01*
X152265068Y-78000499D01*
X152265071Y-78000500D01*
X152265072Y-78000500D01*
X152534928Y-78000500D01*
X152534929Y-78000500D01*
X152534936Y-78000499D01*
X152801767Y-77960281D01*
X152801768Y-77960280D01*
X152801772Y-77960280D01*
X153059641Y-77880738D01*
X153302775Y-77763651D01*
X153525741Y-77611635D01*
X153723561Y-77428085D01*
X153891815Y-77217102D01*
X154026743Y-76983398D01*
X154125334Y-76732195D01*
X154185383Y-76469103D01*
X154192105Y-76379402D01*
X154205549Y-76200004D01*
X154205549Y-76199995D01*
X154185383Y-75930898D01*
X154125335Y-75667811D01*
X154125334Y-75667805D01*
X154026743Y-75416602D01*
X153891815Y-75182898D01*
X153723561Y-74971915D01*
X153723560Y-74971914D01*
X153723557Y-74971910D01*
X153525741Y-74788365D01*
X153302775Y-74636349D01*
X153302769Y-74636346D01*
X153302768Y-74636345D01*
X153302767Y-74636344D01*
X153059643Y-74519263D01*
X153059645Y-74519263D01*
X152801773Y-74439720D01*
X152801767Y-74439718D01*
X152534936Y-74399500D01*
X152534929Y-74399500D01*
X152265071Y-74399500D01*
X152265063Y-74399500D01*
X151998232Y-74439718D01*
X151998226Y-74439720D01*
X151740358Y-74519262D01*
X151497230Y-74636346D01*
X151274258Y-74788365D01*
X151076442Y-74971910D01*
X150908185Y-75182898D01*
X150773258Y-75416599D01*
X150773256Y-75416603D01*
X150674666Y-75667804D01*
X150674664Y-75667811D01*
X150614616Y-75930898D01*
X150594451Y-76199995D01*
X150594451Y-76200004D01*
X122602951Y-76200004D01*
X122600380Y-76183699D01*
X122599670Y-76176446D01*
X122571126Y-75438783D01*
X122571086Y-75435599D01*
X122577100Y-74971915D01*
X122580778Y-74688373D01*
X122580900Y-74685236D01*
X122629157Y-73939472D01*
X122629438Y-73936372D01*
X122716131Y-73194087D01*
X122716571Y-73191003D01*
X122819781Y-72582131D01*
X122841465Y-72454212D01*
X122842081Y-72451070D01*
X122924620Y-72081200D01*
X123004832Y-71721755D01*
X123005606Y-71718668D01*
X123205340Y-71000356D01*
X123205799Y-70998703D01*
X123206736Y-70995646D01*
X123331506Y-70622710D01*
X123443824Y-70286993D01*
X123444904Y-70284023D01*
X123718274Y-69588516D01*
X123719489Y-69585645D01*
X123792403Y-69425032D01*
X147399500Y-69425032D01*
X147435975Y-69631898D01*
X147507820Y-69829288D01*
X147507823Y-69829295D01*
X147553460Y-69908341D01*
X147612851Y-70011209D01*
X147747876Y-70172124D01*
X147908791Y-70307149D01*
X148090709Y-70412179D01*
X148288101Y-70484024D01*
X148494970Y-70520500D01*
X148494974Y-70520500D01*
X156315026Y-70520500D01*
X156315030Y-70520500D01*
X156521899Y-70484024D01*
X156719291Y-70412179D01*
X156901209Y-70307149D01*
X157062124Y-70172124D01*
X157197149Y-70011209D01*
X157302179Y-69829291D01*
X157374024Y-69631899D01*
X157410500Y-69425030D01*
X157410500Y-69214970D01*
X157374024Y-69008101D01*
X157302179Y-68810709D01*
X157197149Y-68628791D01*
X157062124Y-68467876D01*
X156901209Y-68332851D01*
X156737549Y-68238362D01*
X156719295Y-68227823D01*
X156719292Y-68227822D01*
X156719291Y-68227821D01*
X156694364Y-68218748D01*
X156521898Y-68155975D01*
X156315032Y-68119500D01*
X156315030Y-68119500D01*
X156232590Y-68119500D01*
X148639882Y-68119500D01*
X148600000Y-68119500D01*
X148494970Y-68119500D01*
X148494967Y-68119500D01*
X148288101Y-68155975D01*
X148090711Y-68227820D01*
X148090704Y-68227823D01*
X147908794Y-68332849D01*
X147908788Y-68332853D01*
X147747876Y-68467876D01*
X147612853Y-68628788D01*
X147612849Y-68628794D01*
X147507823Y-68810704D01*
X147507820Y-68810711D01*
X147435975Y-69008101D01*
X147399500Y-69214967D01*
X147399500Y-69425032D01*
X123792403Y-69425032D01*
X124028403Y-68905175D01*
X124029799Y-68902302D01*
X124148436Y-68673191D01*
X124373408Y-68238725D01*
X124374920Y-68235980D01*
X124752364Y-67590967D01*
X124754007Y-67588318D01*
X125164245Y-66963652D01*
X125166024Y-66961090D01*
X125607947Y-66358456D01*
X125609896Y-66355939D01*
X125705461Y-66238818D01*
X126082311Y-65776960D01*
X126084399Y-65774533D01*
X126224619Y-65619738D01*
X126586077Y-65220709D01*
X126588277Y-65218404D01*
X126753167Y-65054266D01*
X127117885Y-64691210D01*
X127120164Y-64689056D01*
X127676334Y-64189860D01*
X127678685Y-64187857D01*
X128259871Y-63718049D01*
X128262388Y-63716121D01*
X128461992Y-63571145D01*
X128867017Y-63276968D01*
X128869625Y-63275175D01*
X129496121Y-62867820D01*
X129498797Y-62866177D01*
X130139240Y-62495327D01*
X130145476Y-62491716D01*
X130148287Y-62490183D01*
X130813433Y-62149606D01*
X130816292Y-62148232D01*
X131498124Y-61842453D01*
X131501075Y-61841220D01*
X132197791Y-61571043D01*
X132200786Y-61569968D01*
X132910527Y-61336117D01*
X132913578Y-61335200D01*
X132918300Y-61333910D01*
X133634457Y-61138296D01*
X133637483Y-61137553D01*
X134367631Y-60978115D01*
X134370673Y-60977533D01*
X135108045Y-60856005D01*
X135111164Y-60855573D01*
X135853818Y-60772275D01*
X135856957Y-60772006D01*
X136307697Y-60744907D01*
X136602877Y-60727160D01*
X136606075Y-60727052D01*
X137009288Y-60723664D01*
X137353318Y-60720774D01*
X137356482Y-60720829D01*
G37*
%TD.AperFunction*%
%TD*%
M02*
