%TF.GenerationSoftware,KiCad,Pcbnew,7.0.9*%
%TF.CreationDate,2023-12-18T18:13:51+05:30*%
%TF.ProjectId,555Badge,35353542-6164-4676-952e-6b696361645f,v01*%
%TF.SameCoordinates,Original*%
%TF.FileFunction,Copper,L1,Top*%
%TF.FilePolarity,Positive*%
%FSLAX46Y46*%
G04 Gerber Fmt 4.6, Leading zero omitted, Abs format (unit mm)*
G04 Created by KiCad (PCBNEW 7.0.9) date 2023-12-18 18:13:51*
%MOMM*%
%LPD*%
G01*
G04 APERTURE LIST*
%TA.AperFunction,ComponentPad*%
%ADD10R,1.600000X1.600000*%
%TD*%
%TA.AperFunction,ComponentPad*%
%ADD11C,1.600000*%
%TD*%
%TA.AperFunction,ComponentPad*%
%ADD12R,1.500000X1.000000*%
%TD*%
%TA.AperFunction,ComponentPad*%
%ADD13O,1.500000X1.000000*%
%TD*%
%TA.AperFunction,ComponentPad*%
%ADD14O,1.600000X1.600000*%
%TD*%
%TA.AperFunction,ComponentPad*%
%ADD15C,1.524000*%
%TD*%
%TA.AperFunction,ComponentPad*%
%ADD16R,1.800000X1.800000*%
%TD*%
%TA.AperFunction,ComponentPad*%
%ADD17C,1.800000*%
%TD*%
%TA.AperFunction,ComponentPad*%
%ADD18R,2.170000X2.170000*%
%TD*%
%TA.AperFunction,ComponentPad*%
%ADD19C,2.500000*%
%TD*%
%TA.AperFunction,ComponentPad*%
%ADD20R,1.900000X1.900000*%
%TD*%
%TA.AperFunction,ComponentPad*%
%ADD21C,1.900000*%
%TD*%
%TA.AperFunction,ViaPad*%
%ADD22C,0.800000*%
%TD*%
%TA.AperFunction,Conductor*%
%ADD23C,0.762000*%
%TD*%
%TA.AperFunction,Conductor*%
%ADD24C,0.254000*%
%TD*%
G04 APERTURE END LIST*
D10*
%TO.P,C1,1*%
%TO.N,Net-(U1-THRESH)*%
X156210000Y-102330000D03*
D11*
%TO.P,C1,2*%
%TO.N,GND*%
X156210000Y-100330000D03*
%TD*%
D12*
%TO.P,Q1,1,E*%
%TO.N,GND*%
X165608000Y-110490000D03*
D13*
%TO.P,Q1,2,B*%
%TO.N,Net-(Q1-B)*%
X165608000Y-111760000D03*
%TO.P,Q1,3,C*%
%TO.N,Net-(D1-K)*%
X165608000Y-113030000D03*
%TD*%
D11*
%TO.P,R6,1*%
%TO.N,VCC*%
X161798000Y-113618000D03*
D14*
%TO.P,R6,2*%
%TO.N,Net-(D1-A)*%
X161798000Y-105998000D03*
%TD*%
D10*
%TO.P,C2,1*%
%TO.N,Net-(C2-Pad1)*%
X165608000Y-102870000D03*
D11*
%TO.P,C2,2*%
%TO.N,GND*%
X165608000Y-100370000D03*
%TD*%
%TO.P,R7,1*%
%TO.N,VCC*%
X165608000Y-123778000D03*
D14*
%TO.P,R7,2*%
%TO.N,Net-(D2-A)*%
X165608000Y-116158000D03*
%TD*%
D11*
%TO.P,R3,1*%
%TO.N,Net-(U1-OUT)*%
X157988000Y-123778000D03*
D14*
%TO.P,R3,2*%
%TO.N,Net-(C2-Pad1)*%
X157988000Y-116158000D03*
%TD*%
D15*
%TO.P,U1,1,GND*%
%TO.N,GND*%
X178308000Y-110490000D03*
%TO.P,U1,2,~{TRIG}*%
%TO.N,Net-(U1-THRESH)*%
X178308000Y-107950000D03*
%TO.P,U1,3,OUT*%
%TO.N,Net-(U1-OUT)*%
X178308000Y-105410000D03*
%TO.P,U1,4,~{RST}*%
%TO.N,VCC*%
X178308000Y-102870000D03*
%TO.P,U1,5,CV*%
%TO.N,unconnected-(U1-CV-Pad5)*%
X170688000Y-102870000D03*
%TO.P,U1,6,THRESH*%
%TO.N,Net-(U1-THRESH)*%
X170688000Y-105410000D03*
%TO.P,U1,7,DIS*%
%TO.N,Net-(U1-DIS)*%
X170688000Y-107950000D03*
%TO.P,U1,8,VDD*%
%TO.N,VCC*%
X170688000Y-110490000D03*
%TD*%
D11*
%TO.P,R1,1*%
%TO.N,VCC*%
X154178000Y-123778000D03*
D14*
%TO.P,R1,2*%
%TO.N,Net-(U1-DIS)*%
X154178000Y-116158000D03*
%TD*%
D16*
%TO.P,D1,1,K*%
%TO.N,Net-(D1-K)*%
X147574000Y-74930000D03*
D17*
%TO.P,D1,2,A*%
%TO.N,Net-(D1-A)*%
X147574000Y-72390000D03*
%TD*%
D11*
%TO.P,R4,1*%
%TO.N,Net-(C2-Pad1)*%
X157988000Y-113618000D03*
D14*
%TO.P,R4,2*%
%TO.N,GND*%
X157988000Y-105998000D03*
%TD*%
D16*
%TO.P,D2,1,K*%
%TO.N,Net-(D1-K)*%
X160274000Y-74930000D03*
D17*
%TO.P,D2,2,A*%
%TO.N,Net-(D2-A)*%
X160274000Y-72390000D03*
%TD*%
D18*
%TO.P,BAT1,Neg*%
%TO.N,GND*%
X140208000Y-120918000D03*
D19*
%TO.P,BAT1,Pos*%
%TO.N,Net-(BAT1-PadPos)*%
X140208000Y-100918000D03*
%TD*%
D11*
%TO.P,R2,1*%
%TO.N,Net-(U1-DIS)*%
X154178000Y-113618000D03*
D14*
%TO.P,R2,2*%
%TO.N,Net-(U1-THRESH)*%
X154178000Y-105998000D03*
%TD*%
D20*
%TO.P,S1,1*%
%TO.N,Net-(BAT1-PadPos)*%
X173736000Y-117094000D03*
D21*
%TO.P,S1,2*%
%TO.N,VCC*%
X173736000Y-119594000D03*
%TO.P,S1,3*%
%TO.N,unconnected-(S1-Pad3)*%
X173736000Y-122094000D03*
%TD*%
D11*
%TO.P,R5,1*%
%TO.N,Net-(C2-Pad1)*%
X161798000Y-123778000D03*
D14*
%TO.P,R5,2*%
%TO.N,Net-(Q1-B)*%
X161798000Y-116158000D03*
%TD*%
D22*
%TO.N,Net-(D1-K)*%
X168148000Y-110490000D03*
%TD*%
D23*
%TO.N,Net-(BAT1-PadPos)*%
X167640000Y-119380000D02*
X169926000Y-117094000D01*
X146130000Y-100918000D02*
X149352000Y-104140000D01*
X149352000Y-115316000D02*
X153416000Y-119380000D01*
X169926000Y-117094000D02*
X173736000Y-117094000D01*
X140208000Y-100918000D02*
X146130000Y-100918000D01*
X149352000Y-104140000D02*
X149352000Y-115316000D01*
X153416000Y-119380000D02*
X167640000Y-119380000D01*
D24*
%TO.N,Net-(U1-THRESH)*%
X155702000Y-104140000D02*
X156210000Y-103632000D01*
X154178000Y-105998000D02*
X154178000Y-104902000D01*
X173736000Y-105410000D02*
X170688000Y-105410000D01*
X178816000Y-100584000D02*
X179832000Y-101600000D01*
X176530000Y-100584000D02*
X178816000Y-100584000D01*
X156210000Y-103632000D02*
X156210000Y-102330000D01*
X179832000Y-106426000D02*
X178308000Y-107950000D01*
X160782000Y-107696000D02*
X163068000Y-107696000D01*
X158210000Y-102330000D02*
X159766000Y-103886000D01*
X154940000Y-104140000D02*
X155702000Y-104140000D01*
X179832000Y-101600000D02*
X179832000Y-106426000D01*
X163068000Y-107696000D02*
X165354000Y-105410000D01*
X175006000Y-102108000D02*
X175006000Y-104140000D01*
X165354000Y-105410000D02*
X170688000Y-105410000D01*
X175006000Y-102108000D02*
X176530000Y-100584000D01*
X159766000Y-103886000D02*
X159766000Y-106680000D01*
X154178000Y-104902000D02*
X154940000Y-104140000D01*
X156210000Y-102330000D02*
X158210000Y-102330000D01*
X175006000Y-104140000D02*
X173736000Y-105410000D01*
X159766000Y-106680000D02*
X160782000Y-107696000D01*
%TO.N,Net-(C2-Pad1)*%
X157988000Y-116158000D02*
X157988000Y-113618000D01*
%TO.N,Net-(D1-K)*%
X165608000Y-113030000D02*
X167132000Y-113030000D01*
X168148000Y-112014000D02*
X168148000Y-110490000D01*
X167132000Y-113030000D02*
X168148000Y-112014000D01*
%TO.N,Net-(Q1-B)*%
X159766000Y-112522000D02*
X160528000Y-111760000D01*
X161798000Y-116158000D02*
X159766000Y-114126000D01*
X159766000Y-114126000D02*
X159766000Y-112522000D01*
X160528000Y-111760000D02*
X165608000Y-111760000D01*
%TO.N,VCC*%
X170942000Y-109220000D02*
X171958000Y-109220000D01*
X175260000Y-115062000D02*
X175260000Y-118070000D01*
X175260000Y-118070000D02*
X173736000Y-119594000D01*
X170688000Y-110490000D02*
X172466000Y-110490000D01*
D23*
X168910000Y-121412000D02*
X170728000Y-119594000D01*
X165608000Y-121412000D02*
X168910000Y-121412000D01*
D24*
X168656000Y-114554000D02*
X170688000Y-112522000D01*
X162734000Y-114554000D02*
X168656000Y-114554000D01*
D23*
X154178000Y-123778000D02*
X154178000Y-122174000D01*
D24*
X173736000Y-113538000D02*
X175260000Y-115062000D01*
X173736000Y-111760000D02*
X173736000Y-113538000D01*
X170688000Y-112522000D02*
X170688000Y-110490000D01*
X171958000Y-109220000D02*
X178308000Y-102870000D01*
X170688000Y-109474000D02*
X170942000Y-109220000D01*
D23*
X154940000Y-121412000D02*
X165608000Y-121412000D01*
X165608000Y-123778000D02*
X165608000Y-121412000D01*
D24*
X170688000Y-110490000D02*
X170688000Y-109474000D01*
D23*
X154178000Y-122174000D02*
X154940000Y-121412000D01*
D24*
X161798000Y-113618000D02*
X162734000Y-114554000D01*
D23*
X170728000Y-119594000D02*
X173736000Y-119594000D01*
D24*
X172466000Y-110490000D02*
X173736000Y-111760000D01*
%TO.N,Net-(U1-DIS)*%
X154178000Y-116158000D02*
X154178000Y-113618000D01*
X163830000Y-107950000D02*
X170688000Y-107950000D01*
X162814000Y-108966000D02*
X163830000Y-107950000D01*
X154178000Y-111760000D02*
X156972000Y-108966000D01*
X154178000Y-113618000D02*
X154178000Y-111760000D01*
X156972000Y-108966000D02*
X162814000Y-108966000D01*
%TO.N,Net-(U1-OUT)*%
X178054000Y-121158000D02*
X175514000Y-123698000D01*
X178308000Y-105410000D02*
X176276000Y-107442000D01*
X176276000Y-112522000D02*
X178054000Y-114300000D01*
X178054000Y-114300000D02*
X178054000Y-121158000D01*
X168910000Y-123698000D02*
X167132000Y-125476000D01*
X159686000Y-125476000D02*
X157988000Y-123778000D01*
X175514000Y-123698000D02*
X168910000Y-123698000D01*
X167132000Y-125476000D02*
X159686000Y-125476000D01*
X176276000Y-107442000D02*
X176276000Y-112522000D01*
%TD*%
%TA.AperFunction,Conductor*%
%TO.N,GND*%
G36*
X180537039Y-41675685D02*
G01*
X180582794Y-41728489D01*
X180594000Y-41780000D01*
X180594000Y-101199604D01*
X180574315Y-101266643D01*
X180521511Y-101312398D01*
X180452353Y-101322342D01*
X180388797Y-101293317D01*
X180369683Y-101272491D01*
X180358771Y-101257472D01*
X180355567Y-101252596D01*
X180331763Y-101212344D01*
X180331761Y-101212342D01*
X180331759Y-101212339D01*
X180317531Y-101198112D01*
X180304896Y-101183320D01*
X180293063Y-101167033D01*
X180293060Y-101167031D01*
X180293060Y-101167030D01*
X180293059Y-101167029D01*
X180257035Y-101137228D01*
X180252713Y-101133294D01*
X179318376Y-100198957D01*
X179308531Y-100186668D01*
X179308313Y-100186849D01*
X179303340Y-100180838D01*
X179292611Y-100170763D01*
X179252741Y-100133322D01*
X179242268Y-100122849D01*
X179231797Y-100112377D01*
X179226296Y-100108111D01*
X179221848Y-100104312D01*
X179187768Y-100072308D01*
X179187763Y-100072304D01*
X179170122Y-100062606D01*
X179153857Y-100051922D01*
X179137963Y-100039593D01*
X179137962Y-100039592D01*
X179122804Y-100033032D01*
X179095054Y-100021023D01*
X179089807Y-100018453D01*
X179048837Y-99995929D01*
X179048828Y-99995926D01*
X179029334Y-99990920D01*
X179010933Y-99984620D01*
X178992459Y-99976626D01*
X178992452Y-99976624D01*
X178946287Y-99969313D01*
X178940563Y-99968128D01*
X178895279Y-99956500D01*
X178895272Y-99956500D01*
X178875142Y-99956500D01*
X178855743Y-99954973D01*
X178835868Y-99951825D01*
X178835867Y-99951825D01*
X178789321Y-99956225D01*
X178783483Y-99956500D01*
X176612965Y-99956500D01*
X176597314Y-99954772D01*
X176597288Y-99955054D01*
X176589525Y-99954319D01*
X176520154Y-99956500D01*
X176490521Y-99956500D01*
X176483607Y-99957373D01*
X176477790Y-99957830D01*
X176431058Y-99959299D01*
X176431054Y-99959300D01*
X176411722Y-99964916D01*
X176392682Y-99968859D01*
X176372708Y-99971383D01*
X176372701Y-99971385D01*
X176329239Y-99988592D01*
X176323712Y-99990485D01*
X176278809Y-100003531D01*
X176278808Y-100003531D01*
X176261474Y-100013782D01*
X176244012Y-100022336D01*
X176225300Y-100029745D01*
X176225295Y-100029748D01*
X176187473Y-100057226D01*
X176182591Y-100060433D01*
X176142341Y-100084238D01*
X176128107Y-100098472D01*
X176113318Y-100111104D01*
X176097032Y-100122937D01*
X176067227Y-100158963D01*
X176063295Y-100163285D01*
X174620953Y-101605626D01*
X174608669Y-101615469D01*
X174608849Y-101615687D01*
X174602838Y-101620659D01*
X174555322Y-101671258D01*
X174534375Y-101692205D01*
X174530106Y-101697709D01*
X174526315Y-101702147D01*
X174494308Y-101736230D01*
X174494305Y-101736234D01*
X174484606Y-101753877D01*
X174473928Y-101770133D01*
X174461594Y-101786034D01*
X174461589Y-101786042D01*
X174443025Y-101828943D01*
X174440454Y-101834191D01*
X174417927Y-101875167D01*
X174412920Y-101894668D01*
X174406621Y-101913064D01*
X174400662Y-101926838D01*
X174398625Y-101931544D01*
X174398624Y-101931546D01*
X174391312Y-101977716D01*
X174390127Y-101983438D01*
X174378500Y-102028723D01*
X174378500Y-102048858D01*
X174376973Y-102068255D01*
X174373825Y-102088133D01*
X174376080Y-102111985D01*
X174378225Y-102134677D01*
X174378500Y-102140515D01*
X174378500Y-103828719D01*
X174358815Y-103895758D01*
X174342181Y-103916400D01*
X173512400Y-104746181D01*
X173451077Y-104779666D01*
X173424719Y-104782500D01*
X171854399Y-104782500D01*
X171787360Y-104762815D01*
X171752824Y-104729623D01*
X171658827Y-104595381D01*
X171584500Y-104521054D01*
X171502620Y-104439174D01*
X171502616Y-104439171D01*
X171502615Y-104439170D01*
X171321666Y-104312468D01*
X171321658Y-104312464D01*
X171192811Y-104252382D01*
X171140371Y-104206210D01*
X171121219Y-104139017D01*
X171141435Y-104072135D01*
X171192811Y-104027618D01*
X171205515Y-104021694D01*
X171321662Y-103967534D01*
X171502620Y-103840826D01*
X171658826Y-103684620D01*
X171785534Y-103503662D01*
X171878894Y-103303450D01*
X171936070Y-103090068D01*
X171955323Y-102870000D01*
X171936070Y-102649932D01*
X171878894Y-102436550D01*
X171785534Y-102236339D01*
X171681760Y-102088133D01*
X171658827Y-102055381D01*
X171581162Y-101977716D01*
X171502620Y-101899174D01*
X171502616Y-101899171D01*
X171502615Y-101899170D01*
X171321666Y-101772468D01*
X171321662Y-101772466D01*
X171300131Y-101762426D01*
X171121450Y-101679106D01*
X171121447Y-101679105D01*
X171121445Y-101679104D01*
X170908070Y-101621930D01*
X170908062Y-101621929D01*
X170688002Y-101602677D01*
X170687998Y-101602677D01*
X170467937Y-101621929D01*
X170467929Y-101621930D01*
X170254554Y-101679104D01*
X170254550Y-101679106D01*
X170246596Y-101682815D01*
X170054340Y-101772465D01*
X170054338Y-101772466D01*
X169873377Y-101899175D01*
X169717175Y-102055377D01*
X169590466Y-102236338D01*
X169590465Y-102236340D01*
X169497107Y-102436548D01*
X169497104Y-102436554D01*
X169439930Y-102649929D01*
X169439929Y-102649937D01*
X169420677Y-102869997D01*
X169420677Y-102870002D01*
X169439929Y-103090062D01*
X169439930Y-103090070D01*
X169497104Y-103303445D01*
X169497105Y-103303447D01*
X169497106Y-103303450D01*
X169587984Y-103498339D01*
X169590466Y-103503662D01*
X169590468Y-103503666D01*
X169717170Y-103684615D01*
X169717175Y-103684621D01*
X169873378Y-103840824D01*
X169873384Y-103840829D01*
X170054333Y-103967531D01*
X170054335Y-103967532D01*
X170054338Y-103967534D01*
X170170485Y-104021694D01*
X170183189Y-104027618D01*
X170235628Y-104073790D01*
X170254780Y-104140984D01*
X170234564Y-104207865D01*
X170183189Y-104252382D01*
X170054340Y-104312465D01*
X170054338Y-104312466D01*
X169873377Y-104439175D01*
X169717174Y-104595378D01*
X169623176Y-104729623D01*
X169568599Y-104773248D01*
X169521601Y-104782500D01*
X165436967Y-104782500D01*
X165421319Y-104780772D01*
X165421293Y-104781054D01*
X165413525Y-104780319D01*
X165344154Y-104782500D01*
X165314521Y-104782500D01*
X165307607Y-104783373D01*
X165301790Y-104783830D01*
X165255058Y-104785299D01*
X165255054Y-104785300D01*
X165235722Y-104790916D01*
X165216682Y-104794859D01*
X165196712Y-104797382D01*
X165196708Y-104797383D01*
X165153237Y-104814594D01*
X165147710Y-104816486D01*
X165102812Y-104829530D01*
X165102805Y-104829533D01*
X165085480Y-104839779D01*
X165068010Y-104848337D01*
X165049298Y-104855745D01*
X165011463Y-104883233D01*
X165006580Y-104886440D01*
X164966346Y-104910234D01*
X164952106Y-104924474D01*
X164937320Y-104937102D01*
X164921033Y-104948936D01*
X164921032Y-104948936D01*
X164891227Y-104984963D01*
X164887295Y-104989284D01*
X163166088Y-106710492D01*
X163104765Y-106743977D01*
X163035073Y-106738993D01*
X162979140Y-106697121D01*
X162954723Y-106631657D01*
X162966024Y-106570408D01*
X163024739Y-106444496D01*
X163083635Y-106224692D01*
X163103468Y-105998000D01*
X163083635Y-105771308D01*
X163024739Y-105551504D01*
X162928568Y-105345266D01*
X162798047Y-105158861D01*
X162798045Y-105158858D01*
X162637141Y-104997954D01*
X162450734Y-104867432D01*
X162450732Y-104867431D01*
X162244497Y-104771261D01*
X162244488Y-104771258D01*
X162024697Y-104712366D01*
X162024693Y-104712365D01*
X162024692Y-104712365D01*
X162024691Y-104712364D01*
X162024686Y-104712364D01*
X161798002Y-104692532D01*
X161797998Y-104692532D01*
X161571313Y-104712364D01*
X161571302Y-104712366D01*
X161351511Y-104771258D01*
X161351502Y-104771261D01*
X161145267Y-104867431D01*
X161145265Y-104867432D01*
X160958858Y-104997954D01*
X160797954Y-105158858D01*
X160667432Y-105345265D01*
X160667431Y-105345267D01*
X160629882Y-105425792D01*
X160583709Y-105478231D01*
X160516516Y-105497383D01*
X160449635Y-105477167D01*
X160404300Y-105424002D01*
X160393500Y-105373387D01*
X160393500Y-103968964D01*
X160395228Y-103953314D01*
X160394946Y-103953288D01*
X160395680Y-103945525D01*
X160395066Y-103926002D01*
X160393500Y-103876154D01*
X160393500Y-103846524D01*
X160392627Y-103839614D01*
X160392168Y-103833785D01*
X160390700Y-103787057D01*
X160387918Y-103777482D01*
X160385082Y-103767720D01*
X160381138Y-103748674D01*
X160378616Y-103728707D01*
X160361402Y-103685231D01*
X160359513Y-103679710D01*
X160346468Y-103634808D01*
X160336225Y-103617489D01*
X160327662Y-103600011D01*
X160320253Y-103581297D01*
X160320253Y-103581296D01*
X160292771Y-103543472D01*
X160289567Y-103538596D01*
X160265763Y-103498344D01*
X160265761Y-103498342D01*
X160265759Y-103498339D01*
X160251531Y-103484112D01*
X160238896Y-103469320D01*
X160227063Y-103453033D01*
X160227060Y-103453031D01*
X160227060Y-103453030D01*
X160227059Y-103453029D01*
X160191035Y-103423228D01*
X160186713Y-103419294D01*
X158712376Y-101944957D01*
X158702531Y-101932668D01*
X158702313Y-101932849D01*
X158697340Y-101926838D01*
X158682681Y-101913072D01*
X158646741Y-101879322D01*
X158636268Y-101868849D01*
X158625797Y-101858377D01*
X158620296Y-101854111D01*
X158615848Y-101850312D01*
X158581768Y-101818308D01*
X158581763Y-101818304D01*
X158564122Y-101808606D01*
X158547857Y-101797922D01*
X158531963Y-101785593D01*
X158531962Y-101785592D01*
X158516804Y-101779032D01*
X158489054Y-101767023D01*
X158483807Y-101764453D01*
X158442837Y-101741929D01*
X158442828Y-101741926D01*
X158423334Y-101736920D01*
X158404933Y-101730620D01*
X158386459Y-101722626D01*
X158386452Y-101722624D01*
X158340287Y-101715313D01*
X158334563Y-101714128D01*
X158289279Y-101702500D01*
X158289272Y-101702500D01*
X158269142Y-101702500D01*
X158249743Y-101700973D01*
X158229868Y-101697825D01*
X158229867Y-101697825D01*
X158183321Y-101702225D01*
X158177483Y-101702500D01*
X157634499Y-101702500D01*
X157567460Y-101682815D01*
X157521705Y-101630011D01*
X157510499Y-101578500D01*
X157510499Y-101482129D01*
X157510498Y-101482123D01*
X157510497Y-101482116D01*
X157504091Y-101422517D01*
X157467005Y-101323085D01*
X157453797Y-101287671D01*
X157453793Y-101287664D01*
X157396776Y-101211500D01*
X157367546Y-101172454D01*
X157358449Y-101165644D01*
X157316581Y-101109710D01*
X157311599Y-101040018D01*
X157331191Y-100995253D01*
X157340134Y-100982481D01*
X157436265Y-100776326D01*
X157436269Y-100776317D01*
X157495139Y-100556610D01*
X157495141Y-100556599D01*
X157511466Y-100370002D01*
X164303034Y-100370002D01*
X164322858Y-100596599D01*
X164322860Y-100596610D01*
X164381730Y-100816317D01*
X164381734Y-100816326D01*
X164477865Y-101022481D01*
X164477866Y-101022483D01*
X164528973Y-101095471D01*
X164528974Y-101095472D01*
X165210046Y-100414399D01*
X165222835Y-100495148D01*
X165280359Y-100608045D01*
X165369955Y-100697641D01*
X165482852Y-100755165D01*
X165563599Y-100767953D01*
X164877351Y-101454200D01*
X164867505Y-101503194D01*
X164818889Y-101553376D01*
X164763367Y-101568048D01*
X164763423Y-101569099D01*
X164763429Y-101569146D01*
X164763426Y-101569146D01*
X164763436Y-101569324D01*
X164760123Y-101569501D01*
X164700516Y-101575908D01*
X164565671Y-101626202D01*
X164565664Y-101626206D01*
X164450455Y-101712452D01*
X164450452Y-101712455D01*
X164364206Y-101827664D01*
X164364202Y-101827671D01*
X164313908Y-101962517D01*
X164307501Y-102022116D01*
X164307501Y-102022123D01*
X164307500Y-102022135D01*
X164307500Y-103717870D01*
X164307501Y-103717876D01*
X164313908Y-103777483D01*
X164364202Y-103912328D01*
X164364206Y-103912335D01*
X164450452Y-104027544D01*
X164450455Y-104027547D01*
X164565664Y-104113793D01*
X164565671Y-104113797D01*
X164700517Y-104164091D01*
X164700516Y-104164091D01*
X164707444Y-104164835D01*
X164760127Y-104170500D01*
X166455872Y-104170499D01*
X166515483Y-104164091D01*
X166650331Y-104113796D01*
X166765546Y-104027546D01*
X166851796Y-103912331D01*
X166902091Y-103777483D01*
X166908500Y-103717873D01*
X166908499Y-102022128D01*
X166902091Y-101962517D01*
X166891930Y-101935275D01*
X166851797Y-101827671D01*
X166851793Y-101827664D01*
X166765547Y-101712455D01*
X166765544Y-101712452D01*
X166650335Y-101626206D01*
X166650328Y-101626202D01*
X166515482Y-101575908D01*
X166515483Y-101575908D01*
X166455883Y-101569501D01*
X166455881Y-101569500D01*
X166455873Y-101569500D01*
X166455864Y-101569500D01*
X166452548Y-101569322D01*
X166452627Y-101567847D01*
X166391215Y-101549815D01*
X166345460Y-101497011D01*
X166337969Y-101453522D01*
X165652401Y-100767953D01*
X165733148Y-100755165D01*
X165846045Y-100697641D01*
X165935641Y-100608045D01*
X165993165Y-100495148D01*
X166005953Y-100414400D01*
X166687025Y-101095472D01*
X166738136Y-101022478D01*
X166834264Y-100816331D01*
X166834269Y-100816317D01*
X166893139Y-100596610D01*
X166893141Y-100596599D01*
X166912966Y-100370002D01*
X166912966Y-100369997D01*
X166893141Y-100143400D01*
X166893139Y-100143389D01*
X166834269Y-99923682D01*
X166834265Y-99923673D01*
X166738133Y-99717516D01*
X166738131Y-99717512D01*
X166687026Y-99644526D01*
X166687025Y-99644526D01*
X166005953Y-100325598D01*
X165993165Y-100244852D01*
X165935641Y-100131955D01*
X165846045Y-100042359D01*
X165733148Y-99984835D01*
X165652400Y-99972046D01*
X166333472Y-99290974D01*
X166333471Y-99290973D01*
X166260483Y-99239866D01*
X166260481Y-99239865D01*
X166054326Y-99143734D01*
X166054317Y-99143730D01*
X165834610Y-99084860D01*
X165834599Y-99084858D01*
X165608002Y-99065034D01*
X165607998Y-99065034D01*
X165381400Y-99084858D01*
X165381389Y-99084860D01*
X165161682Y-99143730D01*
X165161673Y-99143734D01*
X164955513Y-99239868D01*
X164882527Y-99290972D01*
X164882526Y-99290973D01*
X165563600Y-99972046D01*
X165482852Y-99984835D01*
X165369955Y-100042359D01*
X165280359Y-100131955D01*
X165222835Y-100244852D01*
X165210046Y-100325599D01*
X164528973Y-99644526D01*
X164528972Y-99644527D01*
X164477868Y-99717513D01*
X164381734Y-99923673D01*
X164381730Y-99923682D01*
X164322860Y-100143389D01*
X164322858Y-100143400D01*
X164303034Y-100369997D01*
X164303034Y-100370002D01*
X157511466Y-100370002D01*
X157514966Y-100330002D01*
X157514966Y-100329997D01*
X157495141Y-100103400D01*
X157495139Y-100103389D01*
X157436269Y-99883682D01*
X157436265Y-99883673D01*
X157340133Y-99677516D01*
X157340131Y-99677512D01*
X157289025Y-99604526D01*
X156607953Y-100285598D01*
X156595165Y-100204852D01*
X156537641Y-100091955D01*
X156448045Y-100002359D01*
X156335148Y-99944835D01*
X156254400Y-99932046D01*
X156935472Y-99250974D01*
X156935471Y-99250973D01*
X156862483Y-99199866D01*
X156862481Y-99199865D01*
X156656326Y-99103734D01*
X156656317Y-99103730D01*
X156436610Y-99044860D01*
X156436599Y-99044858D01*
X156210002Y-99025034D01*
X156209998Y-99025034D01*
X155983400Y-99044858D01*
X155983389Y-99044860D01*
X155763682Y-99103730D01*
X155763673Y-99103734D01*
X155557513Y-99199868D01*
X155484527Y-99250972D01*
X155484526Y-99250973D01*
X156165600Y-99932046D01*
X156084852Y-99944835D01*
X155971955Y-100002359D01*
X155882359Y-100091955D01*
X155824835Y-100204852D01*
X155812046Y-100285600D01*
X155130973Y-99604527D01*
X155079868Y-99677513D01*
X154983734Y-99883673D01*
X154983730Y-99883682D01*
X154924860Y-100103389D01*
X154924858Y-100103400D01*
X154905034Y-100329997D01*
X154905034Y-100330002D01*
X154924858Y-100556599D01*
X154924860Y-100556610D01*
X154983730Y-100776317D01*
X154983734Y-100776326D01*
X155079865Y-100982481D01*
X155079868Y-100982485D01*
X155088812Y-100995260D01*
X155111138Y-101061467D01*
X155094125Y-101129234D01*
X155061549Y-101165645D01*
X155052456Y-101172452D01*
X155052451Y-101172457D01*
X154966206Y-101287664D01*
X154966202Y-101287671D01*
X154915908Y-101422517D01*
X154912397Y-101455180D01*
X154909501Y-101482123D01*
X154909500Y-101482135D01*
X154909500Y-103177870D01*
X154909501Y-103177876D01*
X154915909Y-103237484D01*
X154957094Y-103347910D01*
X154962078Y-103417602D01*
X154928592Y-103478924D01*
X154867269Y-103512409D01*
X154844809Y-103515181D01*
X154841060Y-103515298D01*
X154841054Y-103515299D01*
X154821719Y-103520916D01*
X154802680Y-103524859D01*
X154782715Y-103527382D01*
X154782701Y-103527385D01*
X154739235Y-103544594D01*
X154733710Y-103546485D01*
X154688809Y-103559531D01*
X154688806Y-103559533D01*
X154671480Y-103569779D01*
X154654010Y-103578337D01*
X154635298Y-103585745D01*
X154597463Y-103613233D01*
X154592580Y-103616440D01*
X154552346Y-103640234D01*
X154538106Y-103654474D01*
X154523320Y-103667102D01*
X154507033Y-103678936D01*
X154507032Y-103678936D01*
X154477227Y-103714963D01*
X154473295Y-103719285D01*
X153792953Y-104399626D01*
X153780669Y-104409469D01*
X153780849Y-104409687D01*
X153774838Y-104414659D01*
X153727322Y-104465258D01*
X153706375Y-104486205D01*
X153702106Y-104491709D01*
X153698315Y-104496147D01*
X153666308Y-104530230D01*
X153666305Y-104530234D01*
X153656606Y-104547877D01*
X153645928Y-104564133D01*
X153633594Y-104580034D01*
X153633589Y-104580042D01*
X153615025Y-104622943D01*
X153612454Y-104628191D01*
X153589927Y-104669167D01*
X153584920Y-104688668D01*
X153578621Y-104707064D01*
X153573402Y-104719127D01*
X153570625Y-104725544D01*
X153570625Y-104725546D01*
X153563312Y-104771717D01*
X153562127Y-104777439D01*
X153553443Y-104811260D01*
X153517706Y-104871298D01*
X153504462Y-104881998D01*
X153338859Y-104997953D01*
X153177954Y-105158858D01*
X153047432Y-105345265D01*
X153047431Y-105345267D01*
X152951261Y-105551502D01*
X152951258Y-105551511D01*
X152892366Y-105771302D01*
X152892364Y-105771313D01*
X152872532Y-105997998D01*
X152872532Y-105998001D01*
X152892364Y-106224686D01*
X152892366Y-106224697D01*
X152951258Y-106444488D01*
X152951261Y-106444497D01*
X153047431Y-106650732D01*
X153047432Y-106650734D01*
X153177954Y-106837141D01*
X153338858Y-106998045D01*
X153338861Y-106998047D01*
X153525266Y-107128568D01*
X153731504Y-107224739D01*
X153951308Y-107283635D01*
X154113230Y-107297801D01*
X154177998Y-107303468D01*
X154178000Y-107303468D01*
X154178002Y-107303468D01*
X154234673Y-107298509D01*
X154404692Y-107283635D01*
X154624496Y-107224739D01*
X154830734Y-107128568D01*
X155017139Y-106998047D01*
X155178047Y-106837139D01*
X155308568Y-106650734D01*
X155404739Y-106444496D01*
X155463635Y-106224692D01*
X155483468Y-105998000D01*
X155463635Y-105771308D01*
X155404739Y-105551504D01*
X155308568Y-105345266D01*
X155226952Y-105228705D01*
X155178048Y-105158862D01*
X155142640Y-105123454D01*
X155080981Y-105061795D01*
X155047498Y-105000475D01*
X155052482Y-104930783D01*
X155080980Y-104886438D01*
X155163601Y-104803817D01*
X155224924Y-104770334D01*
X155251281Y-104767500D01*
X155619033Y-104767500D01*
X155634681Y-104769227D01*
X155634708Y-104768946D01*
X155642475Y-104769680D01*
X155642476Y-104769679D01*
X155642477Y-104769680D01*
X155711860Y-104767500D01*
X155741476Y-104767500D01*
X155748378Y-104766627D01*
X155754190Y-104766169D01*
X155800943Y-104764701D01*
X155820272Y-104759084D01*
X155839328Y-104755137D01*
X155859293Y-104752616D01*
X155902770Y-104735401D01*
X155908276Y-104733516D01*
X155953191Y-104720468D01*
X155970515Y-104710221D01*
X155987983Y-104701663D01*
X156006703Y-104694253D01*
X156044542Y-104666759D01*
X156049391Y-104663574D01*
X156089656Y-104639763D01*
X156103897Y-104625520D01*
X156118678Y-104612897D01*
X156134967Y-104601063D01*
X156134969Y-104601059D01*
X156134971Y-104601059D01*
X156146845Y-104586703D01*
X156164776Y-104565028D01*
X156168689Y-104560728D01*
X156595043Y-104134374D01*
X156607325Y-104124537D01*
X156607144Y-104124318D01*
X156613152Y-104119346D01*
X156613162Y-104119340D01*
X156660677Y-104068741D01*
X156681623Y-104047796D01*
X156685892Y-104042290D01*
X156689676Y-104037859D01*
X156721693Y-104003767D01*
X156731389Y-103986128D01*
X156742073Y-103969861D01*
X156754408Y-103953962D01*
X156772978Y-103911046D01*
X156775534Y-103905827D01*
X156798072Y-103864834D01*
X156803078Y-103845334D01*
X156809382Y-103826924D01*
X156817370Y-103808465D01*
X156817373Y-103808459D01*
X156822279Y-103777482D01*
X156824687Y-103762280D01*
X156825867Y-103756574D01*
X156834319Y-103723657D01*
X156870059Y-103663622D01*
X156932583Y-103632437D01*
X156954423Y-103630499D01*
X157057871Y-103630499D01*
X157057872Y-103630499D01*
X157117483Y-103624091D01*
X157252331Y-103573796D01*
X157367546Y-103487546D01*
X157453796Y-103372331D01*
X157504091Y-103237483D01*
X157510500Y-103177873D01*
X157510500Y-103081500D01*
X157530185Y-103014461D01*
X157582989Y-102968706D01*
X157634500Y-102957500D01*
X157898719Y-102957500D01*
X157965758Y-102977185D01*
X157986400Y-102993819D01*
X159102181Y-104109600D01*
X159135666Y-104170923D01*
X159138500Y-104197281D01*
X159138500Y-105010660D01*
X159118815Y-105077699D01*
X159066011Y-105123454D01*
X158996853Y-105133398D01*
X158933297Y-105104373D01*
X158926819Y-105098341D01*
X158826820Y-104998342D01*
X158640482Y-104867865D01*
X158434328Y-104771734D01*
X158238000Y-104719127D01*
X158238000Y-105682314D01*
X158226045Y-105670359D01*
X158113148Y-105612835D01*
X158019481Y-105598000D01*
X157956519Y-105598000D01*
X157862852Y-105612835D01*
X157749955Y-105670359D01*
X157738000Y-105682314D01*
X157738000Y-104719127D01*
X157541671Y-104771734D01*
X157335517Y-104867865D01*
X157149179Y-104998342D01*
X156988342Y-105159179D01*
X156857865Y-105345517D01*
X156761734Y-105551673D01*
X156761730Y-105551682D01*
X156709127Y-105747999D01*
X156709128Y-105748000D01*
X157672314Y-105748000D01*
X157660359Y-105759955D01*
X157602835Y-105872852D01*
X157583014Y-105998000D01*
X157602835Y-106123148D01*
X157660359Y-106236045D01*
X157672314Y-106248000D01*
X156709128Y-106248000D01*
X156761730Y-106444317D01*
X156761734Y-106444326D01*
X156857865Y-106650482D01*
X156988342Y-106836820D01*
X157149179Y-106997657D01*
X157335517Y-107128134D01*
X157541673Y-107224265D01*
X157541682Y-107224269D01*
X157737999Y-107276872D01*
X157738000Y-107276871D01*
X157738000Y-106313686D01*
X157749955Y-106325641D01*
X157862852Y-106383165D01*
X157956519Y-106398000D01*
X158019481Y-106398000D01*
X158113148Y-106383165D01*
X158226045Y-106325641D01*
X158238000Y-106313686D01*
X158238000Y-107276872D01*
X158434317Y-107224269D01*
X158434326Y-107224265D01*
X158640482Y-107128134D01*
X158826816Y-106997660D01*
X158971478Y-106852998D01*
X159032801Y-106819513D01*
X159102493Y-106824497D01*
X159158427Y-106866368D01*
X159178236Y-106906081D01*
X159185531Y-106931190D01*
X159195777Y-106948515D01*
X159204335Y-106965985D01*
X159211745Y-106984701D01*
X159239229Y-107022529D01*
X159242437Y-107027413D01*
X159266234Y-107067652D01*
X159266240Y-107067660D01*
X159280469Y-107081888D01*
X159293109Y-107096687D01*
X159304934Y-107112964D01*
X159304936Y-107112965D01*
X159304937Y-107112967D01*
X159332030Y-107135380D01*
X159340957Y-107142765D01*
X159345268Y-107146687D01*
X159816938Y-107618357D01*
X160279624Y-108081043D01*
X160289471Y-108093333D01*
X160289689Y-108093154D01*
X160294657Y-108099160D01*
X160321224Y-108124108D01*
X160356619Y-108184350D01*
X160353825Y-108254163D01*
X160313731Y-108311384D01*
X160249066Y-108337845D01*
X160236340Y-108338500D01*
X157054967Y-108338500D01*
X157039318Y-108336772D01*
X157039292Y-108337054D01*
X157031524Y-108336319D01*
X156962141Y-108338500D01*
X156932522Y-108338500D01*
X156925618Y-108339371D01*
X156919800Y-108339829D01*
X156873060Y-108341298D01*
X156873054Y-108341299D01*
X156853719Y-108346916D01*
X156834680Y-108350859D01*
X156814715Y-108353382D01*
X156814701Y-108353385D01*
X156771235Y-108370594D01*
X156765710Y-108372485D01*
X156720809Y-108385531D01*
X156720806Y-108385533D01*
X156703480Y-108395779D01*
X156686010Y-108404337D01*
X156667298Y-108411745D01*
X156629463Y-108439233D01*
X156624580Y-108442440D01*
X156584346Y-108466234D01*
X156570106Y-108480474D01*
X156555320Y-108493102D01*
X156539033Y-108504936D01*
X156539032Y-108504936D01*
X156509227Y-108540963D01*
X156505295Y-108545285D01*
X153792953Y-111257626D01*
X153780669Y-111267469D01*
X153780849Y-111267687D01*
X153774838Y-111272659D01*
X153727322Y-111323258D01*
X153706375Y-111344205D01*
X153702106Y-111349709D01*
X153698315Y-111354147D01*
X153666308Y-111388230D01*
X153666305Y-111388234D01*
X153656606Y-111405877D01*
X153645928Y-111422133D01*
X153633594Y-111438034D01*
X153633589Y-111438042D01*
X153615025Y-111480943D01*
X153612454Y-111486191D01*
X153589927Y-111527167D01*
X153584920Y-111546668D01*
X153578621Y-111565064D01*
X153571893Y-111580612D01*
X153570625Y-111583544D01*
X153570624Y-111583546D01*
X153563312Y-111629716D01*
X153562127Y-111635438D01*
X153550500Y-111680723D01*
X153550500Y-111700858D01*
X153548973Y-111720257D01*
X153545825Y-111740131D01*
X153550225Y-111786677D01*
X153550500Y-111792515D01*
X153550500Y-112405212D01*
X153530815Y-112472251D01*
X153497623Y-112506787D01*
X153338858Y-112617954D01*
X153177954Y-112778858D01*
X153047432Y-112965265D01*
X153047431Y-112965267D01*
X152951261Y-113171502D01*
X152951258Y-113171511D01*
X152892366Y-113391302D01*
X152892364Y-113391313D01*
X152872532Y-113617998D01*
X152872532Y-113618001D01*
X152892364Y-113844686D01*
X152892366Y-113844697D01*
X152951258Y-114064488D01*
X152951261Y-114064497D01*
X153047431Y-114270732D01*
X153047432Y-114270734D01*
X153177954Y-114457141D01*
X153338858Y-114618045D01*
X153497623Y-114729212D01*
X153541248Y-114783788D01*
X153550500Y-114830787D01*
X153550500Y-114945212D01*
X153530815Y-115012251D01*
X153497623Y-115046787D01*
X153338858Y-115157954D01*
X153177954Y-115318858D01*
X153047432Y-115505265D01*
X153047431Y-115505267D01*
X152951261Y-115711502D01*
X152951258Y-115711511D01*
X152892366Y-115931302D01*
X152892364Y-115931313D01*
X152872532Y-116157998D01*
X152872532Y-116158001D01*
X152892364Y-116384686D01*
X152892366Y-116384697D01*
X152951258Y-116604488D01*
X152951261Y-116604497D01*
X153047431Y-116810732D01*
X153047432Y-116810734D01*
X153177954Y-116997141D01*
X153338858Y-117158045D01*
X153338861Y-117158047D01*
X153525266Y-117288568D01*
X153731504Y-117384739D01*
X153951308Y-117443635D01*
X154113230Y-117457801D01*
X154177998Y-117463468D01*
X154178000Y-117463468D01*
X154178002Y-117463468D01*
X154234673Y-117458509D01*
X154404692Y-117443635D01*
X154624496Y-117384739D01*
X154830734Y-117288568D01*
X155017139Y-117158047D01*
X155178047Y-116997139D01*
X155308568Y-116810734D01*
X155404739Y-116604496D01*
X155463635Y-116384692D01*
X155483468Y-116158000D01*
X155463635Y-115931308D01*
X155404739Y-115711504D01*
X155308568Y-115505266D01*
X155178047Y-115318861D01*
X155178045Y-115318858D01*
X155017141Y-115157954D01*
X154858377Y-115046787D01*
X154814752Y-114992210D01*
X154805500Y-114945212D01*
X154805500Y-114830787D01*
X154825185Y-114763748D01*
X154858377Y-114729212D01*
X154879267Y-114714585D01*
X155017139Y-114618047D01*
X155178047Y-114457139D01*
X155308568Y-114270734D01*
X155404739Y-114064496D01*
X155463635Y-113844692D01*
X155483468Y-113618000D01*
X155480515Y-113584252D01*
X155470772Y-113472881D01*
X155463635Y-113391308D01*
X155404739Y-113171504D01*
X155308568Y-112965266D01*
X155178047Y-112778861D01*
X155178045Y-112778858D01*
X155017141Y-112617954D01*
X154858377Y-112506787D01*
X154814752Y-112452210D01*
X154805500Y-112405212D01*
X154805500Y-112071281D01*
X154825185Y-112004242D01*
X154841819Y-111983600D01*
X156585419Y-110240000D01*
X164358000Y-110240000D01*
X165358000Y-110240000D01*
X165358000Y-109490000D01*
X165858000Y-109490000D01*
X165858000Y-110240000D01*
X166858000Y-110240000D01*
X166858000Y-109942172D01*
X166857999Y-109942155D01*
X166851598Y-109882627D01*
X166851596Y-109882620D01*
X166801354Y-109747913D01*
X166801350Y-109747906D01*
X166715190Y-109632812D01*
X166715187Y-109632809D01*
X166600093Y-109546649D01*
X166600086Y-109546645D01*
X166465379Y-109496403D01*
X166465372Y-109496401D01*
X166405844Y-109490000D01*
X165858000Y-109490000D01*
X165358000Y-109490000D01*
X164810155Y-109490000D01*
X164750627Y-109496401D01*
X164750620Y-109496403D01*
X164615913Y-109546645D01*
X164615906Y-109546649D01*
X164500812Y-109632809D01*
X164500809Y-109632812D01*
X164414649Y-109747906D01*
X164414645Y-109747913D01*
X164364403Y-109882620D01*
X164364401Y-109882627D01*
X164358000Y-109942155D01*
X164358000Y-110240000D01*
X156585419Y-110240000D01*
X157195600Y-109629819D01*
X157256923Y-109596334D01*
X157283281Y-109593500D01*
X162731033Y-109593500D01*
X162746681Y-109595227D01*
X162746708Y-109594946D01*
X162754475Y-109595680D01*
X162754476Y-109595679D01*
X162754477Y-109595680D01*
X162823860Y-109593500D01*
X162853476Y-109593500D01*
X162860378Y-109592627D01*
X162866190Y-109592169D01*
X162912943Y-109590701D01*
X162932272Y-109585084D01*
X162951328Y-109581137D01*
X162971293Y-109578616D01*
X163014770Y-109561401D01*
X163020276Y-109559516D01*
X163065191Y-109546468D01*
X163082515Y-109536221D01*
X163099983Y-109527663D01*
X163118703Y-109520253D01*
X163156542Y-109492759D01*
X163161391Y-109489574D01*
X163201656Y-109465763D01*
X163215897Y-109451520D01*
X163230678Y-109438897D01*
X163246967Y-109427063D01*
X163246969Y-109427059D01*
X163246971Y-109427059D01*
X163258845Y-109412703D01*
X163276776Y-109391028D01*
X163280689Y-109386728D01*
X164053600Y-108613819D01*
X164114923Y-108580334D01*
X164141281Y-108577500D01*
X169521601Y-108577500D01*
X169588640Y-108597185D01*
X169623176Y-108630377D01*
X169717174Y-108764620D01*
X169873380Y-108920826D01*
X170054338Y-109047534D01*
X170055260Y-109047963D01*
X170055596Y-109048260D01*
X170059029Y-109050242D01*
X170058630Y-109050931D01*
X170107699Y-109094135D01*
X170126852Y-109161328D01*
X170111519Y-109220082D01*
X170099927Y-109241168D01*
X170094920Y-109260668D01*
X170088621Y-109279064D01*
X170085410Y-109286486D01*
X170080625Y-109297544D01*
X170080625Y-109297546D01*
X170075228Y-109331619D01*
X170045298Y-109394753D01*
X170023878Y-109413794D01*
X169873378Y-109519174D01*
X169717175Y-109675377D01*
X169590466Y-109856338D01*
X169590465Y-109856340D01*
X169497107Y-110056548D01*
X169497104Y-110056554D01*
X169439930Y-110269929D01*
X169439929Y-110269937D01*
X169420677Y-110489997D01*
X169420677Y-110490002D01*
X169439929Y-110710062D01*
X169439930Y-110710070D01*
X169497104Y-110923445D01*
X169497105Y-110923447D01*
X169497106Y-110923450D01*
X169543159Y-111022211D01*
X169590466Y-111123662D01*
X169590468Y-111123666D01*
X169717170Y-111304615D01*
X169717174Y-111304620D01*
X169873380Y-111460826D01*
X170007624Y-111554824D01*
X170051248Y-111609399D01*
X170060500Y-111656398D01*
X170060500Y-112210719D01*
X170040815Y-112277758D01*
X170024181Y-112298400D01*
X168432400Y-113890181D01*
X168371077Y-113923666D01*
X168344719Y-113926500D01*
X166682062Y-113926500D01*
X166615023Y-113906815D01*
X166569268Y-113854011D01*
X166559324Y-113784853D01*
X166584005Y-113726599D01*
X166586895Y-113722866D01*
X166600261Y-113705597D01*
X166656861Y-113664635D01*
X166698317Y-113657500D01*
X167049033Y-113657500D01*
X167064681Y-113659227D01*
X167064708Y-113658946D01*
X167072475Y-113659680D01*
X167072476Y-113659679D01*
X167072477Y-113659680D01*
X167141860Y-113657500D01*
X167171476Y-113657500D01*
X167178378Y-113656627D01*
X167184190Y-113656169D01*
X167230943Y-113654701D01*
X167250272Y-113649084D01*
X167269328Y-113645137D01*
X167289293Y-113642616D01*
X167332770Y-113625401D01*
X167338276Y-113623516D01*
X167383191Y-113610468D01*
X167400515Y-113600221D01*
X167417983Y-113591663D01*
X167436703Y-113584253D01*
X167474542Y-113556759D01*
X167479391Y-113553574D01*
X167519656Y-113529763D01*
X167533897Y-113515520D01*
X167548678Y-113502897D01*
X167564967Y-113491063D01*
X167564969Y-113491059D01*
X167564971Y-113491059D01*
X167580008Y-113472881D01*
X167594776Y-113455028D01*
X167598689Y-113450728D01*
X168533043Y-112516374D01*
X168545325Y-112506537D01*
X168545144Y-112506318D01*
X168551152Y-112501346D01*
X168551162Y-112501340D01*
X168598677Y-112450741D01*
X168619623Y-112429796D01*
X168623892Y-112424290D01*
X168627676Y-112419859D01*
X168659693Y-112385767D01*
X168669389Y-112368128D01*
X168680073Y-112351861D01*
X168692408Y-112335962D01*
X168710983Y-112293034D01*
X168713534Y-112287827D01*
X168736072Y-112246834D01*
X168741078Y-112227334D01*
X168747376Y-112208936D01*
X168755374Y-112190458D01*
X168761744Y-112150234D01*
X168762688Y-112144276D01*
X168763870Y-112138565D01*
X168775500Y-112093272D01*
X168775500Y-112073141D01*
X168777027Y-112053741D01*
X168780175Y-112033867D01*
X168775775Y-111987321D01*
X168775500Y-111981483D01*
X168775500Y-111186465D01*
X168795185Y-111119426D01*
X168807343Y-111103500D01*
X168880533Y-111022216D01*
X168975179Y-110858284D01*
X169033674Y-110678256D01*
X169053460Y-110490000D01*
X169033674Y-110301744D01*
X168975179Y-110121716D01*
X168880533Y-109957784D01*
X168753871Y-109817112D01*
X168750041Y-109814329D01*
X168600734Y-109705851D01*
X168600729Y-109705848D01*
X168427807Y-109628857D01*
X168427802Y-109628855D01*
X168271721Y-109595680D01*
X168242646Y-109589500D01*
X168053354Y-109589500D01*
X168024279Y-109595680D01*
X167868197Y-109628855D01*
X167868192Y-109628857D01*
X167695270Y-109705848D01*
X167695265Y-109705851D01*
X167542129Y-109817111D01*
X167415466Y-109957785D01*
X167320821Y-110121715D01*
X167320818Y-110121722D01*
X167262327Y-110301740D01*
X167262326Y-110301744D01*
X167242540Y-110490000D01*
X167262326Y-110678256D01*
X167262327Y-110678259D01*
X167320818Y-110858277D01*
X167320821Y-110858284D01*
X167358444Y-110923450D01*
X167415467Y-111022216D01*
X167488651Y-111103494D01*
X167518880Y-111166484D01*
X167520500Y-111186465D01*
X167520500Y-111702719D01*
X167500815Y-111769758D01*
X167484181Y-111790400D01*
X166977970Y-112296610D01*
X166916647Y-112330095D01*
X166846955Y-112325111D01*
X166791022Y-112283239D01*
X166766605Y-112217775D01*
X166778961Y-112154322D01*
X166801060Y-112109271D01*
X166852063Y-111912285D01*
X166862369Y-111709064D01*
X166831556Y-111507929D01*
X166776663Y-111359714D01*
X166771840Y-111290013D01*
X166793683Y-111242333D01*
X166801351Y-111232090D01*
X166851597Y-111097376D01*
X166851598Y-111097372D01*
X166857999Y-111037844D01*
X166858000Y-111037827D01*
X166858000Y-110740000D01*
X165728837Y-110740000D01*
X165806264Y-110688264D01*
X165867045Y-110597300D01*
X165888388Y-110490000D01*
X165867045Y-110382700D01*
X165806264Y-110291736D01*
X165715300Y-110230955D01*
X165635088Y-110215000D01*
X165580912Y-110215000D01*
X165500700Y-110230955D01*
X165409736Y-110291736D01*
X165348955Y-110382700D01*
X165327612Y-110490000D01*
X165348955Y-110597300D01*
X165409736Y-110688264D01*
X165487163Y-110740000D01*
X164358000Y-110740000D01*
X164358000Y-111008500D01*
X164338315Y-111075539D01*
X164285511Y-111121294D01*
X164234000Y-111132500D01*
X160610967Y-111132500D01*
X160595318Y-111130772D01*
X160595292Y-111131054D01*
X160587524Y-111130319D01*
X160518141Y-111132500D01*
X160488522Y-111132500D01*
X160481618Y-111133371D01*
X160475800Y-111133829D01*
X160429060Y-111135298D01*
X160429054Y-111135299D01*
X160409719Y-111140916D01*
X160390680Y-111144859D01*
X160370715Y-111147382D01*
X160370701Y-111147385D01*
X160327235Y-111164594D01*
X160321710Y-111166485D01*
X160276809Y-111179531D01*
X160276806Y-111179533D01*
X160259480Y-111189779D01*
X160242010Y-111198337D01*
X160223298Y-111205745D01*
X160185463Y-111233233D01*
X160180580Y-111236440D01*
X160140346Y-111260234D01*
X160126106Y-111274474D01*
X160111320Y-111287102D01*
X160095033Y-111298936D01*
X160095032Y-111298936D01*
X160065227Y-111334963D01*
X160061295Y-111339285D01*
X159380953Y-112019626D01*
X159368669Y-112029469D01*
X159368849Y-112029687D01*
X159362838Y-112034659D01*
X159315322Y-112085258D01*
X159294375Y-112106205D01*
X159290106Y-112111709D01*
X159286315Y-112116147D01*
X159254308Y-112150230D01*
X159254305Y-112150234D01*
X159244606Y-112167877D01*
X159233928Y-112184133D01*
X159221594Y-112200034D01*
X159221589Y-112200042D01*
X159203025Y-112242943D01*
X159200454Y-112248191D01*
X159177927Y-112289167D01*
X159172920Y-112308668D01*
X159166621Y-112327064D01*
X159159893Y-112342612D01*
X159158625Y-112345544D01*
X159158624Y-112345546D01*
X159151312Y-112391716D01*
X159150127Y-112397438D01*
X159138500Y-112442723D01*
X159138500Y-112462858D01*
X159136973Y-112482257D01*
X159133825Y-112502131D01*
X159138225Y-112548677D01*
X159138500Y-112554515D01*
X159138500Y-112629951D01*
X159118815Y-112696990D01*
X159066011Y-112742745D01*
X158996853Y-112752689D01*
X158933297Y-112723664D01*
X158926819Y-112717632D01*
X158827141Y-112617954D01*
X158640734Y-112487432D01*
X158640732Y-112487431D01*
X158434497Y-112391261D01*
X158434488Y-112391258D01*
X158214697Y-112332366D01*
X158214693Y-112332365D01*
X158214692Y-112332365D01*
X158214691Y-112332364D01*
X158214686Y-112332364D01*
X157988002Y-112312532D01*
X157987998Y-112312532D01*
X157761313Y-112332364D01*
X157761302Y-112332366D01*
X157541511Y-112391258D01*
X157541502Y-112391261D01*
X157335267Y-112487431D01*
X157335265Y-112487432D01*
X157148858Y-112617954D01*
X156987954Y-112778858D01*
X156857432Y-112965265D01*
X156857431Y-112965267D01*
X156761261Y-113171502D01*
X156761258Y-113171511D01*
X156702366Y-113391302D01*
X156702364Y-113391313D01*
X156682532Y-113617998D01*
X156682532Y-113618001D01*
X156702364Y-113844686D01*
X156702366Y-113844697D01*
X156761258Y-114064488D01*
X156761261Y-114064497D01*
X156857431Y-114270732D01*
X156857432Y-114270734D01*
X156987954Y-114457141D01*
X157148858Y-114618045D01*
X157307623Y-114729212D01*
X157351248Y-114783788D01*
X157360500Y-114830787D01*
X157360500Y-114945212D01*
X157340815Y-115012251D01*
X157307623Y-115046787D01*
X157148858Y-115157954D01*
X156987954Y-115318858D01*
X156857432Y-115505265D01*
X156857431Y-115505267D01*
X156761261Y-115711502D01*
X156761258Y-115711511D01*
X156702366Y-115931302D01*
X156702364Y-115931313D01*
X156682532Y-116157998D01*
X156682532Y-116158001D01*
X156702364Y-116384686D01*
X156702366Y-116384697D01*
X156761258Y-116604488D01*
X156761261Y-116604497D01*
X156857431Y-116810732D01*
X156857432Y-116810734D01*
X156987954Y-116997141D01*
X157148858Y-117158045D01*
X157148861Y-117158047D01*
X157335266Y-117288568D01*
X157541504Y-117384739D01*
X157761308Y-117443635D01*
X157923230Y-117457801D01*
X157987998Y-117463468D01*
X157988000Y-117463468D01*
X157988002Y-117463468D01*
X158044673Y-117458509D01*
X158214692Y-117443635D01*
X158434496Y-117384739D01*
X158640734Y-117288568D01*
X158827139Y-117158047D01*
X158988047Y-116997139D01*
X159118568Y-116810734D01*
X159214739Y-116604496D01*
X159273635Y-116384692D01*
X159293468Y-116158000D01*
X159273635Y-115931308D01*
X159214739Y-115711504D01*
X159118568Y-115505266D01*
X158988047Y-115318861D01*
X158988045Y-115318858D01*
X158827141Y-115157954D01*
X158668377Y-115046787D01*
X158624752Y-114992210D01*
X158615500Y-114945212D01*
X158615500Y-114830787D01*
X158635185Y-114763748D01*
X158668377Y-114729212D01*
X158689267Y-114714585D01*
X158827139Y-114618047D01*
X158988047Y-114457139D01*
X159007545Y-114429291D01*
X159062119Y-114385666D01*
X159131618Y-114378471D01*
X159193973Y-114409991D01*
X159209438Y-114427527D01*
X159239228Y-114468528D01*
X159242437Y-114473413D01*
X159266234Y-114513652D01*
X159266240Y-114513660D01*
X159280469Y-114527888D01*
X159293109Y-114542687D01*
X159304934Y-114558964D01*
X159304936Y-114558965D01*
X159304937Y-114558967D01*
X159306088Y-114559919D01*
X159340957Y-114588765D01*
X159345268Y-114592687D01*
X159921718Y-115169137D01*
X160497989Y-115745408D01*
X160531474Y-115806731D01*
X160530083Y-115865182D01*
X160512366Y-115931302D01*
X160512364Y-115931313D01*
X160492532Y-116157998D01*
X160492532Y-116158001D01*
X160512364Y-116384686D01*
X160512366Y-116384697D01*
X160571258Y-116604488D01*
X160571261Y-116604497D01*
X160667431Y-116810732D01*
X160667432Y-116810734D01*
X160797954Y-116997141D01*
X160958858Y-117158045D01*
X160958861Y-117158047D01*
X161145266Y-117288568D01*
X161351504Y-117384739D01*
X161571308Y-117443635D01*
X161733230Y-117457801D01*
X161797998Y-117463468D01*
X161798000Y-117463468D01*
X161798002Y-117463468D01*
X161854673Y-117458509D01*
X162024692Y-117443635D01*
X162244496Y-117384739D01*
X162450734Y-117288568D01*
X162637139Y-117158047D01*
X162798047Y-116997139D01*
X162928568Y-116810734D01*
X163024739Y-116604496D01*
X163083635Y-116384692D01*
X163103468Y-116158000D01*
X163083635Y-115931308D01*
X163024739Y-115711504D01*
X162928568Y-115505266D01*
X162838491Y-115376622D01*
X162816165Y-115310417D01*
X162833175Y-115242649D01*
X162884124Y-115194837D01*
X162940067Y-115181500D01*
X164465933Y-115181500D01*
X164532972Y-115201185D01*
X164578727Y-115253989D01*
X164588671Y-115323147D01*
X164567508Y-115376623D01*
X164477432Y-115505265D01*
X164477431Y-115505267D01*
X164381261Y-115711502D01*
X164381258Y-115711511D01*
X164322366Y-115931302D01*
X164322364Y-115931313D01*
X164302532Y-116157998D01*
X164302532Y-116158001D01*
X164322364Y-116384686D01*
X164322366Y-116384697D01*
X164381258Y-116604488D01*
X164381261Y-116604497D01*
X164477431Y-116810732D01*
X164477432Y-116810734D01*
X164607954Y-116997141D01*
X164768858Y-117158045D01*
X164768861Y-117158047D01*
X164955266Y-117288568D01*
X165161504Y-117384739D01*
X165381308Y-117443635D01*
X165543230Y-117457801D01*
X165607998Y-117463468D01*
X165608000Y-117463468D01*
X165608002Y-117463468D01*
X165664673Y-117458509D01*
X165834692Y-117443635D01*
X166054496Y-117384739D01*
X166260734Y-117288568D01*
X166447139Y-117158047D01*
X166608047Y-116997139D01*
X166738568Y-116810734D01*
X166834739Y-116604496D01*
X166893635Y-116384692D01*
X166913468Y-116158000D01*
X166893635Y-115931308D01*
X166834739Y-115711504D01*
X166738568Y-115505266D01*
X166648491Y-115376622D01*
X166626165Y-115310417D01*
X166643175Y-115242649D01*
X166694124Y-115194837D01*
X166750067Y-115181500D01*
X168573033Y-115181500D01*
X168588681Y-115183227D01*
X168588708Y-115182946D01*
X168596475Y-115183680D01*
X168596476Y-115183679D01*
X168596477Y-115183680D01*
X168665860Y-115181500D01*
X168695476Y-115181500D01*
X168702378Y-115180627D01*
X168708190Y-115180169D01*
X168754943Y-115178701D01*
X168774272Y-115173084D01*
X168793328Y-115169137D01*
X168813293Y-115166616D01*
X168856770Y-115149401D01*
X168862276Y-115147516D01*
X168907191Y-115134468D01*
X168924515Y-115124221D01*
X168941983Y-115115663D01*
X168960703Y-115108253D01*
X168998542Y-115080759D01*
X169003391Y-115077574D01*
X169043656Y-115053763D01*
X169057897Y-115039520D01*
X169072678Y-115026897D01*
X169088967Y-115015063D01*
X169088969Y-115015059D01*
X169088971Y-115015059D01*
X169107872Y-114992210D01*
X169118776Y-114979028D01*
X169122689Y-114974728D01*
X171073043Y-113024374D01*
X171085325Y-113014537D01*
X171085144Y-113014318D01*
X171091152Y-113009346D01*
X171091162Y-113009340D01*
X171138677Y-112958741D01*
X171159623Y-112937796D01*
X171163892Y-112932290D01*
X171167676Y-112927859D01*
X171199693Y-112893767D01*
X171209389Y-112876128D01*
X171220073Y-112859861D01*
X171232408Y-112843962D01*
X171250983Y-112801034D01*
X171253534Y-112795827D01*
X171276072Y-112754834D01*
X171281078Y-112735334D01*
X171287376Y-112716936D01*
X171295374Y-112698458D01*
X171302688Y-112652276D01*
X171303870Y-112646565D01*
X171315500Y-112601272D01*
X171315500Y-112581141D01*
X171317027Y-112561741D01*
X171317541Y-112558498D01*
X171320175Y-112541867D01*
X171315775Y-112495321D01*
X171315500Y-112489483D01*
X171315500Y-111656398D01*
X171335185Y-111589359D01*
X171368374Y-111554825D01*
X171502620Y-111460826D01*
X171658826Y-111304620D01*
X171746413Y-111179533D01*
X171752824Y-111170377D01*
X171807401Y-111126752D01*
X171854399Y-111117500D01*
X172154719Y-111117500D01*
X172221758Y-111137185D01*
X172242400Y-111153819D01*
X173072181Y-111983600D01*
X173105666Y-112044923D01*
X173108500Y-112071281D01*
X173108500Y-113455032D01*
X173106772Y-113470681D01*
X173107054Y-113470708D01*
X173106319Y-113478475D01*
X173108500Y-113547859D01*
X173108500Y-113577477D01*
X173109371Y-113584380D01*
X173109829Y-113590199D01*
X173111298Y-113636942D01*
X173113806Y-113645571D01*
X173116911Y-113656261D01*
X173116916Y-113656275D01*
X173120862Y-113675329D01*
X173123383Y-113695287D01*
X173123386Y-113695299D01*
X173140595Y-113738765D01*
X173142487Y-113744293D01*
X173155530Y-113789187D01*
X173155530Y-113789188D01*
X173165777Y-113806515D01*
X173174335Y-113823985D01*
X173181745Y-113842701D01*
X173209229Y-113880529D01*
X173212437Y-113885413D01*
X173236234Y-113925652D01*
X173236240Y-113925660D01*
X173250469Y-113939888D01*
X173263109Y-113954687D01*
X173274934Y-113970964D01*
X173274936Y-113970965D01*
X173274937Y-113970967D01*
X173304346Y-113995296D01*
X173310957Y-114000765D01*
X173315268Y-114004687D01*
X173955896Y-114645315D01*
X174596181Y-115285600D01*
X174629666Y-115346923D01*
X174632500Y-115373281D01*
X174632500Y-115519500D01*
X174612815Y-115586539D01*
X174560011Y-115632294D01*
X174508500Y-115643500D01*
X172738129Y-115643500D01*
X172738123Y-115643501D01*
X172678516Y-115649908D01*
X172543671Y-115700202D01*
X172543664Y-115700206D01*
X172428455Y-115786452D01*
X172428452Y-115786455D01*
X172342206Y-115901664D01*
X172342202Y-115901671D01*
X172291908Y-116036517D01*
X172285145Y-116099428D01*
X172284082Y-116099313D01*
X172262300Y-116161038D01*
X172207118Y-116203895D01*
X172161731Y-116212500D01*
X169964354Y-116212500D01*
X169959319Y-116212295D01*
X169901992Y-116207626D01*
X169901983Y-116207627D01*
X169818802Y-116218959D01*
X169735383Y-116228033D01*
X169735372Y-116228036D01*
X169735108Y-116228125D01*
X169712298Y-116233470D01*
X169712012Y-116233508D01*
X169633200Y-116262463D01*
X169553685Y-116289255D01*
X169553676Y-116289259D01*
X169553431Y-116289407D01*
X169532315Y-116299526D01*
X169532041Y-116299626D01*
X169532028Y-116299633D01*
X169461317Y-116344830D01*
X169389393Y-116388106D01*
X169389382Y-116388114D01*
X169389176Y-116388310D01*
X169370721Y-116402738D01*
X169370482Y-116402890D01*
X169370476Y-116402895D01*
X169311138Y-116462232D01*
X169250188Y-116519967D01*
X169250187Y-116519968D01*
X169250028Y-116520204D01*
X169235086Y-116538283D01*
X167311190Y-118462181D01*
X167249867Y-118495666D01*
X167223509Y-118498500D01*
X153832491Y-118498500D01*
X153765452Y-118478815D01*
X153744810Y-118462181D01*
X150269819Y-114987190D01*
X150236334Y-114925867D01*
X150233500Y-114899509D01*
X150233500Y-104178352D01*
X150233705Y-104173317D01*
X150238373Y-104115991D01*
X150238372Y-104115985D01*
X150238073Y-104113793D01*
X150230867Y-104060894D01*
X150227040Y-104032802D01*
X150218465Y-103953962D01*
X150217967Y-103949386D01*
X150217881Y-103949130D01*
X150212526Y-103926280D01*
X150212489Y-103926006D01*
X150183536Y-103847200D01*
X150156745Y-103767685D01*
X150156741Y-103767677D01*
X150156603Y-103767447D01*
X150146462Y-103746285D01*
X150146368Y-103746031D01*
X150146368Y-103746030D01*
X150117477Y-103700832D01*
X150101170Y-103675318D01*
X150076796Y-103634809D01*
X150057894Y-103603393D01*
X150057704Y-103603192D01*
X150043243Y-103584693D01*
X150043105Y-103584477D01*
X150043104Y-103584475D01*
X149983767Y-103525138D01*
X149926036Y-103464192D01*
X149925812Y-103464040D01*
X149907713Y-103449084D01*
X148353297Y-101894668D01*
X146780427Y-100321798D01*
X146777024Y-100318106D01*
X146739781Y-100274260D01*
X146672946Y-100223454D01*
X146607548Y-100170885D01*
X146607547Y-100170884D01*
X146607297Y-100170760D01*
X146587369Y-100158399D01*
X146587142Y-100158227D01*
X146587143Y-100158227D01*
X146587141Y-100158226D01*
X146510951Y-100122977D01*
X146435774Y-100085693D01*
X146435770Y-100085692D01*
X146435767Y-100085691D01*
X146435498Y-100085624D01*
X146413377Y-100077834D01*
X146413129Y-100077719D01*
X146413124Y-100077717D01*
X146331157Y-100059675D01*
X146249705Y-100039419D01*
X146249697Y-100039418D01*
X146249424Y-100039411D01*
X146226144Y-100036560D01*
X146225874Y-100036500D01*
X146225869Y-100036500D01*
X146141946Y-100036500D01*
X146058039Y-100034227D01*
X146058038Y-100034227D01*
X146058036Y-100034227D01*
X146057761Y-100034279D01*
X146034403Y-100036500D01*
X141791960Y-100036500D01*
X141724921Y-100016815D01*
X141684574Y-99974502D01*
X141658386Y-99929143D01*
X141494805Y-99724019D01*
X141494804Y-99724018D01*
X141494801Y-99724014D01*
X141302479Y-99545567D01*
X141085704Y-99397772D01*
X141085700Y-99397770D01*
X141085697Y-99397768D01*
X141085696Y-99397767D01*
X140849325Y-99283938D01*
X140849327Y-99283938D01*
X140598623Y-99206606D01*
X140598619Y-99206605D01*
X140598615Y-99206604D01*
X140473823Y-99187794D01*
X140339187Y-99167500D01*
X140339182Y-99167500D01*
X140076818Y-99167500D01*
X140076812Y-99167500D01*
X139915247Y-99191853D01*
X139817385Y-99206604D01*
X139817382Y-99206605D01*
X139817376Y-99206606D01*
X139566673Y-99283938D01*
X139330303Y-99397767D01*
X139330302Y-99397768D01*
X139113520Y-99545567D01*
X138921198Y-99724014D01*
X138757614Y-99929143D01*
X138626432Y-100156356D01*
X138530582Y-100400578D01*
X138530576Y-100400597D01*
X138472197Y-100656374D01*
X138472196Y-100656379D01*
X138452592Y-100917995D01*
X138452592Y-100918004D01*
X138472196Y-101179620D01*
X138472197Y-101179625D01*
X138472197Y-101179629D01*
X138472198Y-101179630D01*
X138476757Y-101199604D01*
X138530576Y-101435402D01*
X138530578Y-101435411D01*
X138530580Y-101435416D01*
X138626432Y-101679643D01*
X138757614Y-101906857D01*
X138849545Y-102022135D01*
X138921198Y-102111985D01*
X139055220Y-102236338D01*
X139113521Y-102290433D01*
X139330296Y-102438228D01*
X139330301Y-102438230D01*
X139330302Y-102438231D01*
X139330303Y-102438232D01*
X139455843Y-102498688D01*
X139566673Y-102552061D01*
X139566674Y-102552061D01*
X139566677Y-102552063D01*
X139817385Y-102629396D01*
X140076818Y-102668500D01*
X140339182Y-102668500D01*
X140598615Y-102629396D01*
X140849323Y-102552063D01*
X141085704Y-102438228D01*
X141302479Y-102290433D01*
X141467209Y-102137586D01*
X141494801Y-102111985D01*
X141494801Y-102111983D01*
X141494805Y-102111981D01*
X141658386Y-101906857D01*
X141684574Y-101861497D01*
X141735140Y-101813284D01*
X141791960Y-101799500D01*
X145713509Y-101799500D01*
X145780548Y-101819185D01*
X145801190Y-101835819D01*
X148434181Y-104468810D01*
X148467666Y-104530133D01*
X148470500Y-104556491D01*
X148470500Y-115277646D01*
X148470295Y-115282681D01*
X148465626Y-115340008D01*
X148465627Y-115340016D01*
X148476959Y-115423197D01*
X148485046Y-115497540D01*
X148485886Y-115505267D01*
X148486033Y-115506613D01*
X148486033Y-115506616D01*
X148486120Y-115506872D01*
X148491471Y-115529705D01*
X148491509Y-115529987D01*
X148491510Y-115529991D01*
X148520463Y-115608799D01*
X148547255Y-115688316D01*
X148547401Y-115688559D01*
X148557532Y-115709700D01*
X148557627Y-115709960D01*
X148557634Y-115709973D01*
X148602829Y-115780682D01*
X148646104Y-115852605D01*
X148646108Y-115852610D01*
X148646294Y-115852806D01*
X148660748Y-115871294D01*
X148660893Y-115871521D01*
X148660900Y-115871530D01*
X148720232Y-115930861D01*
X148777960Y-115991805D01*
X148777963Y-115991807D01*
X148778187Y-115991959D01*
X148796286Y-116006915D01*
X152765571Y-119976200D01*
X152768975Y-119979893D01*
X152806214Y-120023735D01*
X152806215Y-120023736D01*
X152806218Y-120023739D01*
X152873053Y-120074545D01*
X152938453Y-120127116D01*
X152938460Y-120127119D01*
X152938461Y-120127120D01*
X152938690Y-120127234D01*
X152958640Y-120139608D01*
X152958860Y-120139775D01*
X152958859Y-120139775D01*
X152996953Y-120157398D01*
X153035048Y-120175022D01*
X153110226Y-120212307D01*
X153110411Y-120212353D01*
X153110487Y-120212372D01*
X153132630Y-120220168D01*
X153132878Y-120220283D01*
X153214842Y-120238324D01*
X153296296Y-120258581D01*
X153296565Y-120258588D01*
X153319871Y-120261443D01*
X153320130Y-120261500D01*
X153404054Y-120261500D01*
X153487964Y-120263773D01*
X153488238Y-120263720D01*
X153511597Y-120261500D01*
X167601646Y-120261500D01*
X167606681Y-120261705D01*
X167629474Y-120263560D01*
X167664011Y-120266373D01*
X167747198Y-120255039D01*
X167830614Y-120245967D01*
X167830869Y-120245880D01*
X167853714Y-120240527D01*
X167853994Y-120240489D01*
X167932799Y-120211536D01*
X168012315Y-120184745D01*
X168012539Y-120184610D01*
X168033723Y-120174458D01*
X168033970Y-120174368D01*
X168104682Y-120129169D01*
X168176607Y-120085894D01*
X168176793Y-120085717D01*
X168195306Y-120071243D01*
X168195525Y-120071104D01*
X168254861Y-120011767D01*
X168315808Y-119954036D01*
X168315957Y-119953814D01*
X168330911Y-119935716D01*
X170254810Y-118011819D01*
X170316133Y-117978334D01*
X170342491Y-117975500D01*
X172161732Y-117975500D01*
X172228771Y-117995185D01*
X172274526Y-118047989D01*
X172284511Y-118088639D01*
X172285146Y-118088571D01*
X172291908Y-118151483D01*
X172342202Y-118286328D01*
X172342206Y-118286335D01*
X172387151Y-118346373D01*
X172428454Y-118401546D01*
X172541011Y-118485806D01*
X172545589Y-118489233D01*
X172587460Y-118545167D01*
X172592444Y-118614859D01*
X172558959Y-118676182D01*
X172497635Y-118709666D01*
X172471278Y-118712500D01*
X170766354Y-118712500D01*
X170761319Y-118712295D01*
X170703992Y-118707626D01*
X170703983Y-118707627D01*
X170620802Y-118718959D01*
X170537383Y-118728033D01*
X170537372Y-118728036D01*
X170537108Y-118728125D01*
X170514298Y-118733470D01*
X170514012Y-118733508D01*
X170435200Y-118762463D01*
X170355685Y-118789255D01*
X170355676Y-118789259D01*
X170355431Y-118789407D01*
X170334315Y-118799526D01*
X170334041Y-118799626D01*
X170334028Y-118799633D01*
X170263317Y-118844830D01*
X170191393Y-118888106D01*
X170191382Y-118888114D01*
X170191176Y-118888310D01*
X170172721Y-118902738D01*
X170172482Y-118902890D01*
X170172476Y-118902895D01*
X170113138Y-118962232D01*
X170052188Y-119019967D01*
X170052187Y-119019968D01*
X170052028Y-119020204D01*
X170037086Y-119038283D01*
X168581190Y-120494181D01*
X168519867Y-120527666D01*
X168493509Y-120530500D01*
X165689881Y-120530500D01*
X165669824Y-120528867D01*
X165656005Y-120526602D01*
X165585790Y-120530409D01*
X165582436Y-120530500D01*
X154978354Y-120530500D01*
X154973319Y-120530295D01*
X154915992Y-120525626D01*
X154915983Y-120525627D01*
X154832802Y-120536959D01*
X154749383Y-120546033D01*
X154749372Y-120546036D01*
X154749108Y-120546125D01*
X154726298Y-120551470D01*
X154726012Y-120551508D01*
X154647200Y-120580463D01*
X154567685Y-120607255D01*
X154567676Y-120607259D01*
X154567431Y-120607407D01*
X154546315Y-120617526D01*
X154546041Y-120617626D01*
X154546028Y-120617633D01*
X154475317Y-120662830D01*
X154403393Y-120706106D01*
X154403382Y-120706114D01*
X154403176Y-120706310D01*
X154384721Y-120720738D01*
X154384482Y-120720890D01*
X154384476Y-120720895D01*
X154325138Y-120780232D01*
X154264188Y-120837967D01*
X154264187Y-120837968D01*
X154264028Y-120838204D01*
X154249086Y-120856283D01*
X153581815Y-121523555D01*
X153578112Y-121526968D01*
X153534260Y-121564218D01*
X153534259Y-121564219D01*
X153491689Y-121620219D01*
X153483454Y-121631053D01*
X153467793Y-121650537D01*
X153430882Y-121696456D01*
X153430877Y-121696464D01*
X153430754Y-121696713D01*
X153418408Y-121716618D01*
X153418231Y-121716850D01*
X153418227Y-121716857D01*
X153418226Y-121716858D01*
X153418226Y-121716859D01*
X153382977Y-121793048D01*
X153364106Y-121831097D01*
X153345695Y-121868220D01*
X153345690Y-121868233D01*
X153345624Y-121868501D01*
X153337840Y-121890610D01*
X153337720Y-121890869D01*
X153337717Y-121890875D01*
X153319675Y-121972842D01*
X153299419Y-122054294D01*
X153299418Y-122054302D01*
X153299411Y-122054576D01*
X153296561Y-122077853D01*
X153296500Y-122078126D01*
X153296500Y-122162053D01*
X153294227Y-122245962D01*
X153294278Y-122246228D01*
X153296500Y-122269598D01*
X153296500Y-122768951D01*
X153276815Y-122835990D01*
X153260181Y-122856632D01*
X153177954Y-122938858D01*
X153047432Y-123125265D01*
X153047431Y-123125267D01*
X152951261Y-123331502D01*
X152951258Y-123331511D01*
X152892366Y-123551302D01*
X152892364Y-123551313D01*
X152872532Y-123777998D01*
X152872532Y-123778001D01*
X152892364Y-124004686D01*
X152892366Y-124004697D01*
X152951258Y-124224488D01*
X152951261Y-124224497D01*
X153047431Y-124430732D01*
X153047432Y-124430734D01*
X153177954Y-124617141D01*
X153338858Y-124778045D01*
X153338861Y-124778047D01*
X153525266Y-124908568D01*
X153731504Y-125004739D01*
X153951308Y-125063635D01*
X154113230Y-125077801D01*
X154177998Y-125083468D01*
X154178000Y-125083468D01*
X154178002Y-125083468D01*
X154240385Y-125078010D01*
X154404692Y-125063635D01*
X154624496Y-125004739D01*
X154830734Y-124908568D01*
X155017139Y-124778047D01*
X155178047Y-124617139D01*
X155308568Y-124430734D01*
X155404739Y-124224496D01*
X155463635Y-124004692D01*
X155483468Y-123778000D01*
X155463635Y-123551308D01*
X155404739Y-123331504D01*
X155308568Y-123125266D01*
X155178047Y-122938861D01*
X155178045Y-122938858D01*
X155095819Y-122856632D01*
X155062334Y-122795309D01*
X155059500Y-122768951D01*
X155059500Y-122590491D01*
X155079185Y-122523452D01*
X155095819Y-122502810D01*
X155268810Y-122329819D01*
X155330133Y-122296334D01*
X155356491Y-122293500D01*
X157561607Y-122293500D01*
X157628646Y-122313185D01*
X157674401Y-122365989D01*
X157684345Y-122435147D01*
X157655320Y-122498703D01*
X157596542Y-122536477D01*
X157593700Y-122537275D01*
X157541511Y-122551258D01*
X157541502Y-122551261D01*
X157335267Y-122647431D01*
X157335265Y-122647432D01*
X157148858Y-122777954D01*
X156987954Y-122938858D01*
X156857432Y-123125265D01*
X156857431Y-123125267D01*
X156761261Y-123331502D01*
X156761258Y-123331511D01*
X156702366Y-123551302D01*
X156702364Y-123551313D01*
X156682532Y-123777998D01*
X156682532Y-123778001D01*
X156702364Y-124004686D01*
X156702366Y-124004697D01*
X156761258Y-124224488D01*
X156761261Y-124224497D01*
X156857431Y-124430732D01*
X156857432Y-124430734D01*
X156987954Y-124617141D01*
X157148858Y-124778045D01*
X157148861Y-124778047D01*
X157335266Y-124908568D01*
X157541504Y-125004739D01*
X157761308Y-125063635D01*
X157923230Y-125077801D01*
X157987998Y-125083468D01*
X157988000Y-125083468D01*
X157988002Y-125083468D01*
X158019421Y-125080719D01*
X158214692Y-125063635D01*
X158280815Y-125045917D01*
X158350665Y-125047578D01*
X158400591Y-125078010D01*
X159183624Y-125861043D01*
X159193471Y-125873333D01*
X159193689Y-125873154D01*
X159198657Y-125879160D01*
X159249257Y-125926677D01*
X159270205Y-125947624D01*
X159275706Y-125951891D01*
X159280145Y-125955682D01*
X159314233Y-125987693D01*
X159331884Y-125997396D01*
X159348134Y-126008071D01*
X159364038Y-126020408D01*
X159364041Y-126020410D01*
X159406942Y-126038974D01*
X159412190Y-126041544D01*
X159453166Y-126064072D01*
X159472240Y-126068969D01*
X159472660Y-126069077D01*
X159491064Y-126075377D01*
X159509542Y-126083374D01*
X159553038Y-126090262D01*
X159555724Y-126090688D01*
X159561429Y-126091869D01*
X159606728Y-126103500D01*
X159626858Y-126103500D01*
X159646257Y-126105027D01*
X159666133Y-126108175D01*
X159708779Y-126104143D01*
X159712679Y-126103775D01*
X159718517Y-126103500D01*
X167049033Y-126103500D01*
X167064681Y-126105227D01*
X167064708Y-126104946D01*
X167072475Y-126105680D01*
X167072476Y-126105679D01*
X167072477Y-126105680D01*
X167141860Y-126103500D01*
X167171476Y-126103500D01*
X167178378Y-126102627D01*
X167184190Y-126102169D01*
X167230943Y-126100701D01*
X167250272Y-126095084D01*
X167269328Y-126091137D01*
X167289293Y-126088616D01*
X167332770Y-126071401D01*
X167338276Y-126069516D01*
X167383191Y-126056468D01*
X167400515Y-126046221D01*
X167417983Y-126037663D01*
X167436703Y-126030253D01*
X167474542Y-126002759D01*
X167479391Y-125999574D01*
X167519656Y-125975763D01*
X167533897Y-125961520D01*
X167548678Y-125948897D01*
X167564967Y-125937063D01*
X167564969Y-125937059D01*
X167564971Y-125937059D01*
X167576845Y-125922703D01*
X167594776Y-125901028D01*
X167598689Y-125896728D01*
X169133600Y-124361819D01*
X169194923Y-124328334D01*
X169221281Y-124325500D01*
X175431033Y-124325500D01*
X175446681Y-124327227D01*
X175446708Y-124326946D01*
X175454475Y-124327680D01*
X175454476Y-124327679D01*
X175454477Y-124327680D01*
X175523860Y-124325500D01*
X175553476Y-124325500D01*
X175560378Y-124324627D01*
X175566190Y-124324169D01*
X175612943Y-124322701D01*
X175632272Y-124317084D01*
X175651328Y-124313137D01*
X175671293Y-124310616D01*
X175714770Y-124293401D01*
X175720276Y-124291516D01*
X175765191Y-124278468D01*
X175782515Y-124268221D01*
X175799983Y-124259663D01*
X175818703Y-124252253D01*
X175856542Y-124224759D01*
X175861391Y-124221574D01*
X175901656Y-124197763D01*
X175915897Y-124183520D01*
X175930678Y-124170897D01*
X175946967Y-124159063D01*
X175946969Y-124159059D01*
X175946971Y-124159059D01*
X175962763Y-124139968D01*
X175976776Y-124123028D01*
X175980689Y-124118728D01*
X178439043Y-121660374D01*
X178451325Y-121650537D01*
X178451144Y-121650318D01*
X178457152Y-121645346D01*
X178457162Y-121645340D01*
X178504677Y-121594741D01*
X178525623Y-121573796D01*
X178529892Y-121568290D01*
X178533676Y-121563859D01*
X178565693Y-121529767D01*
X178575389Y-121512128D01*
X178586073Y-121495861D01*
X178598408Y-121479962D01*
X178616978Y-121437046D01*
X178619534Y-121431827D01*
X178642072Y-121390834D01*
X178647078Y-121371334D01*
X178653382Y-121352924D01*
X178661373Y-121334459D01*
X178668687Y-121288280D01*
X178669868Y-121282570D01*
X178681500Y-121237272D01*
X178681500Y-121217135D01*
X178683027Y-121197735D01*
X178686174Y-121177867D01*
X178681775Y-121131329D01*
X178681500Y-121125491D01*
X178681500Y-114382964D01*
X178683228Y-114367313D01*
X178682946Y-114367287D01*
X178683680Y-114359524D01*
X178681500Y-114290140D01*
X178681500Y-114260530D01*
X178681500Y-114260524D01*
X178680626Y-114253607D01*
X178680169Y-114247792D01*
X178679364Y-114222174D01*
X178678701Y-114201058D01*
X178673082Y-114181718D01*
X178669139Y-114162685D01*
X178666616Y-114142707D01*
X178649403Y-114099234D01*
X178647514Y-114093713D01*
X178634467Y-114048807D01*
X178624225Y-114031489D01*
X178615662Y-114014011D01*
X178608253Y-113995297D01*
X178608253Y-113995296D01*
X178580771Y-113957472D01*
X178577567Y-113952596D01*
X178553763Y-113912344D01*
X178553761Y-113912342D01*
X178553759Y-113912339D01*
X178539531Y-113898112D01*
X178526896Y-113883320D01*
X178515063Y-113867033D01*
X178515060Y-113867031D01*
X178515060Y-113867030D01*
X178515059Y-113867029D01*
X178479035Y-113837228D01*
X178474713Y-113833294D01*
X176939819Y-112298400D01*
X176906334Y-112237077D01*
X176903500Y-112210719D01*
X176903500Y-111023513D01*
X176923185Y-110956474D01*
X176975989Y-110910719D01*
X177045147Y-110900775D01*
X177108703Y-110929800D01*
X177139882Y-110971109D01*
X177210899Y-111123407D01*
X177210900Y-111123409D01*
X177256258Y-111188187D01*
X177923096Y-110521349D01*
X177923051Y-110521898D01*
X177954266Y-110645162D01*
X178023813Y-110751612D01*
X178124157Y-110829713D01*
X178244422Y-110871000D01*
X178280553Y-110871000D01*
X177609811Y-111541741D01*
X177674582Y-111587094D01*
X177674592Y-111587100D01*
X177874715Y-111680419D01*
X177874729Y-111680424D01*
X178088013Y-111737573D01*
X178088023Y-111737575D01*
X178307999Y-111756821D01*
X178308001Y-111756821D01*
X178527976Y-111737575D01*
X178527986Y-111737573D01*
X178741270Y-111680424D01*
X178741284Y-111680419D01*
X178941408Y-111587100D01*
X178941420Y-111587093D01*
X179006186Y-111541742D01*
X179006187Y-111541740D01*
X178335448Y-110871000D01*
X178339569Y-110871000D01*
X178433421Y-110855339D01*
X178545251Y-110794820D01*
X178631371Y-110701269D01*
X178682448Y-110584823D01*
X178688105Y-110516552D01*
X179359740Y-111188187D01*
X179359742Y-111188186D01*
X179405093Y-111123420D01*
X179405100Y-111123408D01*
X179498419Y-110923284D01*
X179498424Y-110923270D01*
X179555573Y-110709986D01*
X179555575Y-110709976D01*
X179574821Y-110490000D01*
X179574821Y-110489999D01*
X179555575Y-110270023D01*
X179555573Y-110270013D01*
X179498424Y-110056729D01*
X179498420Y-110056720D01*
X179405098Y-109856590D01*
X179359740Y-109791811D01*
X178692903Y-110458648D01*
X178692949Y-110458102D01*
X178661734Y-110334838D01*
X178592187Y-110228388D01*
X178491843Y-110150287D01*
X178371578Y-110109000D01*
X178335447Y-110109000D01*
X179006187Y-109438258D01*
X178941409Y-109392900D01*
X178941407Y-109392899D01*
X178812219Y-109332658D01*
X178759779Y-109286486D01*
X178740627Y-109219293D01*
X178760843Y-109152411D01*
X178812219Y-109107894D01*
X178841725Y-109094135D01*
X178941662Y-109047534D01*
X179122620Y-108920826D01*
X179278826Y-108764620D01*
X179405534Y-108583662D01*
X179498894Y-108383450D01*
X179556070Y-108170068D01*
X179575323Y-107950000D01*
X179556070Y-107729932D01*
X179544890Y-107688207D01*
X179546553Y-107618357D01*
X179576982Y-107568435D01*
X180217043Y-106928374D01*
X180229325Y-106918537D01*
X180229144Y-106918318D01*
X180235152Y-106913346D01*
X180235162Y-106913340D01*
X180282677Y-106862741D01*
X180303623Y-106841796D01*
X180307892Y-106836290D01*
X180311676Y-106831859D01*
X180343693Y-106797767D01*
X180353389Y-106780128D01*
X180364071Y-106763864D01*
X180372027Y-106753608D01*
X180428672Y-106712707D01*
X180498439Y-106708922D01*
X180559177Y-106743457D01*
X180591602Y-106805348D01*
X180594000Y-106829617D01*
X180594000Y-126622000D01*
X180574315Y-126689039D01*
X180521511Y-126734794D01*
X180470000Y-126746000D01*
X127378000Y-126746000D01*
X127310961Y-126726315D01*
X127265206Y-126673511D01*
X127254000Y-126622000D01*
X127254000Y-122050844D01*
X138623000Y-122050844D01*
X138629401Y-122110372D01*
X138629403Y-122110379D01*
X138679645Y-122245086D01*
X138679649Y-122245093D01*
X138765809Y-122360187D01*
X138765812Y-122360190D01*
X138880906Y-122446350D01*
X138880913Y-122446354D01*
X139015620Y-122496596D01*
X139015627Y-122496598D01*
X139075155Y-122502999D01*
X139075172Y-122503000D01*
X139958000Y-122503000D01*
X139958000Y-121447646D01*
X140055284Y-121487943D01*
X140169656Y-121503000D01*
X140246344Y-121503000D01*
X140360716Y-121487943D01*
X140458000Y-121447646D01*
X140458000Y-122503000D01*
X141340828Y-122503000D01*
X141340844Y-122502999D01*
X141400372Y-122496598D01*
X141400379Y-122496596D01*
X141535086Y-122446354D01*
X141535093Y-122446350D01*
X141650187Y-122360190D01*
X141650190Y-122360187D01*
X141736350Y-122245093D01*
X141736354Y-122245086D01*
X141786596Y-122110379D01*
X141786598Y-122110372D01*
X141792999Y-122050844D01*
X141793000Y-122050827D01*
X141793000Y-121168000D01*
X140737647Y-121168000D01*
X140777943Y-121070716D01*
X140798048Y-120918000D01*
X140777943Y-120765284D01*
X140737647Y-120668000D01*
X141793000Y-120668000D01*
X141793000Y-119785172D01*
X141792999Y-119785155D01*
X141786598Y-119725627D01*
X141786596Y-119725620D01*
X141736354Y-119590913D01*
X141736350Y-119590906D01*
X141650190Y-119475812D01*
X141650187Y-119475809D01*
X141535093Y-119389649D01*
X141535086Y-119389645D01*
X141400379Y-119339403D01*
X141400372Y-119339401D01*
X141340844Y-119333000D01*
X140458000Y-119333000D01*
X140458000Y-120388353D01*
X140360716Y-120348057D01*
X140246344Y-120333000D01*
X140169656Y-120333000D01*
X140055284Y-120348057D01*
X139958000Y-120388353D01*
X139958000Y-119333000D01*
X139075155Y-119333000D01*
X139015627Y-119339401D01*
X139015620Y-119339403D01*
X138880913Y-119389645D01*
X138880906Y-119389649D01*
X138765812Y-119475809D01*
X138765809Y-119475812D01*
X138679649Y-119590906D01*
X138679645Y-119590913D01*
X138629403Y-119725620D01*
X138629401Y-119725627D01*
X138623000Y-119785155D01*
X138623000Y-120668000D01*
X139678353Y-120668000D01*
X139638057Y-120765284D01*
X139617952Y-120918000D01*
X139638057Y-121070716D01*
X139678353Y-121168000D01*
X138623000Y-121168000D01*
X138623000Y-122050844D01*
X127254000Y-122050844D01*
X127254000Y-72390006D01*
X146168700Y-72390006D01*
X146187864Y-72621297D01*
X146187866Y-72621308D01*
X146244842Y-72846300D01*
X146338075Y-73058848D01*
X146465016Y-73253147D01*
X146465019Y-73253151D01*
X146465021Y-73253153D01*
X146559803Y-73356114D01*
X146590724Y-73418767D01*
X146582864Y-73488193D01*
X146538716Y-73542348D01*
X146511906Y-73556277D01*
X146431669Y-73586203D01*
X146431664Y-73586206D01*
X146316455Y-73672452D01*
X146316452Y-73672455D01*
X146230206Y-73787664D01*
X146230202Y-73787671D01*
X146179908Y-73922517D01*
X146173501Y-73982116D01*
X146173501Y-73982123D01*
X146173500Y-73982135D01*
X146173500Y-75877870D01*
X146173501Y-75877876D01*
X146179908Y-75937483D01*
X146230202Y-76072328D01*
X146230206Y-76072335D01*
X146316452Y-76187544D01*
X146316455Y-76187547D01*
X146431664Y-76273793D01*
X146431671Y-76273797D01*
X146566517Y-76324091D01*
X146566516Y-76324091D01*
X146573444Y-76324835D01*
X146626127Y-76330500D01*
X148521872Y-76330499D01*
X148581483Y-76324091D01*
X148716331Y-76273796D01*
X148831546Y-76187546D01*
X148917796Y-76072331D01*
X148968091Y-75937483D01*
X148974500Y-75877873D01*
X148974499Y-73982128D01*
X148968091Y-73922517D01*
X148917796Y-73787669D01*
X148917795Y-73787668D01*
X148917793Y-73787664D01*
X148831547Y-73672455D01*
X148831544Y-73672452D01*
X148716335Y-73586206D01*
X148716328Y-73586202D01*
X148636094Y-73556277D01*
X148580160Y-73514406D01*
X148555743Y-73448941D01*
X148570595Y-73380668D01*
X148588190Y-73356121D01*
X148682979Y-73253153D01*
X148809924Y-73058849D01*
X148903157Y-72846300D01*
X148960134Y-72621305D01*
X148979300Y-72390006D01*
X158868700Y-72390006D01*
X158887864Y-72621297D01*
X158887866Y-72621308D01*
X158944842Y-72846300D01*
X159038075Y-73058848D01*
X159165016Y-73253147D01*
X159165019Y-73253151D01*
X159165021Y-73253153D01*
X159259803Y-73356114D01*
X159290724Y-73418767D01*
X159282864Y-73488193D01*
X159238716Y-73542348D01*
X159211906Y-73556277D01*
X159131669Y-73586203D01*
X159131664Y-73586206D01*
X159016455Y-73672452D01*
X159016452Y-73672455D01*
X158930206Y-73787664D01*
X158930202Y-73787671D01*
X158879908Y-73922517D01*
X158873501Y-73982116D01*
X158873501Y-73982123D01*
X158873500Y-73982135D01*
X158873500Y-75877870D01*
X158873501Y-75877876D01*
X158879908Y-75937483D01*
X158930202Y-76072328D01*
X158930206Y-76072335D01*
X159016452Y-76187544D01*
X159016455Y-76187547D01*
X159131664Y-76273793D01*
X159131671Y-76273797D01*
X159266517Y-76324091D01*
X159266516Y-76324091D01*
X159273444Y-76324835D01*
X159326127Y-76330500D01*
X161221872Y-76330499D01*
X161281483Y-76324091D01*
X161416331Y-76273796D01*
X161531546Y-76187546D01*
X161617796Y-76072331D01*
X161668091Y-75937483D01*
X161674500Y-75877873D01*
X161674499Y-73982128D01*
X161668091Y-73922517D01*
X161617796Y-73787669D01*
X161617795Y-73787668D01*
X161617793Y-73787664D01*
X161531547Y-73672455D01*
X161531544Y-73672452D01*
X161416335Y-73586206D01*
X161416328Y-73586202D01*
X161336094Y-73556277D01*
X161280160Y-73514406D01*
X161255743Y-73448941D01*
X161270595Y-73380668D01*
X161288190Y-73356121D01*
X161382979Y-73253153D01*
X161509924Y-73058849D01*
X161603157Y-72846300D01*
X161660134Y-72621305D01*
X161679300Y-72390000D01*
X161679300Y-72389993D01*
X161660135Y-72158702D01*
X161660133Y-72158691D01*
X161603157Y-71933699D01*
X161509924Y-71721151D01*
X161382983Y-71526852D01*
X161382980Y-71526849D01*
X161382979Y-71526847D01*
X161225784Y-71356087D01*
X161225779Y-71356083D01*
X161225777Y-71356081D01*
X161042634Y-71213535D01*
X161042628Y-71213531D01*
X160838504Y-71103064D01*
X160838495Y-71103061D01*
X160618984Y-71027702D01*
X160447282Y-70999050D01*
X160390049Y-70989500D01*
X160157951Y-70989500D01*
X160112164Y-70997140D01*
X159929015Y-71027702D01*
X159709504Y-71103061D01*
X159709495Y-71103064D01*
X159505371Y-71213531D01*
X159505365Y-71213535D01*
X159322222Y-71356081D01*
X159322219Y-71356084D01*
X159165016Y-71526852D01*
X159038075Y-71721151D01*
X158944842Y-71933699D01*
X158887866Y-72158691D01*
X158887864Y-72158702D01*
X158868700Y-72389993D01*
X158868700Y-72390006D01*
X148979300Y-72390006D01*
X148979300Y-72390000D01*
X148979300Y-72389993D01*
X148960135Y-72158702D01*
X148960133Y-72158691D01*
X148903157Y-71933699D01*
X148809924Y-71721151D01*
X148682983Y-71526852D01*
X148682980Y-71526849D01*
X148682979Y-71526847D01*
X148525784Y-71356087D01*
X148525779Y-71356083D01*
X148525777Y-71356081D01*
X148342634Y-71213535D01*
X148342628Y-71213531D01*
X148138504Y-71103064D01*
X148138495Y-71103061D01*
X147918984Y-71027702D01*
X147747282Y-70999050D01*
X147690049Y-70989500D01*
X147457951Y-70989500D01*
X147412164Y-70997140D01*
X147229015Y-71027702D01*
X147009504Y-71103061D01*
X147009495Y-71103064D01*
X146805371Y-71213531D01*
X146805365Y-71213535D01*
X146622222Y-71356081D01*
X146622219Y-71356084D01*
X146465016Y-71526852D01*
X146338075Y-71721151D01*
X146244842Y-71933699D01*
X146187866Y-72158691D01*
X146187864Y-72158702D01*
X146168700Y-72389993D01*
X146168700Y-72390006D01*
X127254000Y-72390006D01*
X127254000Y-45847000D01*
X146934047Y-45847000D01*
X146951835Y-46107072D01*
X146951836Y-46107074D01*
X147004869Y-46362287D01*
X147004874Y-46362304D01*
X147092168Y-46607923D01*
X147092169Y-46607926D01*
X147092170Y-46607927D01*
X147212099Y-46839381D01*
X147362428Y-47052348D01*
X147362432Y-47052352D01*
X147362432Y-47052353D01*
X147428562Y-47123160D01*
X147540356Y-47242862D01*
X147742568Y-47407374D01*
X147852527Y-47474242D01*
X147965304Y-47542823D01*
X148204391Y-47646672D01*
X148204396Y-47646674D01*
X148455409Y-47717005D01*
X148713657Y-47752499D01*
X148713658Y-47752500D01*
X148713660Y-47752500D01*
X159134342Y-47752500D01*
X159134342Y-47752499D01*
X159392591Y-47717005D01*
X159643604Y-47646674D01*
X159765266Y-47593829D01*
X159882695Y-47542823D01*
X159882698Y-47542821D01*
X159882703Y-47542819D01*
X160105432Y-47407374D01*
X160307644Y-47242862D01*
X160485572Y-47052348D01*
X160635901Y-46839381D01*
X160755830Y-46607927D01*
X160843127Y-46362299D01*
X160843128Y-46362292D01*
X160843130Y-46362287D01*
X160869688Y-46234482D01*
X160896164Y-46107072D01*
X160913953Y-45847000D01*
X160896164Y-45586928D01*
X160869688Y-45459518D01*
X160843130Y-45331712D01*
X160843125Y-45331695D01*
X160755831Y-45086076D01*
X160755830Y-45086073D01*
X160635901Y-44854619D01*
X160485572Y-44641652D01*
X160485567Y-44641646D01*
X160397246Y-44547078D01*
X160307644Y-44451138D01*
X160105432Y-44286626D01*
X160105431Y-44286625D01*
X159882695Y-44151176D01*
X159643608Y-44047327D01*
X159392596Y-43976996D01*
X159392588Y-43976994D01*
X159134342Y-43941500D01*
X159134340Y-43941500D01*
X159004099Y-43941500D01*
X148844500Y-43941500D01*
X148844000Y-43941500D01*
X148713660Y-43941500D01*
X148713658Y-43941500D01*
X148455411Y-43976994D01*
X148455403Y-43976996D01*
X148204391Y-44047327D01*
X147965304Y-44151176D01*
X147742568Y-44286625D01*
X147540359Y-44451135D01*
X147362432Y-44641646D01*
X147362432Y-44641647D01*
X147212099Y-44854618D01*
X147092168Y-45086076D01*
X147004874Y-45331695D01*
X147004869Y-45331712D01*
X146951836Y-45586925D01*
X146951835Y-45586927D01*
X146934047Y-45847000D01*
X127254000Y-45847000D01*
X127254000Y-41780000D01*
X127273685Y-41712961D01*
X127326489Y-41667206D01*
X127378000Y-41656000D01*
X180470000Y-41656000D01*
X180537039Y-41675685D01*
G37*
%TD.AperFunction*%
%TA.AperFunction,Conductor*%
G36*
X177108703Y-108390985D02*
G01*
X177139881Y-108432292D01*
X177155709Y-108466234D01*
X177210466Y-108583662D01*
X177210468Y-108583666D01*
X177337170Y-108764615D01*
X177337175Y-108764621D01*
X177493378Y-108920824D01*
X177493384Y-108920829D01*
X177674333Y-109047531D01*
X177674335Y-109047532D01*
X177674338Y-109047534D01*
X177774275Y-109094135D01*
X177803781Y-109107894D01*
X177856220Y-109154066D01*
X177875372Y-109221260D01*
X177855156Y-109288141D01*
X177803781Y-109332658D01*
X177674586Y-109392903D01*
X177609812Y-109438257D01*
X177609811Y-109438258D01*
X178280554Y-110109000D01*
X178276431Y-110109000D01*
X178182579Y-110124661D01*
X178070749Y-110185180D01*
X177984629Y-110278731D01*
X177933552Y-110395177D01*
X177927894Y-110463447D01*
X177256258Y-109791811D01*
X177256257Y-109791812D01*
X177210903Y-109856586D01*
X177139882Y-110008891D01*
X177093710Y-110061330D01*
X177026516Y-110080482D01*
X176959635Y-110060266D01*
X176914300Y-110007101D01*
X176903500Y-109956486D01*
X176903500Y-108484698D01*
X176923185Y-108417659D01*
X176975989Y-108371904D01*
X177045147Y-108361960D01*
X177108703Y-108390985D01*
G37*
%TD.AperFunction*%
%TD*%
M02*
