M48
; DRILL file {KiCad 7.0.9} date Mon Dec 18 18:13:47 2023
; FORMAT={-:-/ absolute / inch / decimal}
; #@! TF.CreationDate,2023-12-18T18:13:47+05:30
; #@! TF.GenerationSoftware,Kicad,Pcbnew,7.0.9
; #@! TF.FileFunction,MixedPlating,1,2
FMAT,2
INCH
; #@! TA.AperFunction,Plated,PTH,ViaDrill
T1C0.0157
; #@! TA.AperFunction,Plated,PTH,ComponentDrill
T2C0.0217
; #@! TA.AperFunction,Plated,PTH,ComponentDrill
T3C0.0300
; #@! TA.AperFunction,Plated,PTH,ComponentDrill
T4C0.0315
; #@! TA.AperFunction,Plated,PTH,ComponentDrill
T5C0.0354
; #@! TA.AperFunction,Plated,PTH,ComponentDrill
T6C0.0461
; #@! TA.AperFunction,Plated,PTH,ComponentDrill
T7C0.0591
%
G90
G05
T1
X6.62Y-4.35
T2
X6.52Y-4.35
X6.52Y-4.4
X6.52Y-4.45
T3
X6.72Y-4.05
X6.72Y-4.15
X6.72Y-4.25
X6.72Y-4.35
X7.02Y-4.05
X7.02Y-4.15
X7.02Y-4.25
X7.02Y-4.35
T4
X6.07Y-4.1731
X6.07Y-4.4731
X6.07Y-4.5731
X6.07Y-4.8731
X6.15Y-3.95
X6.15Y-4.0287
X6.22Y-4.1731
X6.22Y-4.4731
X6.22Y-4.5731
X6.22Y-4.8731
X6.37Y-4.1731
X6.37Y-4.4731
X6.37Y-4.5731
X6.37Y-4.8731
X6.52Y-3.9516
X6.52Y-4.05
X6.52Y-4.5731
X6.52Y-4.8731
T5
X5.81Y-2.85
X5.81Y-2.95
X6.31Y-2.85
X6.31Y-2.95
X6.84Y-4.61
X6.84Y-4.7084
X6.84Y-4.8069
T6
X5.52Y-4.7606
T7
X5.52Y-3.9731
T0
M30
