%TF.GenerationSoftware,KiCad,Pcbnew,7.0.9*%
%TF.CreationDate,2023-12-18T18:13:51+05:30*%
%TF.ProjectId,555Badge,35353542-6164-4676-952e-6b696361645f,v01*%
%TF.SameCoordinates,Original*%
%TF.FileFunction,Copper,L2,Bot*%
%TF.FilePolarity,Positive*%
%FSLAX46Y46*%
G04 Gerber Fmt 4.6, Leading zero omitted, Abs format (unit mm)*
G04 Created by KiCad (PCBNEW 7.0.9) date 2023-12-18 18:13:51*
%MOMM*%
%LPD*%
G01*
G04 APERTURE LIST*
%ADD10C,0.375000*%
%TA.AperFunction,NonConductor*%
%ADD11C,0.375000*%
%TD*%
%TA.AperFunction,ComponentPad*%
%ADD12R,1.600000X1.600000*%
%TD*%
%TA.AperFunction,ComponentPad*%
%ADD13C,1.600000*%
%TD*%
%TA.AperFunction,ComponentPad*%
%ADD14R,1.500000X1.000000*%
%TD*%
%TA.AperFunction,ComponentPad*%
%ADD15O,1.500000X1.000000*%
%TD*%
%TA.AperFunction,ComponentPad*%
%ADD16O,1.600000X1.600000*%
%TD*%
%TA.AperFunction,ComponentPad*%
%ADD17C,1.524000*%
%TD*%
%TA.AperFunction,ComponentPad*%
%ADD18R,1.800000X1.800000*%
%TD*%
%TA.AperFunction,ComponentPad*%
%ADD19C,1.800000*%
%TD*%
%TA.AperFunction,ComponentPad*%
%ADD20R,2.170000X2.170000*%
%TD*%
%TA.AperFunction,ComponentPad*%
%ADD21C,2.500000*%
%TD*%
%TA.AperFunction,ComponentPad*%
%ADD22R,1.900000X1.900000*%
%TD*%
%TA.AperFunction,ComponentPad*%
%ADD23C,1.900000*%
%TD*%
%TA.AperFunction,ViaPad*%
%ADD24C,0.800000*%
%TD*%
%TA.AperFunction,Conductor*%
%ADD25C,0.254000*%
%TD*%
G04 APERTURE END LIST*
D10*
D11*
X180133004Y-125542928D02*
X179775861Y-126542928D01*
X179775861Y-126542928D02*
X179418718Y-125542928D01*
X178561575Y-125042928D02*
X178418718Y-125042928D01*
X178418718Y-125042928D02*
X178275861Y-125114357D01*
X178275861Y-125114357D02*
X178204433Y-125185785D01*
X178204433Y-125185785D02*
X178133004Y-125328642D01*
X178133004Y-125328642D02*
X178061575Y-125614357D01*
X178061575Y-125614357D02*
X178061575Y-125971500D01*
X178061575Y-125971500D02*
X178133004Y-126257214D01*
X178133004Y-126257214D02*
X178204433Y-126400071D01*
X178204433Y-126400071D02*
X178275861Y-126471500D01*
X178275861Y-126471500D02*
X178418718Y-126542928D01*
X178418718Y-126542928D02*
X178561575Y-126542928D01*
X178561575Y-126542928D02*
X178704433Y-126471500D01*
X178704433Y-126471500D02*
X178775861Y-126400071D01*
X178775861Y-126400071D02*
X178847290Y-126257214D01*
X178847290Y-126257214D02*
X178918718Y-125971500D01*
X178918718Y-125971500D02*
X178918718Y-125614357D01*
X178918718Y-125614357D02*
X178847290Y-125328642D01*
X178847290Y-125328642D02*
X178775861Y-125185785D01*
X178775861Y-125185785D02*
X178704433Y-125114357D01*
X178704433Y-125114357D02*
X178561575Y-125042928D01*
X176633004Y-126542928D02*
X177490147Y-126542928D01*
X177061576Y-126542928D02*
X177061576Y-125042928D01*
X177061576Y-125042928D02*
X177204433Y-125257214D01*
X177204433Y-125257214D02*
X177347290Y-125400071D01*
X177347290Y-125400071D02*
X177490147Y-125471500D01*
D12*
%TO.P,C1,1*%
%TO.N,Net-(U1-THRESH)*%
X156210000Y-102330000D03*
D13*
%TO.P,C1,2*%
%TO.N,GND*%
X156210000Y-100330000D03*
%TD*%
D14*
%TO.P,Q1,1,E*%
%TO.N,GND*%
X165608000Y-110490000D03*
D15*
%TO.P,Q1,2,B*%
%TO.N,Net-(Q1-B)*%
X165608000Y-111760000D03*
%TO.P,Q1,3,C*%
%TO.N,Net-(D1-K)*%
X165608000Y-113030000D03*
%TD*%
D13*
%TO.P,R6,1*%
%TO.N,VCC*%
X161798000Y-113618000D03*
D16*
%TO.P,R6,2*%
%TO.N,Net-(D1-A)*%
X161798000Y-105998000D03*
%TD*%
D12*
%TO.P,C2,1*%
%TO.N,Net-(C2-Pad1)*%
X165608000Y-102870000D03*
D13*
%TO.P,C2,2*%
%TO.N,GND*%
X165608000Y-100370000D03*
%TD*%
%TO.P,R7,1*%
%TO.N,VCC*%
X165608000Y-123778000D03*
D16*
%TO.P,R7,2*%
%TO.N,Net-(D2-A)*%
X165608000Y-116158000D03*
%TD*%
D13*
%TO.P,R3,1*%
%TO.N,Net-(U1-OUT)*%
X157988000Y-123778000D03*
D16*
%TO.P,R3,2*%
%TO.N,Net-(C2-Pad1)*%
X157988000Y-116158000D03*
%TD*%
D17*
%TO.P,U1,1,GND*%
%TO.N,GND*%
X178308000Y-110490000D03*
%TO.P,U1,2,~{TRIG}*%
%TO.N,Net-(U1-THRESH)*%
X178308000Y-107950000D03*
%TO.P,U1,3,OUT*%
%TO.N,Net-(U1-OUT)*%
X178308000Y-105410000D03*
%TO.P,U1,4,~{RST}*%
%TO.N,VCC*%
X178308000Y-102870000D03*
%TO.P,U1,5,CV*%
%TO.N,unconnected-(U1-CV-Pad5)*%
X170688000Y-102870000D03*
%TO.P,U1,6,THRESH*%
%TO.N,Net-(U1-THRESH)*%
X170688000Y-105410000D03*
%TO.P,U1,7,DIS*%
%TO.N,Net-(U1-DIS)*%
X170688000Y-107950000D03*
%TO.P,U1,8,VDD*%
%TO.N,VCC*%
X170688000Y-110490000D03*
%TD*%
D13*
%TO.P,R1,1*%
%TO.N,VCC*%
X154178000Y-123778000D03*
D16*
%TO.P,R1,2*%
%TO.N,Net-(U1-DIS)*%
X154178000Y-116158000D03*
%TD*%
D18*
%TO.P,D1,1,K*%
%TO.N,Net-(D1-K)*%
X147574000Y-74930000D03*
D19*
%TO.P,D1,2,A*%
%TO.N,Net-(D1-A)*%
X147574000Y-72390000D03*
%TD*%
D13*
%TO.P,R4,1*%
%TO.N,Net-(C2-Pad1)*%
X157988000Y-113618000D03*
D16*
%TO.P,R4,2*%
%TO.N,GND*%
X157988000Y-105998000D03*
%TD*%
D18*
%TO.P,D2,1,K*%
%TO.N,Net-(D1-K)*%
X160274000Y-74930000D03*
D19*
%TO.P,D2,2,A*%
%TO.N,Net-(D2-A)*%
X160274000Y-72390000D03*
%TD*%
D20*
%TO.P,BAT1,Neg*%
%TO.N,GND*%
X140208000Y-120918000D03*
D21*
%TO.P,BAT1,Pos*%
%TO.N,Net-(BAT1-PadPos)*%
X140208000Y-100918000D03*
%TD*%
D13*
%TO.P,R2,1*%
%TO.N,Net-(U1-DIS)*%
X154178000Y-113618000D03*
D16*
%TO.P,R2,2*%
%TO.N,Net-(U1-THRESH)*%
X154178000Y-105998000D03*
%TD*%
D22*
%TO.P,S1,1*%
%TO.N,Net-(BAT1-PadPos)*%
X173736000Y-117094000D03*
D23*
%TO.P,S1,2*%
%TO.N,VCC*%
X173736000Y-119594000D03*
%TO.P,S1,3*%
%TO.N,unconnected-(S1-Pad3)*%
X173736000Y-122094000D03*
%TD*%
D13*
%TO.P,R5,1*%
%TO.N,Net-(C2-Pad1)*%
X161798000Y-123778000D03*
D16*
%TO.P,R5,2*%
%TO.N,Net-(Q1-B)*%
X161798000Y-116158000D03*
%TD*%
D24*
%TO.N,Net-(D1-K)*%
X168148000Y-110490000D03*
%TD*%
D25*
%TO.N,Net-(C2-Pad1)*%
X157988000Y-113618000D02*
X157988000Y-111506000D01*
X157988000Y-117856000D02*
X161798000Y-121666000D01*
X165608000Y-106172000D02*
X165608000Y-102870000D01*
X161798000Y-121666000D02*
X161798000Y-123778000D01*
X157988000Y-116158000D02*
X157988000Y-117856000D01*
X163322000Y-108458000D02*
X165608000Y-106172000D01*
X161036000Y-108458000D02*
X163322000Y-108458000D01*
X157988000Y-111506000D02*
X161036000Y-108458000D01*
%TO.N,Net-(D1-K)*%
X168148000Y-102870000D02*
X171196000Y-99822000D01*
X167132000Y-74930000D02*
X147574000Y-74930000D01*
X171196000Y-78994000D02*
X167132000Y-74930000D01*
X171196000Y-99822000D02*
X171196000Y-78994000D01*
X168148000Y-110490000D02*
X168148000Y-102870000D01*
%TO.N,Net-(D1-A)*%
X144272000Y-73660000D02*
X144272000Y-75946000D01*
X166878000Y-97536000D02*
X163576000Y-97536000D01*
X145542000Y-72390000D02*
X144272000Y-73660000D01*
X145288000Y-76962000D02*
X165608000Y-76962000D01*
X144272000Y-75946000D02*
X145288000Y-76962000D01*
X147574000Y-72390000D02*
X145542000Y-72390000D01*
X163576000Y-97536000D02*
X161798000Y-99314000D01*
X165608000Y-76962000D02*
X169418000Y-80772000D01*
X161798000Y-99314000D02*
X161798000Y-105998000D01*
X169418000Y-80772000D02*
X169418000Y-94996000D01*
X169418000Y-94996000D02*
X166878000Y-97536000D01*
%TO.N,Net-(D2-A)*%
X167132000Y-114554000D02*
X167132000Y-114634000D01*
X170180000Y-114554000D02*
X167132000Y-114554000D01*
X167894000Y-72390000D02*
X173482000Y-77978000D01*
X167132000Y-114634000D02*
X165608000Y-116158000D01*
X173482000Y-111252000D02*
X170180000Y-114554000D01*
X173482000Y-77978000D02*
X173482000Y-111252000D01*
X160274000Y-72390000D02*
X167894000Y-72390000D01*
%TD*%
%TA.AperFunction,Conductor*%
%TO.N,GND*%
G36*
X180537039Y-41675685D02*
G01*
X180582794Y-41728489D01*
X180594000Y-41780000D01*
X180594000Y-124226127D01*
X180574315Y-124293166D01*
X180521511Y-124338921D01*
X180470000Y-124350127D01*
X175945004Y-124350127D01*
X175945004Y-126622000D01*
X175925319Y-126689039D01*
X175872515Y-126734794D01*
X175821004Y-126746000D01*
X127378000Y-126746000D01*
X127310961Y-126726315D01*
X127265206Y-126673511D01*
X127254000Y-126622000D01*
X127254000Y-123778001D01*
X152872532Y-123778001D01*
X152892364Y-124004686D01*
X152892366Y-124004697D01*
X152951258Y-124224488D01*
X152951261Y-124224497D01*
X153047431Y-124430732D01*
X153047432Y-124430734D01*
X153177954Y-124617141D01*
X153338858Y-124778045D01*
X153338861Y-124778047D01*
X153525266Y-124908568D01*
X153731504Y-125004739D01*
X153951308Y-125063635D01*
X154113230Y-125077801D01*
X154177998Y-125083468D01*
X154178000Y-125083468D01*
X154178002Y-125083468D01*
X154234673Y-125078509D01*
X154404692Y-125063635D01*
X154624496Y-125004739D01*
X154830734Y-124908568D01*
X155017139Y-124778047D01*
X155178047Y-124617139D01*
X155308568Y-124430734D01*
X155404739Y-124224496D01*
X155463635Y-124004692D01*
X155483468Y-123778001D01*
X156682532Y-123778001D01*
X156702364Y-124004686D01*
X156702366Y-124004697D01*
X156761258Y-124224488D01*
X156761261Y-124224497D01*
X156857431Y-124430732D01*
X156857432Y-124430734D01*
X156987954Y-124617141D01*
X157148858Y-124778045D01*
X157148861Y-124778047D01*
X157335266Y-124908568D01*
X157541504Y-125004739D01*
X157761308Y-125063635D01*
X157923230Y-125077801D01*
X157987998Y-125083468D01*
X157988000Y-125083468D01*
X157988002Y-125083468D01*
X158044673Y-125078509D01*
X158214692Y-125063635D01*
X158434496Y-125004739D01*
X158640734Y-124908568D01*
X158827139Y-124778047D01*
X158988047Y-124617139D01*
X159118568Y-124430734D01*
X159214739Y-124224496D01*
X159273635Y-124004692D01*
X159293468Y-123778000D01*
X159273635Y-123551308D01*
X159214739Y-123331504D01*
X159118568Y-123125266D01*
X158988047Y-122938861D01*
X158988045Y-122938858D01*
X158827141Y-122777954D01*
X158640734Y-122647432D01*
X158640732Y-122647431D01*
X158434497Y-122551261D01*
X158434488Y-122551258D01*
X158214697Y-122492366D01*
X158214693Y-122492365D01*
X158214692Y-122492365D01*
X158214691Y-122492364D01*
X158214686Y-122492364D01*
X157988002Y-122472532D01*
X157987998Y-122472532D01*
X157761313Y-122492364D01*
X157761302Y-122492366D01*
X157541511Y-122551258D01*
X157541502Y-122551261D01*
X157335267Y-122647431D01*
X157335265Y-122647432D01*
X157148858Y-122777954D01*
X156987954Y-122938858D01*
X156857432Y-123125265D01*
X156857431Y-123125267D01*
X156761261Y-123331502D01*
X156761258Y-123331511D01*
X156702366Y-123551302D01*
X156702364Y-123551313D01*
X156682532Y-123777998D01*
X156682532Y-123778001D01*
X155483468Y-123778001D01*
X155483468Y-123778000D01*
X155463635Y-123551308D01*
X155404739Y-123331504D01*
X155308568Y-123125266D01*
X155178047Y-122938861D01*
X155178045Y-122938858D01*
X155017141Y-122777954D01*
X154830734Y-122647432D01*
X154830732Y-122647431D01*
X154624497Y-122551261D01*
X154624488Y-122551258D01*
X154404697Y-122492366D01*
X154404693Y-122492365D01*
X154404692Y-122492365D01*
X154404691Y-122492364D01*
X154404686Y-122492364D01*
X154178002Y-122472532D01*
X154177998Y-122472532D01*
X153951313Y-122492364D01*
X153951302Y-122492366D01*
X153731511Y-122551258D01*
X153731502Y-122551261D01*
X153525267Y-122647431D01*
X153525265Y-122647432D01*
X153338858Y-122777954D01*
X153177954Y-122938858D01*
X153047432Y-123125265D01*
X153047431Y-123125267D01*
X152951261Y-123331502D01*
X152951258Y-123331511D01*
X152892366Y-123551302D01*
X152892364Y-123551313D01*
X152872532Y-123777998D01*
X152872532Y-123778001D01*
X127254000Y-123778001D01*
X127254000Y-122050844D01*
X138623000Y-122050844D01*
X138629401Y-122110372D01*
X138629403Y-122110379D01*
X138679645Y-122245086D01*
X138679649Y-122245093D01*
X138765809Y-122360187D01*
X138765812Y-122360190D01*
X138880906Y-122446350D01*
X138880913Y-122446354D01*
X139015620Y-122496596D01*
X139015627Y-122496598D01*
X139075155Y-122502999D01*
X139075172Y-122503000D01*
X139958000Y-122503000D01*
X139958000Y-121447646D01*
X140055284Y-121487943D01*
X140169656Y-121503000D01*
X140246344Y-121503000D01*
X140360716Y-121487943D01*
X140458000Y-121447646D01*
X140458000Y-122503000D01*
X141340828Y-122503000D01*
X141340844Y-122502999D01*
X141400372Y-122496598D01*
X141400379Y-122496596D01*
X141535086Y-122446354D01*
X141535093Y-122446350D01*
X141650187Y-122360190D01*
X141650190Y-122360187D01*
X141736350Y-122245093D01*
X141736354Y-122245086D01*
X141786596Y-122110379D01*
X141786598Y-122110372D01*
X141792999Y-122050844D01*
X141793000Y-122050827D01*
X141793000Y-121168000D01*
X140737647Y-121168000D01*
X140777943Y-121070716D01*
X140798048Y-120918000D01*
X140777943Y-120765284D01*
X140737647Y-120668000D01*
X141793000Y-120668000D01*
X141793000Y-119785172D01*
X141792999Y-119785155D01*
X141786598Y-119725627D01*
X141786596Y-119725620D01*
X141736354Y-119590913D01*
X141736350Y-119590906D01*
X141650190Y-119475812D01*
X141650187Y-119475809D01*
X141535093Y-119389649D01*
X141535086Y-119389645D01*
X141400379Y-119339403D01*
X141400372Y-119339401D01*
X141340844Y-119333000D01*
X140458000Y-119333000D01*
X140458000Y-120388353D01*
X140360716Y-120348057D01*
X140246344Y-120333000D01*
X140169656Y-120333000D01*
X140055284Y-120348057D01*
X139958000Y-120388353D01*
X139958000Y-119333000D01*
X139075155Y-119333000D01*
X139015627Y-119339401D01*
X139015620Y-119339403D01*
X138880913Y-119389645D01*
X138880906Y-119389649D01*
X138765812Y-119475809D01*
X138765809Y-119475812D01*
X138679649Y-119590906D01*
X138679645Y-119590913D01*
X138629403Y-119725620D01*
X138629401Y-119725627D01*
X138623000Y-119785155D01*
X138623000Y-120668000D01*
X139678353Y-120668000D01*
X139638057Y-120765284D01*
X139617952Y-120918000D01*
X139638057Y-121070716D01*
X139678353Y-121168000D01*
X138623000Y-121168000D01*
X138623000Y-122050844D01*
X127254000Y-122050844D01*
X127254000Y-116158001D01*
X152872532Y-116158001D01*
X152892364Y-116384686D01*
X152892366Y-116384697D01*
X152951258Y-116604488D01*
X152951261Y-116604497D01*
X153047431Y-116810732D01*
X153047432Y-116810734D01*
X153177954Y-116997141D01*
X153338858Y-117158045D01*
X153338861Y-117158047D01*
X153525266Y-117288568D01*
X153731504Y-117384739D01*
X153951308Y-117443635D01*
X154113230Y-117457801D01*
X154177998Y-117463468D01*
X154178000Y-117463468D01*
X154178002Y-117463468D01*
X154234673Y-117458509D01*
X154404692Y-117443635D01*
X154624496Y-117384739D01*
X154830734Y-117288568D01*
X155017139Y-117158047D01*
X155178047Y-116997139D01*
X155308568Y-116810734D01*
X155404739Y-116604496D01*
X155463635Y-116384692D01*
X155483468Y-116158001D01*
X156682532Y-116158001D01*
X156702364Y-116384686D01*
X156702366Y-116384697D01*
X156761258Y-116604488D01*
X156761261Y-116604497D01*
X156857431Y-116810732D01*
X156857432Y-116810734D01*
X156987954Y-116997141D01*
X157148858Y-117158045D01*
X157307623Y-117269212D01*
X157351248Y-117323788D01*
X157360500Y-117370787D01*
X157360500Y-117773032D01*
X157358772Y-117788681D01*
X157359054Y-117788708D01*
X157358319Y-117796475D01*
X157360500Y-117865859D01*
X157360500Y-117895477D01*
X157361371Y-117902380D01*
X157361829Y-117908199D01*
X157363298Y-117954942D01*
X157368916Y-117974275D01*
X157372862Y-117993329D01*
X157375383Y-118013287D01*
X157375386Y-118013299D01*
X157392595Y-118056765D01*
X157394487Y-118062293D01*
X157407530Y-118107187D01*
X157407530Y-118107188D01*
X157417777Y-118124515D01*
X157426335Y-118141985D01*
X157433745Y-118160701D01*
X157461229Y-118198529D01*
X157464437Y-118203413D01*
X157488234Y-118243652D01*
X157488240Y-118243660D01*
X157502469Y-118257888D01*
X157515109Y-118272687D01*
X157526934Y-118288964D01*
X157526936Y-118288965D01*
X157526937Y-118288967D01*
X157562957Y-118318765D01*
X157567268Y-118322687D01*
X159531309Y-120286728D01*
X161134181Y-121889600D01*
X161167666Y-121950923D01*
X161170500Y-121977281D01*
X161170500Y-122565212D01*
X161150815Y-122632251D01*
X161117623Y-122666787D01*
X160958858Y-122777954D01*
X160797954Y-122938858D01*
X160667432Y-123125265D01*
X160667431Y-123125267D01*
X160571261Y-123331502D01*
X160571258Y-123331511D01*
X160512366Y-123551302D01*
X160512364Y-123551313D01*
X160492532Y-123777998D01*
X160492532Y-123778001D01*
X160512364Y-124004686D01*
X160512366Y-124004697D01*
X160571258Y-124224488D01*
X160571261Y-124224497D01*
X160667431Y-124430732D01*
X160667432Y-124430734D01*
X160797954Y-124617141D01*
X160958858Y-124778045D01*
X160958861Y-124778047D01*
X161145266Y-124908568D01*
X161351504Y-125004739D01*
X161571308Y-125063635D01*
X161733230Y-125077801D01*
X161797998Y-125083468D01*
X161798000Y-125083468D01*
X161798002Y-125083468D01*
X161854673Y-125078509D01*
X162024692Y-125063635D01*
X162244496Y-125004739D01*
X162450734Y-124908568D01*
X162637139Y-124778047D01*
X162798047Y-124617139D01*
X162928568Y-124430734D01*
X163024739Y-124224496D01*
X163083635Y-124004692D01*
X163103468Y-123778001D01*
X164302532Y-123778001D01*
X164322364Y-124004686D01*
X164322366Y-124004697D01*
X164381258Y-124224488D01*
X164381261Y-124224497D01*
X164477431Y-124430732D01*
X164477432Y-124430734D01*
X164607954Y-124617141D01*
X164768858Y-124778045D01*
X164768861Y-124778047D01*
X164955266Y-124908568D01*
X165161504Y-125004739D01*
X165381308Y-125063635D01*
X165543230Y-125077801D01*
X165607998Y-125083468D01*
X165608000Y-125083468D01*
X165608002Y-125083468D01*
X165664673Y-125078509D01*
X165834692Y-125063635D01*
X166054496Y-125004739D01*
X166260734Y-124908568D01*
X166447139Y-124778047D01*
X166608047Y-124617139D01*
X166738568Y-124430734D01*
X166834739Y-124224496D01*
X166893635Y-124004692D01*
X166913468Y-123778000D01*
X166893635Y-123551308D01*
X166834739Y-123331504D01*
X166738568Y-123125266D01*
X166608047Y-122938861D01*
X166608045Y-122938858D01*
X166447141Y-122777954D01*
X166260734Y-122647432D01*
X166260732Y-122647431D01*
X166054497Y-122551261D01*
X166054488Y-122551258D01*
X165834697Y-122492366D01*
X165834693Y-122492365D01*
X165834692Y-122492365D01*
X165834691Y-122492364D01*
X165834686Y-122492364D01*
X165608002Y-122472532D01*
X165607998Y-122472532D01*
X165381313Y-122492364D01*
X165381302Y-122492366D01*
X165161511Y-122551258D01*
X165161502Y-122551261D01*
X164955267Y-122647431D01*
X164955265Y-122647432D01*
X164768858Y-122777954D01*
X164607954Y-122938858D01*
X164477432Y-123125265D01*
X164477431Y-123125267D01*
X164381261Y-123331502D01*
X164381258Y-123331511D01*
X164322366Y-123551302D01*
X164322364Y-123551313D01*
X164302532Y-123777998D01*
X164302532Y-123778001D01*
X163103468Y-123778001D01*
X163103468Y-123778000D01*
X163083635Y-123551308D01*
X163024739Y-123331504D01*
X162928568Y-123125266D01*
X162798047Y-122938861D01*
X162798045Y-122938858D01*
X162637141Y-122777954D01*
X162478377Y-122666787D01*
X162434752Y-122612210D01*
X162425500Y-122565212D01*
X162425500Y-122094005D01*
X172280529Y-122094005D01*
X172300379Y-122333559D01*
X172359389Y-122566589D01*
X172455951Y-122786729D01*
X172555343Y-122938858D01*
X172587429Y-122987969D01*
X172750236Y-123164825D01*
X172750239Y-123164827D01*
X172750242Y-123164830D01*
X172939924Y-123312466D01*
X172939930Y-123312470D01*
X172939933Y-123312472D01*
X173151344Y-123426882D01*
X173151347Y-123426883D01*
X173378699Y-123504933D01*
X173378701Y-123504933D01*
X173378703Y-123504934D01*
X173615808Y-123544500D01*
X173615809Y-123544500D01*
X173856191Y-123544500D01*
X173856192Y-123544500D01*
X174093297Y-123504934D01*
X174320656Y-123426882D01*
X174532067Y-123312472D01*
X174721764Y-123164825D01*
X174884571Y-122987969D01*
X175016049Y-122786728D01*
X175112610Y-122566591D01*
X175171620Y-122333563D01*
X175190114Y-122110379D01*
X175191471Y-122094005D01*
X175191471Y-122093994D01*
X175171620Y-121854440D01*
X175171620Y-121854437D01*
X175112610Y-121621409D01*
X175016049Y-121401272D01*
X174972899Y-121335227D01*
X174884572Y-121200033D01*
X174884571Y-121200031D01*
X174721764Y-121023175D01*
X174617281Y-120941852D01*
X174576469Y-120885143D01*
X174572794Y-120815370D01*
X174607425Y-120754687D01*
X174617275Y-120746151D01*
X174721764Y-120664825D01*
X174884571Y-120487969D01*
X175016049Y-120286728D01*
X175112610Y-120066591D01*
X175171620Y-119833563D01*
X175191471Y-119594000D01*
X175191215Y-119590913D01*
X175171620Y-119354440D01*
X175171620Y-119354437D01*
X175112610Y-119121409D01*
X175016049Y-118901272D01*
X174884571Y-118700031D01*
X174875240Y-118689895D01*
X174844320Y-118627241D01*
X174852181Y-118557815D01*
X174896328Y-118503660D01*
X174923140Y-118489732D01*
X174928331Y-118487796D01*
X175043546Y-118401546D01*
X175129796Y-118286331D01*
X175180091Y-118151483D01*
X175186500Y-118091873D01*
X175186499Y-116096128D01*
X175180091Y-116036517D01*
X175140852Y-115931313D01*
X175129797Y-115901671D01*
X175129793Y-115901664D01*
X175043547Y-115786455D01*
X175043544Y-115786452D01*
X174928335Y-115700206D01*
X174928328Y-115700202D01*
X174793482Y-115649908D01*
X174793483Y-115649908D01*
X174733883Y-115643501D01*
X174733881Y-115643500D01*
X174733873Y-115643500D01*
X174733864Y-115643500D01*
X172738129Y-115643500D01*
X172738123Y-115643501D01*
X172678516Y-115649908D01*
X172543671Y-115700202D01*
X172543664Y-115700206D01*
X172428455Y-115786452D01*
X172428452Y-115786455D01*
X172342206Y-115901664D01*
X172342202Y-115901671D01*
X172291908Y-116036517D01*
X172285501Y-116096116D01*
X172285501Y-116096123D01*
X172285500Y-116096135D01*
X172285500Y-118091870D01*
X172285501Y-118091876D01*
X172291908Y-118151483D01*
X172342202Y-118286328D01*
X172342206Y-118286335D01*
X172428452Y-118401544D01*
X172428455Y-118401547D01*
X172543664Y-118487793D01*
X172543666Y-118487794D01*
X172543669Y-118487796D01*
X172548856Y-118489730D01*
X172604790Y-118531597D01*
X172629211Y-118597060D01*
X172614364Y-118665334D01*
X172596762Y-118689893D01*
X172587426Y-118700034D01*
X172455951Y-118901270D01*
X172359389Y-119121410D01*
X172300379Y-119354440D01*
X172280529Y-119593994D01*
X172280529Y-119594005D01*
X172300379Y-119833559D01*
X172359389Y-120066589D01*
X172455951Y-120286729D01*
X172486182Y-120333000D01*
X172587429Y-120487969D01*
X172750236Y-120664825D01*
X172854718Y-120746147D01*
X172895531Y-120802857D01*
X172899206Y-120872630D01*
X172864575Y-120933313D01*
X172854724Y-120941848D01*
X172780294Y-120999779D01*
X172750237Y-121023174D01*
X172587430Y-121200029D01*
X172587427Y-121200033D01*
X172455951Y-121401270D01*
X172359389Y-121621410D01*
X172300379Y-121854440D01*
X172280529Y-122093994D01*
X172280529Y-122094005D01*
X162425500Y-122094005D01*
X162425500Y-121748964D01*
X162427228Y-121733313D01*
X162426946Y-121733287D01*
X162427680Y-121725524D01*
X162425500Y-121656140D01*
X162425500Y-121626530D01*
X162425500Y-121626524D01*
X162424626Y-121619607D01*
X162424169Y-121613792D01*
X162422701Y-121567058D01*
X162417082Y-121547718D01*
X162413139Y-121528685D01*
X162410616Y-121508707D01*
X162393403Y-121465234D01*
X162391514Y-121459714D01*
X162378467Y-121414806D01*
X162368220Y-121397480D01*
X162359659Y-121380004D01*
X162352253Y-121361297D01*
X162324773Y-121323474D01*
X162321569Y-121318596D01*
X162297764Y-121278344D01*
X162297761Y-121278341D01*
X162297760Y-121278339D01*
X162283527Y-121264107D01*
X162270891Y-121249314D01*
X162259063Y-121233033D01*
X162259061Y-121233030D01*
X162223042Y-121203233D01*
X162218719Y-121199299D01*
X158651819Y-117632399D01*
X158618334Y-117571076D01*
X158615500Y-117544718D01*
X158615500Y-117370787D01*
X158635185Y-117303748D01*
X158668377Y-117269212D01*
X158827139Y-117158047D01*
X158988047Y-116997139D01*
X159118568Y-116810734D01*
X159214739Y-116604496D01*
X159273635Y-116384692D01*
X159293468Y-116158001D01*
X160492532Y-116158001D01*
X160512364Y-116384686D01*
X160512366Y-116384697D01*
X160571258Y-116604488D01*
X160571261Y-116604497D01*
X160667431Y-116810732D01*
X160667432Y-116810734D01*
X160797954Y-116997141D01*
X160958858Y-117158045D01*
X160958861Y-117158047D01*
X161145266Y-117288568D01*
X161351504Y-117384739D01*
X161571308Y-117443635D01*
X161733230Y-117457801D01*
X161797998Y-117463468D01*
X161798000Y-117463468D01*
X161798002Y-117463468D01*
X161854673Y-117458509D01*
X162024692Y-117443635D01*
X162244496Y-117384739D01*
X162450734Y-117288568D01*
X162637139Y-117158047D01*
X162798047Y-116997139D01*
X162928568Y-116810734D01*
X163024739Y-116604496D01*
X163083635Y-116384692D01*
X163103468Y-116158000D01*
X163083635Y-115931308D01*
X163024739Y-115711504D01*
X162928568Y-115505266D01*
X162798047Y-115318861D01*
X162798045Y-115318858D01*
X162637141Y-115157954D01*
X162450734Y-115027432D01*
X162450728Y-115027429D01*
X162392725Y-115000382D01*
X162340285Y-114954210D01*
X162321133Y-114887017D01*
X162341348Y-114820135D01*
X162392725Y-114775618D01*
X162450734Y-114748568D01*
X162637139Y-114618047D01*
X162798047Y-114457139D01*
X162928568Y-114270734D01*
X163024739Y-114064496D01*
X163083635Y-113844692D01*
X163103468Y-113618000D01*
X163083635Y-113391308D01*
X163024739Y-113171504D01*
X162982506Y-113080936D01*
X164353631Y-113080936D01*
X164384442Y-113282063D01*
X164384445Y-113282075D01*
X164455111Y-113472881D01*
X164455115Y-113472888D01*
X164562745Y-113645567D01*
X164562747Y-113645569D01*
X164562748Y-113645571D01*
X164702941Y-113793053D01*
X164831344Y-113882424D01*
X164869949Y-113909294D01*
X164869950Y-113909294D01*
X164869951Y-113909295D01*
X165056942Y-113989540D01*
X165256259Y-114030500D01*
X165908743Y-114030500D01*
X166060439Y-114015074D01*
X166254579Y-113954162D01*
X166254580Y-113954161D01*
X166254588Y-113954159D01*
X166432502Y-113855409D01*
X166586895Y-113722866D01*
X166711448Y-113561958D01*
X166801060Y-113379271D01*
X166852063Y-113182285D01*
X166862369Y-112979064D01*
X166831556Y-112777929D01*
X166760886Y-112587113D01*
X166682575Y-112461474D01*
X166663821Y-112394170D01*
X166684431Y-112327409D01*
X166689741Y-112320000D01*
X166711448Y-112291958D01*
X166801060Y-112109271D01*
X166852063Y-111912285D01*
X166862369Y-111709064D01*
X166831556Y-111507929D01*
X166776663Y-111359714D01*
X166771840Y-111290013D01*
X166793683Y-111242333D01*
X166801351Y-111232090D01*
X166851597Y-111097376D01*
X166851598Y-111097372D01*
X166857999Y-111037844D01*
X166858000Y-111037827D01*
X166858000Y-110740000D01*
X165728837Y-110740000D01*
X165806264Y-110688264D01*
X165867045Y-110597300D01*
X165888388Y-110490000D01*
X165867045Y-110382700D01*
X165806264Y-110291736D01*
X165715300Y-110230955D01*
X165635088Y-110215000D01*
X165580912Y-110215000D01*
X165500700Y-110230955D01*
X165409736Y-110291736D01*
X165348955Y-110382700D01*
X165327612Y-110490000D01*
X165348955Y-110597300D01*
X165409736Y-110688264D01*
X165487163Y-110740000D01*
X164358000Y-110740000D01*
X164358000Y-111037844D01*
X164364401Y-111097372D01*
X164364403Y-111097379D01*
X164414645Y-111232086D01*
X164414648Y-111232092D01*
X164422272Y-111242276D01*
X164446688Y-111307741D01*
X164434334Y-111371190D01*
X164428892Y-111382285D01*
X164414940Y-111410729D01*
X164414939Y-111410732D01*
X164414938Y-111410732D01*
X164363938Y-111607706D01*
X164363937Y-111607712D01*
X164353631Y-111810936D01*
X164384442Y-112012063D01*
X164384445Y-112012075D01*
X164455111Y-112202881D01*
X164455112Y-112202883D01*
X164455114Y-112202887D01*
X164508330Y-112288265D01*
X164533423Y-112328524D01*
X164552178Y-112395829D01*
X164531568Y-112462590D01*
X164526247Y-112470013D01*
X164504556Y-112498035D01*
X164504551Y-112498043D01*
X164414940Y-112680728D01*
X164363937Y-112877714D01*
X164353631Y-113080936D01*
X162982506Y-113080936D01*
X162928568Y-112965266D01*
X162798047Y-112778861D01*
X162798045Y-112778858D01*
X162637141Y-112617954D01*
X162450734Y-112487432D01*
X162450732Y-112487431D01*
X162244497Y-112391261D01*
X162244488Y-112391258D01*
X162024697Y-112332366D01*
X162024693Y-112332365D01*
X162024692Y-112332365D01*
X162024691Y-112332364D01*
X162024686Y-112332364D01*
X161798002Y-112312532D01*
X161797998Y-112312532D01*
X161571313Y-112332364D01*
X161571302Y-112332366D01*
X161351511Y-112391258D01*
X161351502Y-112391261D01*
X161145267Y-112487431D01*
X161145265Y-112487432D01*
X160958858Y-112617954D01*
X160797954Y-112778858D01*
X160667432Y-112965265D01*
X160667431Y-112965267D01*
X160571261Y-113171502D01*
X160571258Y-113171511D01*
X160512366Y-113391302D01*
X160512364Y-113391313D01*
X160492532Y-113617998D01*
X160492532Y-113618001D01*
X160512364Y-113844686D01*
X160512366Y-113844697D01*
X160571258Y-114064488D01*
X160571261Y-114064497D01*
X160667431Y-114270732D01*
X160667432Y-114270734D01*
X160797954Y-114457141D01*
X160958858Y-114618045D01*
X160958861Y-114618047D01*
X161145266Y-114748568D01*
X161203275Y-114775618D01*
X161255714Y-114821791D01*
X161274866Y-114888984D01*
X161254650Y-114955865D01*
X161203275Y-115000382D01*
X161145267Y-115027431D01*
X161145265Y-115027432D01*
X160958858Y-115157954D01*
X160797954Y-115318858D01*
X160667432Y-115505265D01*
X160667431Y-115505267D01*
X160571261Y-115711502D01*
X160571258Y-115711511D01*
X160512366Y-115931302D01*
X160512364Y-115931313D01*
X160492532Y-116157998D01*
X160492532Y-116158001D01*
X159293468Y-116158001D01*
X159293468Y-116158000D01*
X159273635Y-115931308D01*
X159214739Y-115711504D01*
X159118568Y-115505266D01*
X158988047Y-115318861D01*
X158988045Y-115318858D01*
X158827141Y-115157954D01*
X158640734Y-115027432D01*
X158640728Y-115027429D01*
X158582725Y-115000382D01*
X158530285Y-114954210D01*
X158511133Y-114887017D01*
X158531348Y-114820135D01*
X158582725Y-114775618D01*
X158640734Y-114748568D01*
X158827139Y-114618047D01*
X158988047Y-114457139D01*
X159118568Y-114270734D01*
X159214739Y-114064496D01*
X159273635Y-113844692D01*
X159293468Y-113618000D01*
X159273635Y-113391308D01*
X159214739Y-113171504D01*
X159118568Y-112965266D01*
X158988047Y-112778861D01*
X158988045Y-112778858D01*
X158827141Y-112617954D01*
X158668377Y-112506787D01*
X158624752Y-112452210D01*
X158615500Y-112405212D01*
X158615500Y-111817281D01*
X158635185Y-111750242D01*
X158651819Y-111729600D01*
X160141419Y-110240000D01*
X164358000Y-110240000D01*
X165358000Y-110240000D01*
X165358000Y-109490000D01*
X165858000Y-109490000D01*
X165858000Y-110240000D01*
X166858000Y-110240000D01*
X166858000Y-109942172D01*
X166857999Y-109942155D01*
X166851598Y-109882627D01*
X166851596Y-109882620D01*
X166801354Y-109747913D01*
X166801350Y-109747906D01*
X166715190Y-109632812D01*
X166715187Y-109632809D01*
X166600093Y-109546649D01*
X166600086Y-109546645D01*
X166465379Y-109496403D01*
X166465372Y-109496401D01*
X166405844Y-109490000D01*
X165858000Y-109490000D01*
X165358000Y-109490000D01*
X164810155Y-109490000D01*
X164750627Y-109496401D01*
X164750620Y-109496403D01*
X164615913Y-109546645D01*
X164615906Y-109546649D01*
X164500812Y-109632809D01*
X164500809Y-109632812D01*
X164414649Y-109747906D01*
X164414645Y-109747913D01*
X164364403Y-109882620D01*
X164364401Y-109882627D01*
X164358000Y-109942155D01*
X164358000Y-110240000D01*
X160141419Y-110240000D01*
X161259600Y-109121819D01*
X161320923Y-109088334D01*
X161347281Y-109085500D01*
X163239033Y-109085500D01*
X163254681Y-109087227D01*
X163254708Y-109086946D01*
X163262475Y-109087680D01*
X163262476Y-109087679D01*
X163262477Y-109087680D01*
X163331860Y-109085500D01*
X163361476Y-109085500D01*
X163368378Y-109084627D01*
X163374190Y-109084169D01*
X163420943Y-109082701D01*
X163440272Y-109077084D01*
X163459328Y-109073137D01*
X163479293Y-109070616D01*
X163522770Y-109053401D01*
X163528276Y-109051516D01*
X163573191Y-109038468D01*
X163590515Y-109028221D01*
X163607983Y-109019663D01*
X163626703Y-109012253D01*
X163664542Y-108984759D01*
X163669391Y-108981574D01*
X163709656Y-108957763D01*
X163723897Y-108943520D01*
X163738678Y-108930897D01*
X163754967Y-108919063D01*
X163754969Y-108919059D01*
X163754971Y-108919059D01*
X163766845Y-108904703D01*
X163784776Y-108883028D01*
X163788689Y-108878728D01*
X165993043Y-106674374D01*
X166005325Y-106664537D01*
X166005144Y-106664318D01*
X166011152Y-106659346D01*
X166011162Y-106659340D01*
X166058677Y-106608741D01*
X166079623Y-106587796D01*
X166083892Y-106582290D01*
X166087676Y-106577859D01*
X166119693Y-106543767D01*
X166129389Y-106526128D01*
X166140073Y-106509861D01*
X166152408Y-106493962D01*
X166170978Y-106451046D01*
X166173534Y-106445827D01*
X166196072Y-106404834D01*
X166201081Y-106385322D01*
X166207378Y-106366932D01*
X166215373Y-106348459D01*
X166222689Y-106302257D01*
X166223864Y-106296583D01*
X166235500Y-106251272D01*
X166235500Y-106231141D01*
X166237027Y-106211741D01*
X166240175Y-106191867D01*
X166235775Y-106145321D01*
X166235500Y-106139483D01*
X166235500Y-104294499D01*
X166255185Y-104227460D01*
X166307989Y-104181705D01*
X166359500Y-104170499D01*
X166455871Y-104170499D01*
X166455872Y-104170499D01*
X166515483Y-104164091D01*
X166650331Y-104113796D01*
X166765546Y-104027546D01*
X166851796Y-103912331D01*
X166902091Y-103777483D01*
X166908500Y-103717873D01*
X166908499Y-102022128D01*
X166902091Y-101962517D01*
X166881331Y-101906857D01*
X166851797Y-101827671D01*
X166851793Y-101827664D01*
X166765547Y-101712455D01*
X166765544Y-101712452D01*
X166650335Y-101626206D01*
X166650328Y-101626202D01*
X166515482Y-101575908D01*
X166515483Y-101575908D01*
X166455883Y-101569501D01*
X166455881Y-101569500D01*
X166455873Y-101569500D01*
X166455864Y-101569500D01*
X166452548Y-101569322D01*
X166452627Y-101567847D01*
X166391215Y-101549815D01*
X166345460Y-101497011D01*
X166337969Y-101453522D01*
X165652401Y-100767953D01*
X165733148Y-100755165D01*
X165846045Y-100697641D01*
X165935641Y-100608045D01*
X165993165Y-100495148D01*
X166005953Y-100414400D01*
X166687025Y-101095472D01*
X166738136Y-101022478D01*
X166834264Y-100816331D01*
X166834269Y-100816317D01*
X166893139Y-100596610D01*
X166893141Y-100596599D01*
X166912966Y-100370002D01*
X166912966Y-100369997D01*
X166893141Y-100143400D01*
X166893139Y-100143389D01*
X166834269Y-99923682D01*
X166834265Y-99923673D01*
X166738133Y-99717516D01*
X166738131Y-99717512D01*
X166687026Y-99644526D01*
X166687025Y-99644526D01*
X166005953Y-100325598D01*
X165993165Y-100244852D01*
X165935641Y-100131955D01*
X165846045Y-100042359D01*
X165733148Y-99984835D01*
X165652400Y-99972046D01*
X166333472Y-99290974D01*
X166333471Y-99290973D01*
X166260483Y-99239866D01*
X166260481Y-99239865D01*
X166054326Y-99143734D01*
X166054317Y-99143730D01*
X165834610Y-99084860D01*
X165834599Y-99084858D01*
X165608002Y-99065034D01*
X165607998Y-99065034D01*
X165381400Y-99084858D01*
X165381389Y-99084860D01*
X165161682Y-99143730D01*
X165161673Y-99143734D01*
X164955513Y-99239868D01*
X164882527Y-99290972D01*
X164882526Y-99290973D01*
X165563600Y-99972046D01*
X165482852Y-99984835D01*
X165369955Y-100042359D01*
X165280359Y-100131955D01*
X165222835Y-100244852D01*
X165210046Y-100325599D01*
X164528973Y-99644526D01*
X164528972Y-99644527D01*
X164477868Y-99717513D01*
X164381734Y-99923673D01*
X164381730Y-99923682D01*
X164322860Y-100143389D01*
X164322858Y-100143400D01*
X164303034Y-100369997D01*
X164303034Y-100370002D01*
X164322858Y-100596599D01*
X164322860Y-100596610D01*
X164381730Y-100816317D01*
X164381734Y-100816326D01*
X164477865Y-101022481D01*
X164477866Y-101022483D01*
X164528973Y-101095471D01*
X164528974Y-101095472D01*
X165210046Y-100414399D01*
X165222835Y-100495148D01*
X165280359Y-100608045D01*
X165369955Y-100697641D01*
X165482852Y-100755165D01*
X165563599Y-100767953D01*
X164877351Y-101454200D01*
X164867505Y-101503194D01*
X164818889Y-101553376D01*
X164763367Y-101568048D01*
X164763423Y-101569099D01*
X164763429Y-101569146D01*
X164763426Y-101569146D01*
X164763436Y-101569324D01*
X164760123Y-101569501D01*
X164700516Y-101575908D01*
X164565671Y-101626202D01*
X164565664Y-101626206D01*
X164450455Y-101712452D01*
X164450452Y-101712455D01*
X164364206Y-101827664D01*
X164364202Y-101827671D01*
X164313908Y-101962517D01*
X164307501Y-102022116D01*
X164307501Y-102022123D01*
X164307500Y-102022135D01*
X164307500Y-103717870D01*
X164307501Y-103717876D01*
X164313908Y-103777483D01*
X164364202Y-103912328D01*
X164364206Y-103912335D01*
X164450452Y-104027544D01*
X164450455Y-104027547D01*
X164565664Y-104113793D01*
X164565671Y-104113797D01*
X164577128Y-104118070D01*
X164700517Y-104164091D01*
X164760127Y-104170500D01*
X164856500Y-104170499D01*
X164923538Y-104190183D01*
X164969294Y-104242986D01*
X164980500Y-104294499D01*
X164980500Y-105860719D01*
X164960815Y-105927758D01*
X164944181Y-105948400D01*
X163098400Y-107794181D01*
X163037077Y-107827666D01*
X163010719Y-107830500D01*
X161118967Y-107830500D01*
X161103318Y-107828772D01*
X161103292Y-107829054D01*
X161095524Y-107828319D01*
X161026140Y-107830500D01*
X160996522Y-107830500D01*
X160989618Y-107831371D01*
X160983800Y-107831829D01*
X160937057Y-107833298D01*
X160917713Y-107838918D01*
X160898669Y-107842862D01*
X160895709Y-107843235D01*
X160878707Y-107845384D01*
X160878703Y-107845385D01*
X160878700Y-107845386D01*
X160835235Y-107862594D01*
X160829710Y-107864485D01*
X160784809Y-107877531D01*
X160784806Y-107877533D01*
X160767480Y-107887779D01*
X160750010Y-107896337D01*
X160731298Y-107903745D01*
X160693463Y-107931233D01*
X160688580Y-107934440D01*
X160648346Y-107958234D01*
X160634106Y-107972474D01*
X160619320Y-107985102D01*
X160603033Y-107996936D01*
X160603032Y-107996936D01*
X160573227Y-108032963D01*
X160569295Y-108037285D01*
X157602953Y-111003626D01*
X157590669Y-111013469D01*
X157590849Y-111013687D01*
X157584838Y-111018659D01*
X157537322Y-111069258D01*
X157516375Y-111090205D01*
X157512106Y-111095709D01*
X157508315Y-111100147D01*
X157476308Y-111134230D01*
X157476305Y-111134234D01*
X157466606Y-111151877D01*
X157455928Y-111168133D01*
X157443594Y-111184034D01*
X157443589Y-111184042D01*
X157425025Y-111226943D01*
X157422454Y-111232191D01*
X157399927Y-111273167D01*
X157394920Y-111292668D01*
X157388621Y-111311064D01*
X157381893Y-111326612D01*
X157380625Y-111329544D01*
X157380624Y-111329546D01*
X157373312Y-111375716D01*
X157372127Y-111381438D01*
X157360500Y-111426723D01*
X157360500Y-111446858D01*
X157358973Y-111466257D01*
X157356031Y-111484834D01*
X157355825Y-111486133D01*
X157357886Y-111507936D01*
X157360225Y-111532677D01*
X157360500Y-111538515D01*
X157360500Y-112405212D01*
X157340815Y-112472251D01*
X157307623Y-112506787D01*
X157148858Y-112617954D01*
X156987954Y-112778858D01*
X156857432Y-112965265D01*
X156857431Y-112965267D01*
X156761261Y-113171502D01*
X156761258Y-113171511D01*
X156702366Y-113391302D01*
X156702364Y-113391313D01*
X156682532Y-113617998D01*
X156682532Y-113618001D01*
X156702364Y-113844686D01*
X156702366Y-113844697D01*
X156761258Y-114064488D01*
X156761261Y-114064497D01*
X156857431Y-114270732D01*
X156857432Y-114270734D01*
X156987954Y-114457141D01*
X157148858Y-114618045D01*
X157148861Y-114618047D01*
X157335266Y-114748568D01*
X157393275Y-114775618D01*
X157445714Y-114821791D01*
X157464866Y-114888984D01*
X157444650Y-114955865D01*
X157393275Y-115000382D01*
X157335267Y-115027431D01*
X157335265Y-115027432D01*
X157148858Y-115157954D01*
X156987954Y-115318858D01*
X156857432Y-115505265D01*
X156857431Y-115505267D01*
X156761261Y-115711502D01*
X156761258Y-115711511D01*
X156702366Y-115931302D01*
X156702364Y-115931313D01*
X156682532Y-116157998D01*
X156682532Y-116158001D01*
X155483468Y-116158001D01*
X155483468Y-116158000D01*
X155463635Y-115931308D01*
X155404739Y-115711504D01*
X155308568Y-115505266D01*
X155178047Y-115318861D01*
X155178045Y-115318858D01*
X155017141Y-115157954D01*
X154830734Y-115027432D01*
X154830728Y-115027429D01*
X154772725Y-115000382D01*
X154720285Y-114954210D01*
X154701133Y-114887017D01*
X154721348Y-114820135D01*
X154772725Y-114775618D01*
X154830734Y-114748568D01*
X155017139Y-114618047D01*
X155178047Y-114457139D01*
X155308568Y-114270734D01*
X155404739Y-114064496D01*
X155463635Y-113844692D01*
X155483468Y-113618000D01*
X155463635Y-113391308D01*
X155404739Y-113171504D01*
X155308568Y-112965266D01*
X155178047Y-112778861D01*
X155178045Y-112778858D01*
X155017141Y-112617954D01*
X154830734Y-112487432D01*
X154830732Y-112487431D01*
X154624497Y-112391261D01*
X154624488Y-112391258D01*
X154404697Y-112332366D01*
X154404693Y-112332365D01*
X154404692Y-112332365D01*
X154404691Y-112332364D01*
X154404686Y-112332364D01*
X154178002Y-112312532D01*
X154177998Y-112312532D01*
X153951313Y-112332364D01*
X153951302Y-112332366D01*
X153731511Y-112391258D01*
X153731502Y-112391261D01*
X153525267Y-112487431D01*
X153525265Y-112487432D01*
X153338858Y-112617954D01*
X153177954Y-112778858D01*
X153047432Y-112965265D01*
X153047431Y-112965267D01*
X152951261Y-113171502D01*
X152951258Y-113171511D01*
X152892366Y-113391302D01*
X152892364Y-113391313D01*
X152872532Y-113617998D01*
X152872532Y-113618001D01*
X152892364Y-113844686D01*
X152892366Y-113844697D01*
X152951258Y-114064488D01*
X152951261Y-114064497D01*
X153047431Y-114270732D01*
X153047432Y-114270734D01*
X153177954Y-114457141D01*
X153338858Y-114618045D01*
X153338861Y-114618047D01*
X153525266Y-114748568D01*
X153583275Y-114775618D01*
X153635714Y-114821791D01*
X153654866Y-114888984D01*
X153634650Y-114955865D01*
X153583275Y-115000382D01*
X153525267Y-115027431D01*
X153525265Y-115027432D01*
X153338858Y-115157954D01*
X153177954Y-115318858D01*
X153047432Y-115505265D01*
X153047431Y-115505267D01*
X152951261Y-115711502D01*
X152951258Y-115711511D01*
X152892366Y-115931302D01*
X152892364Y-115931313D01*
X152872532Y-116157998D01*
X152872532Y-116158001D01*
X127254000Y-116158001D01*
X127254000Y-105998001D01*
X152872532Y-105998001D01*
X152892364Y-106224686D01*
X152892366Y-106224697D01*
X152951258Y-106444488D01*
X152951261Y-106444497D01*
X153047431Y-106650732D01*
X153047432Y-106650734D01*
X153177954Y-106837141D01*
X153338858Y-106998045D01*
X153338861Y-106998047D01*
X153525266Y-107128568D01*
X153731504Y-107224739D01*
X153951308Y-107283635D01*
X154113230Y-107297801D01*
X154177998Y-107303468D01*
X154178000Y-107303468D01*
X154178002Y-107303468D01*
X154234673Y-107298509D01*
X154404692Y-107283635D01*
X154624496Y-107224739D01*
X154830734Y-107128568D01*
X155017139Y-106998047D01*
X155178047Y-106837139D01*
X155308568Y-106650734D01*
X155404739Y-106444496D01*
X155463635Y-106224692D01*
X155483468Y-105998000D01*
X155463635Y-105771308D01*
X155457389Y-105747999D01*
X156709127Y-105747999D01*
X156709128Y-105748000D01*
X157672314Y-105748000D01*
X157660359Y-105759955D01*
X157602835Y-105872852D01*
X157583014Y-105998000D01*
X157602835Y-106123148D01*
X157660359Y-106236045D01*
X157672314Y-106248000D01*
X156709128Y-106248000D01*
X156761730Y-106444317D01*
X156761734Y-106444326D01*
X156857865Y-106650482D01*
X156988342Y-106836820D01*
X157149179Y-106997657D01*
X157335517Y-107128134D01*
X157541673Y-107224265D01*
X157541682Y-107224269D01*
X157737999Y-107276872D01*
X157738000Y-107276871D01*
X157738000Y-106313686D01*
X157749955Y-106325641D01*
X157862852Y-106383165D01*
X157956519Y-106398000D01*
X158019481Y-106398000D01*
X158113148Y-106383165D01*
X158226045Y-106325641D01*
X158238000Y-106313686D01*
X158238000Y-107276872D01*
X158434317Y-107224269D01*
X158434326Y-107224265D01*
X158640482Y-107128134D01*
X158826820Y-106997657D01*
X158987657Y-106836820D01*
X159118134Y-106650482D01*
X159214265Y-106444326D01*
X159214269Y-106444317D01*
X159266872Y-106248000D01*
X158303686Y-106248000D01*
X158315641Y-106236045D01*
X158373165Y-106123148D01*
X158392986Y-105998000D01*
X158373165Y-105872852D01*
X158315641Y-105759955D01*
X158303686Y-105748000D01*
X159266872Y-105748000D01*
X159266872Y-105747999D01*
X159214269Y-105551682D01*
X159214265Y-105551673D01*
X159118134Y-105345517D01*
X158987657Y-105159179D01*
X158826820Y-104998342D01*
X158640482Y-104867865D01*
X158434328Y-104771734D01*
X158238000Y-104719127D01*
X158238000Y-105682314D01*
X158226045Y-105670359D01*
X158113148Y-105612835D01*
X158019481Y-105598000D01*
X157956519Y-105598000D01*
X157862852Y-105612835D01*
X157749955Y-105670359D01*
X157738000Y-105682314D01*
X157738000Y-104719127D01*
X157541671Y-104771734D01*
X157335517Y-104867865D01*
X157149179Y-104998342D01*
X156988342Y-105159179D01*
X156857865Y-105345517D01*
X156761734Y-105551673D01*
X156761730Y-105551682D01*
X156709127Y-105747999D01*
X155457389Y-105747999D01*
X155404739Y-105551504D01*
X155308568Y-105345266D01*
X155178047Y-105158861D01*
X155178045Y-105158858D01*
X155017141Y-104997954D01*
X154830734Y-104867432D01*
X154830732Y-104867431D01*
X154624497Y-104771261D01*
X154624488Y-104771258D01*
X154404697Y-104712366D01*
X154404693Y-104712365D01*
X154404692Y-104712365D01*
X154404691Y-104712364D01*
X154404686Y-104712364D01*
X154178002Y-104692532D01*
X154177998Y-104692532D01*
X153951313Y-104712364D01*
X153951302Y-104712366D01*
X153731511Y-104771258D01*
X153731502Y-104771261D01*
X153525267Y-104867431D01*
X153525265Y-104867432D01*
X153338858Y-104997954D01*
X153177954Y-105158858D01*
X153047432Y-105345265D01*
X153047431Y-105345267D01*
X152951261Y-105551502D01*
X152951258Y-105551511D01*
X152892366Y-105771302D01*
X152892364Y-105771313D01*
X152872532Y-105997998D01*
X152872532Y-105998001D01*
X127254000Y-105998001D01*
X127254000Y-100918004D01*
X138452592Y-100918004D01*
X138472196Y-101179620D01*
X138472197Y-101179625D01*
X138530576Y-101435402D01*
X138530578Y-101435411D01*
X138530580Y-101435416D01*
X138626432Y-101679643D01*
X138757614Y-101906857D01*
X138849545Y-102022135D01*
X138921198Y-102111985D01*
X139055220Y-102236338D01*
X139113521Y-102290433D01*
X139330296Y-102438228D01*
X139330301Y-102438230D01*
X139330302Y-102438231D01*
X139330303Y-102438232D01*
X139384117Y-102464147D01*
X139566673Y-102552061D01*
X139566674Y-102552061D01*
X139566677Y-102552063D01*
X139817385Y-102629396D01*
X140076818Y-102668500D01*
X140339182Y-102668500D01*
X140598615Y-102629396D01*
X140849323Y-102552063D01*
X141052527Y-102454205D01*
X141085696Y-102438232D01*
X141085696Y-102438231D01*
X141085704Y-102438228D01*
X141302479Y-102290433D01*
X141494805Y-102111981D01*
X141658386Y-101906857D01*
X141789568Y-101679643D01*
X141885420Y-101435416D01*
X141943802Y-101179630D01*
X141952657Y-101061467D01*
X141963408Y-100918004D01*
X141963408Y-100917995D01*
X141943803Y-100656379D01*
X141943802Y-100656374D01*
X141943802Y-100656370D01*
X141885420Y-100400584D01*
X141857719Y-100330002D01*
X154905034Y-100330002D01*
X154924858Y-100556599D01*
X154924860Y-100556610D01*
X154983730Y-100776317D01*
X154983734Y-100776326D01*
X155079865Y-100982481D01*
X155079868Y-100982485D01*
X155088812Y-100995260D01*
X155111138Y-101061467D01*
X155094125Y-101129234D01*
X155061549Y-101165645D01*
X155052456Y-101172452D01*
X155052451Y-101172457D01*
X154966206Y-101287664D01*
X154966202Y-101287671D01*
X154915908Y-101422517D01*
X154909781Y-101479510D01*
X154909501Y-101482123D01*
X154909500Y-101482135D01*
X154909500Y-103177870D01*
X154909501Y-103177876D01*
X154915908Y-103237483D01*
X154966202Y-103372328D01*
X154966206Y-103372335D01*
X155052452Y-103487544D01*
X155052455Y-103487547D01*
X155167664Y-103573793D01*
X155167671Y-103573797D01*
X155302517Y-103624091D01*
X155302516Y-103624091D01*
X155309444Y-103624835D01*
X155362127Y-103630500D01*
X157057872Y-103630499D01*
X157117483Y-103624091D01*
X157252331Y-103573796D01*
X157367546Y-103487546D01*
X157453796Y-103372331D01*
X157504091Y-103237483D01*
X157510500Y-103177873D01*
X157510499Y-101482128D01*
X157504091Y-101422517D01*
X157495212Y-101398712D01*
X157453797Y-101287671D01*
X157453793Y-101287664D01*
X157367547Y-101172456D01*
X157367548Y-101172456D01*
X157367546Y-101172454D01*
X157358449Y-101165644D01*
X157316581Y-101109710D01*
X157311599Y-101040018D01*
X157331191Y-100995253D01*
X157340134Y-100982481D01*
X157436265Y-100776326D01*
X157436269Y-100776317D01*
X157495139Y-100556610D01*
X157495141Y-100556599D01*
X157514966Y-100330002D01*
X157514966Y-100329997D01*
X157495141Y-100103400D01*
X157495139Y-100103389D01*
X157436269Y-99883682D01*
X157436265Y-99883673D01*
X157340133Y-99677516D01*
X157340131Y-99677512D01*
X157289025Y-99604526D01*
X156607953Y-100285598D01*
X156595165Y-100204852D01*
X156537641Y-100091955D01*
X156448045Y-100002359D01*
X156335148Y-99944835D01*
X156254400Y-99932046D01*
X156935472Y-99250974D01*
X156935471Y-99250973D01*
X156862483Y-99199866D01*
X156862481Y-99199865D01*
X156656326Y-99103734D01*
X156656317Y-99103730D01*
X156436610Y-99044860D01*
X156436599Y-99044858D01*
X156210002Y-99025034D01*
X156209998Y-99025034D01*
X155983400Y-99044858D01*
X155983389Y-99044860D01*
X155763682Y-99103730D01*
X155763673Y-99103734D01*
X155557513Y-99199868D01*
X155484527Y-99250972D01*
X155484526Y-99250973D01*
X156165600Y-99932046D01*
X156084852Y-99944835D01*
X155971955Y-100002359D01*
X155882359Y-100091955D01*
X155824835Y-100204852D01*
X155812046Y-100285600D01*
X155130973Y-99604527D01*
X155079868Y-99677513D01*
X154983734Y-99883673D01*
X154983730Y-99883682D01*
X154924860Y-100103389D01*
X154924858Y-100103400D01*
X154905034Y-100329997D01*
X154905034Y-100330002D01*
X141857719Y-100330002D01*
X141789568Y-100156357D01*
X141658386Y-99929143D01*
X141494805Y-99724019D01*
X141494804Y-99724018D01*
X141494801Y-99724014D01*
X141302479Y-99545567D01*
X141251365Y-99510718D01*
X141085704Y-99397772D01*
X141085700Y-99397770D01*
X141085697Y-99397768D01*
X141085696Y-99397767D01*
X140849325Y-99283938D01*
X140849327Y-99283938D01*
X140598623Y-99206606D01*
X140598619Y-99206605D01*
X140598615Y-99206604D01*
X140465966Y-99186610D01*
X140339187Y-99167500D01*
X140339182Y-99167500D01*
X140076818Y-99167500D01*
X140076812Y-99167500D01*
X139915247Y-99191853D01*
X139817385Y-99206604D01*
X139817382Y-99206605D01*
X139817376Y-99206606D01*
X139566673Y-99283938D01*
X139330303Y-99397767D01*
X139330302Y-99397768D01*
X139113520Y-99545567D01*
X138921198Y-99724014D01*
X138757614Y-99929143D01*
X138626432Y-100156356D01*
X138530582Y-100400578D01*
X138530576Y-100400597D01*
X138472197Y-100656374D01*
X138472196Y-100656379D01*
X138452592Y-100917995D01*
X138452592Y-100918004D01*
X127254000Y-100918004D01*
X127254000Y-73640131D01*
X143639825Y-73640131D01*
X143644225Y-73686677D01*
X143644500Y-73692515D01*
X143644500Y-75863032D01*
X143642772Y-75878681D01*
X143643054Y-75878708D01*
X143642319Y-75886475D01*
X143644500Y-75955859D01*
X143644500Y-75985477D01*
X143645371Y-75992380D01*
X143645829Y-75998199D01*
X143647298Y-76044942D01*
X143652916Y-76064275D01*
X143656862Y-76083329D01*
X143659383Y-76103287D01*
X143659386Y-76103299D01*
X143676595Y-76146765D01*
X143678487Y-76152293D01*
X143691530Y-76197187D01*
X143691530Y-76197188D01*
X143701777Y-76214515D01*
X143710335Y-76231985D01*
X143717745Y-76250701D01*
X143745229Y-76288529D01*
X143748437Y-76293413D01*
X143772234Y-76333652D01*
X143772240Y-76333660D01*
X143786469Y-76347888D01*
X143799109Y-76362687D01*
X143810934Y-76378964D01*
X143810936Y-76378965D01*
X143810937Y-76378967D01*
X143835181Y-76399023D01*
X143846957Y-76408765D01*
X143851268Y-76412687D01*
X144785624Y-77347043D01*
X144795471Y-77359333D01*
X144795689Y-77359154D01*
X144800657Y-77365160D01*
X144851257Y-77412677D01*
X144872201Y-77433620D01*
X144872207Y-77433626D01*
X144877697Y-77437883D01*
X144882148Y-77441684D01*
X144916235Y-77473695D01*
X144916237Y-77473696D01*
X144933867Y-77483387D01*
X144950135Y-77494072D01*
X144966038Y-77506408D01*
X145008945Y-77524975D01*
X145014181Y-77527539D01*
X145039089Y-77541233D01*
X145055158Y-77550068D01*
X145055160Y-77550069D01*
X145055166Y-77550072D01*
X145074240Y-77554969D01*
X145074660Y-77555077D01*
X145093064Y-77561377D01*
X145111542Y-77569374D01*
X145155038Y-77576262D01*
X145157724Y-77576688D01*
X145163429Y-77577869D01*
X145208728Y-77589500D01*
X145228858Y-77589500D01*
X145248257Y-77591027D01*
X145268133Y-77594175D01*
X145310779Y-77590143D01*
X145314679Y-77589775D01*
X145320517Y-77589500D01*
X165296719Y-77589500D01*
X165363758Y-77609185D01*
X165384400Y-77625819D01*
X168754181Y-80995600D01*
X168787666Y-81056923D01*
X168790500Y-81083281D01*
X168790500Y-94684719D01*
X168770815Y-94751758D01*
X168754181Y-94772400D01*
X166654400Y-96872181D01*
X166593077Y-96905666D01*
X166566719Y-96908500D01*
X163658967Y-96908500D01*
X163643318Y-96906772D01*
X163643292Y-96907054D01*
X163635524Y-96906319D01*
X163566141Y-96908500D01*
X163536522Y-96908500D01*
X163529618Y-96909371D01*
X163523800Y-96909829D01*
X163477060Y-96911298D01*
X163477054Y-96911299D01*
X163457719Y-96916916D01*
X163438680Y-96920859D01*
X163418715Y-96923382D01*
X163418701Y-96923385D01*
X163375235Y-96940594D01*
X163369710Y-96942485D01*
X163324809Y-96955531D01*
X163324806Y-96955533D01*
X163307480Y-96965779D01*
X163290010Y-96974337D01*
X163271298Y-96981745D01*
X163233463Y-97009233D01*
X163228580Y-97012440D01*
X163188346Y-97036234D01*
X163174106Y-97050474D01*
X163159320Y-97063102D01*
X163143033Y-97074936D01*
X163143032Y-97074936D01*
X163113227Y-97110963D01*
X163109295Y-97115285D01*
X161412953Y-98811626D01*
X161400669Y-98821469D01*
X161400849Y-98821687D01*
X161394838Y-98826659D01*
X161347322Y-98877258D01*
X161326375Y-98898205D01*
X161322106Y-98903709D01*
X161318315Y-98908147D01*
X161286308Y-98942230D01*
X161286305Y-98942234D01*
X161276606Y-98959877D01*
X161265928Y-98976133D01*
X161253594Y-98992034D01*
X161253589Y-98992042D01*
X161235025Y-99034943D01*
X161232454Y-99040191D01*
X161209927Y-99081167D01*
X161204920Y-99100668D01*
X161198621Y-99119064D01*
X161191893Y-99134612D01*
X161190625Y-99137544D01*
X161190624Y-99137546D01*
X161183312Y-99183716D01*
X161182127Y-99189438D01*
X161170500Y-99234723D01*
X161170500Y-99254858D01*
X161168973Y-99274257D01*
X161165825Y-99294131D01*
X161170225Y-99340677D01*
X161170500Y-99346515D01*
X161170500Y-104785212D01*
X161150815Y-104852251D01*
X161117623Y-104886787D01*
X160958858Y-104997954D01*
X160797954Y-105158858D01*
X160667432Y-105345265D01*
X160667431Y-105345267D01*
X160571261Y-105551502D01*
X160571258Y-105551511D01*
X160512366Y-105771302D01*
X160512364Y-105771313D01*
X160492532Y-105997998D01*
X160492532Y-105998001D01*
X160512364Y-106224686D01*
X160512366Y-106224697D01*
X160571258Y-106444488D01*
X160571261Y-106444497D01*
X160667431Y-106650732D01*
X160667432Y-106650734D01*
X160797954Y-106837141D01*
X160958858Y-106998045D01*
X160958861Y-106998047D01*
X161145266Y-107128568D01*
X161351504Y-107224739D01*
X161571308Y-107283635D01*
X161733230Y-107297801D01*
X161797998Y-107303468D01*
X161798000Y-107303468D01*
X161798002Y-107303468D01*
X161854673Y-107298509D01*
X162024692Y-107283635D01*
X162244496Y-107224739D01*
X162450734Y-107128568D01*
X162637139Y-106998047D01*
X162798047Y-106837139D01*
X162928568Y-106650734D01*
X163024739Y-106444496D01*
X163083635Y-106224692D01*
X163103468Y-105998000D01*
X163083635Y-105771308D01*
X163024739Y-105551504D01*
X162928568Y-105345266D01*
X162798047Y-105158861D01*
X162798045Y-105158858D01*
X162637141Y-104997954D01*
X162478377Y-104886787D01*
X162434752Y-104832210D01*
X162425500Y-104785212D01*
X162425500Y-99625281D01*
X162445185Y-99558242D01*
X162461819Y-99537600D01*
X163799600Y-98199819D01*
X163860923Y-98166334D01*
X163887281Y-98163500D01*
X166795033Y-98163500D01*
X166810681Y-98165227D01*
X166810708Y-98164946D01*
X166818475Y-98165680D01*
X166818476Y-98165679D01*
X166818477Y-98165680D01*
X166887860Y-98163500D01*
X166917476Y-98163500D01*
X166924378Y-98162627D01*
X166930190Y-98162169D01*
X166976943Y-98160701D01*
X166996272Y-98155084D01*
X167015328Y-98151137D01*
X167035293Y-98148616D01*
X167078770Y-98131401D01*
X167084276Y-98129516D01*
X167129191Y-98116468D01*
X167146515Y-98106221D01*
X167163983Y-98097663D01*
X167182703Y-98090253D01*
X167220542Y-98062759D01*
X167225391Y-98059574D01*
X167265656Y-98035763D01*
X167279897Y-98021520D01*
X167294678Y-98008897D01*
X167310967Y-97997063D01*
X167310969Y-97997059D01*
X167310971Y-97997059D01*
X167322845Y-97982703D01*
X167340776Y-97961028D01*
X167344689Y-97956728D01*
X169803043Y-95498374D01*
X169815325Y-95488537D01*
X169815144Y-95488318D01*
X169821152Y-95483346D01*
X169821162Y-95483340D01*
X169868677Y-95432741D01*
X169889623Y-95411796D01*
X169893892Y-95406290D01*
X169897676Y-95401859D01*
X169929693Y-95367767D01*
X169939389Y-95350128D01*
X169950073Y-95333861D01*
X169962408Y-95317962D01*
X169980978Y-95275046D01*
X169983534Y-95269827D01*
X170006072Y-95228834D01*
X170011078Y-95209334D01*
X170017382Y-95190924D01*
X170025370Y-95172465D01*
X170025373Y-95172459D01*
X170032687Y-95126280D01*
X170033868Y-95120570D01*
X170045500Y-95075272D01*
X170045500Y-95055135D01*
X170047027Y-95035735D01*
X170050174Y-95015867D01*
X170045775Y-94969329D01*
X170045500Y-94963491D01*
X170045500Y-80854964D01*
X170047228Y-80839313D01*
X170046946Y-80839287D01*
X170047680Y-80831524D01*
X170045500Y-80762140D01*
X170045500Y-80732530D01*
X170045500Y-80732524D01*
X170044626Y-80725607D01*
X170044169Y-80719792D01*
X170042701Y-80673058D01*
X170037082Y-80653718D01*
X170033139Y-80634685D01*
X170030616Y-80614707D01*
X170013403Y-80571234D01*
X170011514Y-80565714D01*
X169998467Y-80520806D01*
X169988220Y-80503480D01*
X169979659Y-80486004D01*
X169972253Y-80467297D01*
X169944773Y-80429474D01*
X169941569Y-80424596D01*
X169917764Y-80384344D01*
X169917761Y-80384341D01*
X169917760Y-80384339D01*
X169903527Y-80370107D01*
X169890891Y-80355314D01*
X169879063Y-80339033D01*
X169879061Y-80339030D01*
X169843042Y-80309233D01*
X169838719Y-80305299D01*
X166110376Y-76576957D01*
X166100531Y-76564668D01*
X166100313Y-76564849D01*
X166095340Y-76558837D01*
X166044742Y-76511322D01*
X166023798Y-76490378D01*
X166018296Y-76486111D01*
X166013848Y-76482312D01*
X165979768Y-76450308D01*
X165979763Y-76450304D01*
X165962122Y-76440606D01*
X165945857Y-76429922D01*
X165929963Y-76417593D01*
X165929962Y-76417592D01*
X165914804Y-76411032D01*
X165887054Y-76399023D01*
X165881807Y-76396453D01*
X165840837Y-76373929D01*
X165840828Y-76373926D01*
X165821334Y-76368920D01*
X165802933Y-76362620D01*
X165784459Y-76354626D01*
X165784452Y-76354624D01*
X165738287Y-76347313D01*
X165732563Y-76346128D01*
X165687279Y-76334500D01*
X165687272Y-76334500D01*
X165667142Y-76334500D01*
X165647743Y-76332973D01*
X165627868Y-76329825D01*
X165627867Y-76329825D01*
X165581321Y-76334225D01*
X165575483Y-76334500D01*
X161669258Y-76334500D01*
X161602219Y-76314815D01*
X161556464Y-76262011D01*
X161546520Y-76192853D01*
X161569991Y-76136189D01*
X161617796Y-76072331D01*
X161668091Y-75937483D01*
X161674500Y-75877873D01*
X161674500Y-75681500D01*
X161694185Y-75614461D01*
X161746989Y-75568706D01*
X161798500Y-75557500D01*
X166820719Y-75557500D01*
X166887758Y-75577185D01*
X166908400Y-75593819D01*
X170532181Y-79217600D01*
X170565666Y-79278923D01*
X170568500Y-79305281D01*
X170568500Y-99510718D01*
X170548815Y-99577757D01*
X170532181Y-99598399D01*
X167762953Y-102367626D01*
X167750669Y-102377469D01*
X167750849Y-102377687D01*
X167744838Y-102382659D01*
X167697322Y-102433258D01*
X167676375Y-102454205D01*
X167672106Y-102459709D01*
X167668315Y-102464147D01*
X167636308Y-102498230D01*
X167636305Y-102498234D01*
X167626606Y-102515877D01*
X167615928Y-102532133D01*
X167603594Y-102548034D01*
X167603589Y-102548042D01*
X167585025Y-102590943D01*
X167582454Y-102596191D01*
X167559927Y-102637167D01*
X167554920Y-102656668D01*
X167548621Y-102675064D01*
X167542719Y-102688706D01*
X167540625Y-102693544D01*
X167540624Y-102693546D01*
X167533312Y-102739716D01*
X167532127Y-102745438D01*
X167520500Y-102790723D01*
X167520500Y-102810858D01*
X167518973Y-102830257D01*
X167515825Y-102850131D01*
X167520225Y-102896677D01*
X167520500Y-102902515D01*
X167520500Y-109793534D01*
X167500815Y-109860573D01*
X167488650Y-109876506D01*
X167415466Y-109957785D01*
X167320821Y-110121715D01*
X167320818Y-110121722D01*
X167262327Y-110301740D01*
X167262326Y-110301744D01*
X167242540Y-110490000D01*
X167262326Y-110678256D01*
X167262327Y-110678259D01*
X167320818Y-110858277D01*
X167320821Y-110858284D01*
X167415467Y-111022216D01*
X167483717Y-111098015D01*
X167542129Y-111162888D01*
X167695265Y-111274148D01*
X167695270Y-111274151D01*
X167868192Y-111351142D01*
X167868197Y-111351144D01*
X168053354Y-111390500D01*
X168053355Y-111390500D01*
X168242644Y-111390500D01*
X168242646Y-111390500D01*
X168427803Y-111351144D01*
X168600730Y-111274151D01*
X168753871Y-111162888D01*
X168880533Y-111022216D01*
X168975179Y-110858284D01*
X169033674Y-110678256D01*
X169053460Y-110490000D01*
X169033674Y-110301744D01*
X168975179Y-110121716D01*
X168880533Y-109957784D01*
X168807350Y-109876506D01*
X168777120Y-109813515D01*
X168775500Y-109793534D01*
X168775500Y-103181280D01*
X168795185Y-103114241D01*
X168811815Y-103093603D01*
X169216712Y-102688705D01*
X169278035Y-102655221D01*
X169347727Y-102660205D01*
X169403660Y-102702077D01*
X169428077Y-102767541D01*
X169427921Y-102787194D01*
X169420677Y-102869997D01*
X169420677Y-102870002D01*
X169439929Y-103090062D01*
X169439930Y-103090070D01*
X169497104Y-103303445D01*
X169497105Y-103303447D01*
X169497106Y-103303450D01*
X169590466Y-103503662D01*
X169590468Y-103503666D01*
X169717170Y-103684615D01*
X169717175Y-103684621D01*
X169873378Y-103840824D01*
X169873384Y-103840829D01*
X170054333Y-103967531D01*
X170054335Y-103967532D01*
X170054338Y-103967534D01*
X170173748Y-104023215D01*
X170183189Y-104027618D01*
X170235628Y-104073790D01*
X170254780Y-104140984D01*
X170234564Y-104207865D01*
X170183189Y-104252382D01*
X170054340Y-104312465D01*
X170054338Y-104312466D01*
X169873377Y-104439175D01*
X169717175Y-104595377D01*
X169590466Y-104776338D01*
X169590465Y-104776340D01*
X169497107Y-104976548D01*
X169497104Y-104976554D01*
X169439930Y-105189929D01*
X169439929Y-105189937D01*
X169420677Y-105409997D01*
X169420677Y-105410002D01*
X169439929Y-105630062D01*
X169439930Y-105630070D01*
X169497104Y-105843445D01*
X169497105Y-105843447D01*
X169497106Y-105843450D01*
X169546045Y-105948400D01*
X169590466Y-106043662D01*
X169590468Y-106043666D01*
X169717170Y-106224615D01*
X169717175Y-106224621D01*
X169873378Y-106380824D01*
X169873384Y-106380829D01*
X170054333Y-106507531D01*
X170054335Y-106507532D01*
X170054338Y-106507534D01*
X170173748Y-106563215D01*
X170183189Y-106567618D01*
X170235628Y-106613790D01*
X170254780Y-106680984D01*
X170234564Y-106747865D01*
X170183189Y-106792382D01*
X170054340Y-106852465D01*
X170054338Y-106852466D01*
X169873377Y-106979175D01*
X169717175Y-107135377D01*
X169590466Y-107316338D01*
X169590465Y-107316340D01*
X169497107Y-107516548D01*
X169497104Y-107516554D01*
X169439930Y-107729929D01*
X169439929Y-107729937D01*
X169420677Y-107949997D01*
X169420677Y-107950002D01*
X169439929Y-108170062D01*
X169439930Y-108170070D01*
X169497104Y-108383445D01*
X169497105Y-108383447D01*
X169497106Y-108383450D01*
X169590466Y-108583662D01*
X169590468Y-108583666D01*
X169717170Y-108764615D01*
X169717175Y-108764621D01*
X169873378Y-108920824D01*
X169873384Y-108920829D01*
X170054333Y-109047531D01*
X170054335Y-109047532D01*
X170054338Y-109047534D01*
X170173748Y-109103215D01*
X170183189Y-109107618D01*
X170235628Y-109153790D01*
X170254780Y-109220984D01*
X170234564Y-109287865D01*
X170183189Y-109332382D01*
X170054340Y-109392465D01*
X170054338Y-109392466D01*
X169873377Y-109519175D01*
X169717175Y-109675377D01*
X169590466Y-109856338D01*
X169590465Y-109856340D01*
X169497107Y-110056548D01*
X169497104Y-110056554D01*
X169439930Y-110269929D01*
X169439929Y-110269937D01*
X169420677Y-110489997D01*
X169420677Y-110490002D01*
X169439929Y-110710062D01*
X169439930Y-110710070D01*
X169497104Y-110923445D01*
X169497105Y-110923447D01*
X169497106Y-110923450D01*
X169539184Y-111013687D01*
X169590466Y-111123662D01*
X169590468Y-111123666D01*
X169717170Y-111304615D01*
X169717175Y-111304621D01*
X169873378Y-111460824D01*
X169873384Y-111460829D01*
X170054333Y-111587531D01*
X170054335Y-111587532D01*
X170054338Y-111587534D01*
X170254550Y-111680894D01*
X170467932Y-111738070D01*
X170607062Y-111750242D01*
X170687998Y-111757323D01*
X170688000Y-111757323D01*
X170688002Y-111757323D01*
X170743017Y-111752509D01*
X170908068Y-111738070D01*
X171121450Y-111680894D01*
X171321662Y-111587534D01*
X171502620Y-111460826D01*
X171658826Y-111304620D01*
X171785534Y-111123662D01*
X171878894Y-110923450D01*
X171936070Y-110710068D01*
X171955323Y-110490000D01*
X171952532Y-110458102D01*
X171938853Y-110301744D01*
X171936070Y-110269932D01*
X171878894Y-110056550D01*
X171785534Y-109856339D01*
X171658826Y-109675380D01*
X171502620Y-109519174D01*
X171502616Y-109519171D01*
X171502615Y-109519170D01*
X171321666Y-109392468D01*
X171321658Y-109392464D01*
X171192811Y-109332382D01*
X171140371Y-109286210D01*
X171121219Y-109219017D01*
X171141435Y-109152135D01*
X171192811Y-109107618D01*
X171198802Y-109104824D01*
X171321662Y-109047534D01*
X171502620Y-108920826D01*
X171658826Y-108764620D01*
X171785534Y-108583662D01*
X171878894Y-108383450D01*
X171936070Y-108170068D01*
X171952252Y-107985102D01*
X171955323Y-107950002D01*
X171955323Y-107949997D01*
X171946171Y-107845386D01*
X171936070Y-107729932D01*
X171878894Y-107516550D01*
X171785534Y-107316339D01*
X171658826Y-107135380D01*
X171502620Y-106979174D01*
X171502616Y-106979171D01*
X171502615Y-106979170D01*
X171321666Y-106852468D01*
X171321658Y-106852464D01*
X171192811Y-106792382D01*
X171140371Y-106746210D01*
X171121219Y-106679017D01*
X171141435Y-106612135D01*
X171192811Y-106567618D01*
X171198802Y-106564824D01*
X171321662Y-106507534D01*
X171502620Y-106380826D01*
X171658826Y-106224620D01*
X171785534Y-106043662D01*
X171878894Y-105843450D01*
X171936070Y-105630068D01*
X171955323Y-105410000D01*
X171936070Y-105189932D01*
X171878894Y-104976550D01*
X171785534Y-104776339D01*
X171658826Y-104595380D01*
X171502620Y-104439174D01*
X171502616Y-104439171D01*
X171502615Y-104439170D01*
X171321666Y-104312468D01*
X171321658Y-104312464D01*
X171192811Y-104252382D01*
X171140371Y-104206210D01*
X171121219Y-104139017D01*
X171141435Y-104072135D01*
X171192811Y-104027618D01*
X171198802Y-104024824D01*
X171321662Y-103967534D01*
X171502620Y-103840826D01*
X171658826Y-103684620D01*
X171785534Y-103503662D01*
X171878894Y-103303450D01*
X171936070Y-103090068D01*
X171955323Y-102870000D01*
X171951002Y-102820615D01*
X171940632Y-102702077D01*
X171936070Y-102649932D01*
X171878894Y-102436550D01*
X171785534Y-102236339D01*
X171658826Y-102055380D01*
X171502620Y-101899174D01*
X171502616Y-101899171D01*
X171502615Y-101899170D01*
X171321666Y-101772468D01*
X171321662Y-101772466D01*
X171192965Y-101712454D01*
X171121450Y-101679106D01*
X171121447Y-101679105D01*
X171121445Y-101679104D01*
X170908070Y-101621930D01*
X170908062Y-101621929D01*
X170688002Y-101602677D01*
X170687998Y-101602677D01*
X170605193Y-101609921D01*
X170536693Y-101596154D01*
X170486510Y-101547539D01*
X170470577Y-101479510D01*
X170493953Y-101413666D01*
X170506699Y-101398718D01*
X171581043Y-100324374D01*
X171593325Y-100314537D01*
X171593144Y-100314318D01*
X171599152Y-100309346D01*
X171599162Y-100309340D01*
X171646677Y-100258741D01*
X171667623Y-100237796D01*
X171671892Y-100232290D01*
X171675676Y-100227859D01*
X171707693Y-100193767D01*
X171717389Y-100176128D01*
X171728073Y-100159861D01*
X171740408Y-100143962D01*
X171758983Y-100101034D01*
X171761534Y-100095827D01*
X171784072Y-100054834D01*
X171789078Y-100035334D01*
X171795376Y-100016936D01*
X171803374Y-99998458D01*
X171810688Y-99952276D01*
X171811870Y-99946565D01*
X171823500Y-99901272D01*
X171823500Y-99881141D01*
X171825027Y-99861741D01*
X171828175Y-99841867D01*
X171823775Y-99795321D01*
X171823500Y-99789483D01*
X171823500Y-79076964D01*
X171825228Y-79061313D01*
X171824946Y-79061287D01*
X171825680Y-79053524D01*
X171823500Y-78984140D01*
X171823500Y-78954530D01*
X171823500Y-78954524D01*
X171822626Y-78947607D01*
X171822169Y-78941792D01*
X171820701Y-78895057D01*
X171815084Y-78875727D01*
X171811138Y-78856668D01*
X171808617Y-78836711D01*
X171808616Y-78836709D01*
X171808616Y-78836707D01*
X171791403Y-78793234D01*
X171789514Y-78787713D01*
X171776467Y-78742807D01*
X171766225Y-78725489D01*
X171757662Y-78708011D01*
X171750253Y-78689297D01*
X171750253Y-78689296D01*
X171722771Y-78651472D01*
X171719567Y-78646596D01*
X171695763Y-78606344D01*
X171695761Y-78606342D01*
X171695759Y-78606339D01*
X171681531Y-78592112D01*
X171668896Y-78577320D01*
X171657063Y-78561033D01*
X171657060Y-78561031D01*
X171657060Y-78561030D01*
X171657059Y-78561029D01*
X171621035Y-78531228D01*
X171616713Y-78527294D01*
X167634376Y-74544957D01*
X167624531Y-74532668D01*
X167624313Y-74532849D01*
X167619340Y-74526838D01*
X167568741Y-74479322D01*
X167558268Y-74468849D01*
X167547797Y-74458377D01*
X167542296Y-74454111D01*
X167537848Y-74450312D01*
X167503768Y-74418308D01*
X167503763Y-74418304D01*
X167486122Y-74408606D01*
X167469857Y-74397922D01*
X167453963Y-74385593D01*
X167453962Y-74385592D01*
X167438804Y-74379032D01*
X167411054Y-74367023D01*
X167405807Y-74364453D01*
X167364837Y-74341929D01*
X167364828Y-74341926D01*
X167345334Y-74336920D01*
X167326933Y-74330620D01*
X167308459Y-74322626D01*
X167308452Y-74322624D01*
X167262287Y-74315313D01*
X167256563Y-74314128D01*
X167211279Y-74302500D01*
X167211272Y-74302500D01*
X167191142Y-74302500D01*
X167171743Y-74300973D01*
X167151868Y-74297825D01*
X167151867Y-74297825D01*
X167105321Y-74302225D01*
X167099483Y-74302500D01*
X161798499Y-74302500D01*
X161731460Y-74282815D01*
X161685705Y-74230011D01*
X161674499Y-74178500D01*
X161674499Y-73982129D01*
X161674498Y-73982123D01*
X161674497Y-73982116D01*
X161668091Y-73922517D01*
X161617796Y-73787669D01*
X161617795Y-73787668D01*
X161617793Y-73787664D01*
X161531547Y-73672455D01*
X161531544Y-73672452D01*
X161416335Y-73586206D01*
X161416328Y-73586202D01*
X161336094Y-73556277D01*
X161280160Y-73514406D01*
X161255743Y-73448941D01*
X161270595Y-73380668D01*
X161288190Y-73356121D01*
X161382979Y-73253153D01*
X161500235Y-73073678D01*
X161553381Y-73028322D01*
X161604044Y-73017500D01*
X167582719Y-73017500D01*
X167649758Y-73037185D01*
X167670400Y-73053819D01*
X172818181Y-78201600D01*
X172851666Y-78262923D01*
X172854500Y-78289281D01*
X172854500Y-110940719D01*
X172834815Y-111007758D01*
X172818181Y-111028400D01*
X169956400Y-113890181D01*
X169895077Y-113923666D01*
X169868719Y-113926500D01*
X167203038Y-113926500D01*
X167179802Y-113924303D01*
X167171722Y-113922761D01*
X167171712Y-113922761D01*
X167162770Y-113923323D01*
X167114212Y-113926378D01*
X167110340Y-113926500D01*
X167092515Y-113926500D01*
X167074841Y-113928733D01*
X167070967Y-113929098D01*
X167059922Y-113929793D01*
X167013481Y-113932716D01*
X167013478Y-113932716D01*
X167005641Y-113935263D01*
X166982878Y-113940351D01*
X166978002Y-113940967D01*
X166974706Y-113941384D01*
X166974705Y-113941384D01*
X166921147Y-113962589D01*
X166917483Y-113963908D01*
X166862699Y-113981708D01*
X166862694Y-113981710D01*
X166855740Y-113986124D01*
X166834960Y-113996712D01*
X166827302Y-113999744D01*
X166827295Y-113999748D01*
X166780681Y-114033614D01*
X166777460Y-114035803D01*
X166728839Y-114066659D01*
X166728831Y-114066665D01*
X166723192Y-114072670D01*
X166705697Y-114088094D01*
X166699035Y-114092934D01*
X166662317Y-114137316D01*
X166659743Y-114140235D01*
X166620310Y-114182228D01*
X166620306Y-114182234D01*
X166616332Y-114189462D01*
X166603226Y-114208747D01*
X166597973Y-114215097D01*
X166573456Y-114267198D01*
X166571688Y-114270667D01*
X166540171Y-114327999D01*
X166539337Y-114327540D01*
X166516930Y-114361649D01*
X166020590Y-114857989D01*
X165959267Y-114891474D01*
X165900816Y-114890083D01*
X165870930Y-114882075D01*
X165834694Y-114872365D01*
X165834686Y-114872364D01*
X165608002Y-114852532D01*
X165607998Y-114852532D01*
X165381313Y-114872364D01*
X165381302Y-114872366D01*
X165161511Y-114931258D01*
X165161502Y-114931261D01*
X164955267Y-115027431D01*
X164955265Y-115027432D01*
X164768858Y-115157954D01*
X164607954Y-115318858D01*
X164477432Y-115505265D01*
X164477431Y-115505267D01*
X164381261Y-115711502D01*
X164381258Y-115711511D01*
X164322366Y-115931302D01*
X164322364Y-115931313D01*
X164302532Y-116157998D01*
X164302532Y-116158001D01*
X164322364Y-116384686D01*
X164322366Y-116384697D01*
X164381258Y-116604488D01*
X164381261Y-116604497D01*
X164477431Y-116810732D01*
X164477432Y-116810734D01*
X164607954Y-116997141D01*
X164768858Y-117158045D01*
X164768861Y-117158047D01*
X164955266Y-117288568D01*
X165161504Y-117384739D01*
X165381308Y-117443635D01*
X165543230Y-117457801D01*
X165607998Y-117463468D01*
X165608000Y-117463468D01*
X165608002Y-117463468D01*
X165664673Y-117458509D01*
X165834692Y-117443635D01*
X166054496Y-117384739D01*
X166260734Y-117288568D01*
X166447139Y-117158047D01*
X166608047Y-116997139D01*
X166738568Y-116810734D01*
X166834739Y-116604496D01*
X166893635Y-116384692D01*
X166913468Y-116158000D01*
X166893635Y-115931308D01*
X166875916Y-115865181D01*
X166877579Y-115795332D01*
X166908008Y-115745409D01*
X167435600Y-115217819D01*
X167496923Y-115184334D01*
X167523281Y-115181500D01*
X170097033Y-115181500D01*
X170112681Y-115183227D01*
X170112708Y-115182946D01*
X170120475Y-115183680D01*
X170120476Y-115183679D01*
X170120477Y-115183680D01*
X170189860Y-115181500D01*
X170219476Y-115181500D01*
X170226378Y-115180627D01*
X170232190Y-115180169D01*
X170278943Y-115178701D01*
X170298272Y-115173084D01*
X170317328Y-115169137D01*
X170337293Y-115166616D01*
X170380770Y-115149401D01*
X170386276Y-115147516D01*
X170431191Y-115134468D01*
X170448515Y-115124221D01*
X170465983Y-115115663D01*
X170484703Y-115108253D01*
X170522542Y-115080759D01*
X170527391Y-115077574D01*
X170567656Y-115053763D01*
X170581897Y-115039520D01*
X170596678Y-115026897D01*
X170612967Y-115015063D01*
X170612969Y-115015059D01*
X170612971Y-115015059D01*
X170625112Y-115000382D01*
X170642776Y-114979028D01*
X170646689Y-114974728D01*
X173867043Y-111754374D01*
X173879325Y-111744537D01*
X173879144Y-111744318D01*
X173885152Y-111739346D01*
X173885162Y-111739340D01*
X173932677Y-111688741D01*
X173953623Y-111667796D01*
X173957892Y-111662290D01*
X173961676Y-111657859D01*
X173993693Y-111623767D01*
X174003389Y-111606128D01*
X174014073Y-111589861D01*
X174026408Y-111573962D01*
X174044978Y-111531046D01*
X174047534Y-111525827D01*
X174070072Y-111484834D01*
X174075081Y-111465322D01*
X174081378Y-111446932D01*
X174089373Y-111428459D01*
X174096689Y-111382257D01*
X174097864Y-111376583D01*
X174109500Y-111331272D01*
X174109500Y-111311141D01*
X174111027Y-111291741D01*
X174111301Y-111290013D01*
X174114175Y-111271867D01*
X174109775Y-111225321D01*
X174109500Y-111219483D01*
X174109500Y-107950002D01*
X177040677Y-107950002D01*
X177059929Y-108170062D01*
X177059930Y-108170070D01*
X177117104Y-108383445D01*
X177117105Y-108383447D01*
X177117106Y-108383450D01*
X177210466Y-108583662D01*
X177210468Y-108583666D01*
X177337170Y-108764615D01*
X177337175Y-108764621D01*
X177493378Y-108920824D01*
X177493384Y-108920829D01*
X177674333Y-109047531D01*
X177674335Y-109047532D01*
X177674338Y-109047534D01*
X177803189Y-109107618D01*
X177803781Y-109107894D01*
X177856220Y-109154066D01*
X177875372Y-109221260D01*
X177855156Y-109288141D01*
X177803781Y-109332658D01*
X177674586Y-109392903D01*
X177609812Y-109438257D01*
X177609811Y-109438258D01*
X178280554Y-110109000D01*
X178276431Y-110109000D01*
X178182579Y-110124661D01*
X178070749Y-110185180D01*
X177984629Y-110278731D01*
X177933552Y-110395177D01*
X177927894Y-110463447D01*
X177256258Y-109791811D01*
X177256257Y-109791812D01*
X177210903Y-109856586D01*
X177117579Y-110056720D01*
X177117575Y-110056729D01*
X177060426Y-110270013D01*
X177060424Y-110270023D01*
X177041179Y-110489999D01*
X177041179Y-110490000D01*
X177060424Y-110709976D01*
X177060426Y-110709986D01*
X177117575Y-110923270D01*
X177117580Y-110923284D01*
X177210899Y-111123407D01*
X177210900Y-111123409D01*
X177256258Y-111188187D01*
X177923096Y-110521349D01*
X177923051Y-110521898D01*
X177954266Y-110645162D01*
X178023813Y-110751612D01*
X178124157Y-110829713D01*
X178244422Y-110871000D01*
X178280553Y-110871000D01*
X177609811Y-111541741D01*
X177674582Y-111587094D01*
X177674592Y-111587100D01*
X177874715Y-111680419D01*
X177874729Y-111680424D01*
X178088013Y-111737573D01*
X178088023Y-111737575D01*
X178307999Y-111756821D01*
X178308001Y-111756821D01*
X178527976Y-111737575D01*
X178527986Y-111737573D01*
X178741270Y-111680424D01*
X178741284Y-111680419D01*
X178941408Y-111587100D01*
X178941420Y-111587093D01*
X179006186Y-111541742D01*
X179006187Y-111541740D01*
X178335448Y-110871000D01*
X178339569Y-110871000D01*
X178433421Y-110855339D01*
X178545251Y-110794820D01*
X178631371Y-110701269D01*
X178682448Y-110584823D01*
X178688105Y-110516552D01*
X179359740Y-111188187D01*
X179359742Y-111188186D01*
X179405093Y-111123420D01*
X179405100Y-111123408D01*
X179498419Y-110923284D01*
X179498424Y-110923270D01*
X179555573Y-110709986D01*
X179555575Y-110709976D01*
X179574821Y-110490000D01*
X179574821Y-110489999D01*
X179555575Y-110270023D01*
X179555573Y-110270013D01*
X179498424Y-110056729D01*
X179498420Y-110056720D01*
X179405098Y-109856590D01*
X179359740Y-109791811D01*
X178692903Y-110458648D01*
X178692949Y-110458102D01*
X178661734Y-110334838D01*
X178592187Y-110228388D01*
X178491843Y-110150287D01*
X178371578Y-110109000D01*
X178335447Y-110109000D01*
X179006187Y-109438258D01*
X178941409Y-109392900D01*
X178941407Y-109392899D01*
X178812219Y-109332658D01*
X178759779Y-109286486D01*
X178740627Y-109219293D01*
X178760843Y-109152411D01*
X178812219Y-109107894D01*
X178812811Y-109107618D01*
X178941662Y-109047534D01*
X179122620Y-108920826D01*
X179278826Y-108764620D01*
X179405534Y-108583662D01*
X179498894Y-108383450D01*
X179556070Y-108170068D01*
X179572252Y-107985102D01*
X179575323Y-107950002D01*
X179575323Y-107949997D01*
X179566171Y-107845386D01*
X179556070Y-107729932D01*
X179498894Y-107516550D01*
X179405534Y-107316339D01*
X179278826Y-107135380D01*
X179122620Y-106979174D01*
X179122616Y-106979171D01*
X179122615Y-106979170D01*
X178941666Y-106852468D01*
X178941658Y-106852464D01*
X178812811Y-106792382D01*
X178760371Y-106746210D01*
X178741219Y-106679017D01*
X178761435Y-106612135D01*
X178812811Y-106567618D01*
X178818802Y-106564824D01*
X178941662Y-106507534D01*
X179122620Y-106380826D01*
X179278826Y-106224620D01*
X179405534Y-106043662D01*
X179498894Y-105843450D01*
X179556070Y-105630068D01*
X179575323Y-105410000D01*
X179556070Y-105189932D01*
X179498894Y-104976550D01*
X179405534Y-104776339D01*
X179278826Y-104595380D01*
X179122620Y-104439174D01*
X179122616Y-104439171D01*
X179122615Y-104439170D01*
X178941666Y-104312468D01*
X178941658Y-104312464D01*
X178812811Y-104252382D01*
X178760371Y-104206210D01*
X178741219Y-104139017D01*
X178761435Y-104072135D01*
X178812811Y-104027618D01*
X178818802Y-104024824D01*
X178941662Y-103967534D01*
X179122620Y-103840826D01*
X179278826Y-103684620D01*
X179405534Y-103503662D01*
X179498894Y-103303450D01*
X179556070Y-103090068D01*
X179575323Y-102870000D01*
X179571002Y-102820615D01*
X179560632Y-102702077D01*
X179556070Y-102649932D01*
X179498894Y-102436550D01*
X179405534Y-102236339D01*
X179278826Y-102055380D01*
X179122620Y-101899174D01*
X179122616Y-101899171D01*
X179122615Y-101899170D01*
X178941666Y-101772468D01*
X178941662Y-101772466D01*
X178812965Y-101712454D01*
X178741450Y-101679106D01*
X178741447Y-101679105D01*
X178741445Y-101679104D01*
X178528070Y-101621930D01*
X178528062Y-101621929D01*
X178308002Y-101602677D01*
X178307998Y-101602677D01*
X178087937Y-101621929D01*
X178087929Y-101621930D01*
X177874554Y-101679104D01*
X177874550Y-101679106D01*
X177852103Y-101689572D01*
X177674340Y-101772465D01*
X177674338Y-101772466D01*
X177493377Y-101899175D01*
X177337175Y-102055377D01*
X177210466Y-102236338D01*
X177210465Y-102236340D01*
X177117107Y-102436548D01*
X177117104Y-102436554D01*
X177059930Y-102649929D01*
X177059929Y-102649937D01*
X177040677Y-102869997D01*
X177040677Y-102870002D01*
X177059929Y-103090062D01*
X177059930Y-103090070D01*
X177117104Y-103303445D01*
X177117105Y-103303447D01*
X177117106Y-103303450D01*
X177210466Y-103503662D01*
X177210468Y-103503666D01*
X177337170Y-103684615D01*
X177337175Y-103684621D01*
X177493378Y-103840824D01*
X177493384Y-103840829D01*
X177674333Y-103967531D01*
X177674335Y-103967532D01*
X177674338Y-103967534D01*
X177793748Y-104023215D01*
X177803189Y-104027618D01*
X177855628Y-104073790D01*
X177874780Y-104140984D01*
X177854564Y-104207865D01*
X177803189Y-104252382D01*
X177674340Y-104312465D01*
X177674338Y-104312466D01*
X177493377Y-104439175D01*
X177337175Y-104595377D01*
X177210466Y-104776338D01*
X177210465Y-104776340D01*
X177117107Y-104976548D01*
X177117104Y-104976554D01*
X177059930Y-105189929D01*
X177059929Y-105189937D01*
X177040677Y-105409997D01*
X177040677Y-105410002D01*
X177059929Y-105630062D01*
X177059930Y-105630070D01*
X177117104Y-105843445D01*
X177117105Y-105843447D01*
X177117106Y-105843450D01*
X177166045Y-105948400D01*
X177210466Y-106043662D01*
X177210468Y-106043666D01*
X177337170Y-106224615D01*
X177337175Y-106224621D01*
X177493378Y-106380824D01*
X177493384Y-106380829D01*
X177674333Y-106507531D01*
X177674335Y-106507532D01*
X177674338Y-106507534D01*
X177793748Y-106563215D01*
X177803189Y-106567618D01*
X177855628Y-106613790D01*
X177874780Y-106680984D01*
X177854564Y-106747865D01*
X177803189Y-106792382D01*
X177674340Y-106852465D01*
X177674338Y-106852466D01*
X177493377Y-106979175D01*
X177337175Y-107135377D01*
X177210466Y-107316338D01*
X177210465Y-107316340D01*
X177117107Y-107516548D01*
X177117104Y-107516554D01*
X177059930Y-107729929D01*
X177059929Y-107729937D01*
X177040677Y-107949997D01*
X177040677Y-107950002D01*
X174109500Y-107950002D01*
X174109500Y-78060964D01*
X174111228Y-78045314D01*
X174110946Y-78045288D01*
X174111680Y-78037525D01*
X174109500Y-77968154D01*
X174109500Y-77938528D01*
X174109500Y-77938524D01*
X174108627Y-77931614D01*
X174108168Y-77925785D01*
X174106700Y-77879057D01*
X174101082Y-77859720D01*
X174097138Y-77840674D01*
X174094616Y-77820707D01*
X174077402Y-77777231D01*
X174075513Y-77771710D01*
X174062468Y-77726808D01*
X174052225Y-77709489D01*
X174043662Y-77692011D01*
X174036253Y-77673297D01*
X174036253Y-77673296D01*
X174008771Y-77635472D01*
X174005567Y-77630596D01*
X173981763Y-77590344D01*
X173981761Y-77590342D01*
X173981759Y-77590339D01*
X173967531Y-77576112D01*
X173954896Y-77561320D01*
X173943063Y-77545033D01*
X173943060Y-77545031D01*
X173943060Y-77545030D01*
X173943059Y-77545029D01*
X173907035Y-77515228D01*
X173902713Y-77511294D01*
X168396376Y-72004957D01*
X168386531Y-71992668D01*
X168386313Y-71992849D01*
X168381340Y-71986838D01*
X168360438Y-71967210D01*
X168330741Y-71939322D01*
X168320268Y-71928849D01*
X168309797Y-71918377D01*
X168304296Y-71914111D01*
X168299848Y-71910312D01*
X168265768Y-71878308D01*
X168265763Y-71878304D01*
X168248122Y-71868606D01*
X168231857Y-71857922D01*
X168215963Y-71845593D01*
X168215962Y-71845592D01*
X168193212Y-71835747D01*
X168173054Y-71827023D01*
X168167807Y-71824453D01*
X168126837Y-71801929D01*
X168126828Y-71801926D01*
X168107334Y-71796920D01*
X168088933Y-71790620D01*
X168070459Y-71782626D01*
X168070452Y-71782624D01*
X168024287Y-71775313D01*
X168018563Y-71774128D01*
X167973279Y-71762500D01*
X167973272Y-71762500D01*
X167953142Y-71762500D01*
X167933743Y-71760973D01*
X167913868Y-71757825D01*
X167913867Y-71757825D01*
X167867321Y-71762225D01*
X167861483Y-71762500D01*
X161604044Y-71762500D01*
X161537005Y-71742815D01*
X161500235Y-71706321D01*
X161382983Y-71526852D01*
X161382980Y-71526849D01*
X161382979Y-71526847D01*
X161225784Y-71356087D01*
X161225779Y-71356083D01*
X161225777Y-71356081D01*
X161042634Y-71213535D01*
X161042628Y-71213531D01*
X160838504Y-71103064D01*
X160838495Y-71103061D01*
X160618984Y-71027702D01*
X160447282Y-70999050D01*
X160390049Y-70989500D01*
X160157951Y-70989500D01*
X160112164Y-70997140D01*
X159929015Y-71027702D01*
X159709504Y-71103061D01*
X159709495Y-71103064D01*
X159505371Y-71213531D01*
X159505365Y-71213535D01*
X159322222Y-71356081D01*
X159322219Y-71356084D01*
X159165016Y-71526852D01*
X159038075Y-71721151D01*
X158944842Y-71933699D01*
X158887866Y-72158691D01*
X158887864Y-72158702D01*
X158868700Y-72389993D01*
X158868700Y-72390006D01*
X158887864Y-72621297D01*
X158887866Y-72621308D01*
X158944842Y-72846300D01*
X159038075Y-73058848D01*
X159165016Y-73253147D01*
X159165019Y-73253151D01*
X159165021Y-73253153D01*
X159259803Y-73356114D01*
X159290724Y-73418767D01*
X159282864Y-73488193D01*
X159238716Y-73542348D01*
X159211906Y-73556277D01*
X159131669Y-73586203D01*
X159131664Y-73586206D01*
X159016455Y-73672452D01*
X159016452Y-73672455D01*
X158930206Y-73787664D01*
X158930202Y-73787671D01*
X158879908Y-73922517D01*
X158874666Y-73971281D01*
X158873501Y-73982123D01*
X158873500Y-73982135D01*
X158873500Y-74178500D01*
X158853815Y-74245539D01*
X158801011Y-74291294D01*
X158749500Y-74302500D01*
X149098499Y-74302500D01*
X149031460Y-74282815D01*
X148985705Y-74230011D01*
X148974499Y-74178500D01*
X148974499Y-73982129D01*
X148974498Y-73982123D01*
X148974497Y-73982116D01*
X148968091Y-73922517D01*
X148917796Y-73787669D01*
X148917795Y-73787668D01*
X148917793Y-73787664D01*
X148831547Y-73672455D01*
X148831544Y-73672452D01*
X148716335Y-73586206D01*
X148716328Y-73586202D01*
X148636094Y-73556277D01*
X148580160Y-73514406D01*
X148555743Y-73448941D01*
X148570595Y-73380668D01*
X148588190Y-73356121D01*
X148682979Y-73253153D01*
X148809924Y-73058849D01*
X148903157Y-72846300D01*
X148960134Y-72621305D01*
X148979300Y-72390000D01*
X148979300Y-72389993D01*
X148960135Y-72158702D01*
X148960133Y-72158691D01*
X148903157Y-71933699D01*
X148809924Y-71721151D01*
X148682983Y-71526852D01*
X148682980Y-71526849D01*
X148682979Y-71526847D01*
X148525784Y-71356087D01*
X148525779Y-71356083D01*
X148525777Y-71356081D01*
X148342634Y-71213535D01*
X148342628Y-71213531D01*
X148138504Y-71103064D01*
X148138495Y-71103061D01*
X147918984Y-71027702D01*
X147747282Y-70999050D01*
X147690049Y-70989500D01*
X147457951Y-70989500D01*
X147412164Y-70997140D01*
X147229015Y-71027702D01*
X147009504Y-71103061D01*
X147009495Y-71103064D01*
X146805371Y-71213531D01*
X146805365Y-71213535D01*
X146622222Y-71356081D01*
X146622219Y-71356084D01*
X146465016Y-71526852D01*
X146347765Y-71706321D01*
X146294619Y-71751678D01*
X146243956Y-71762500D01*
X145624967Y-71762500D01*
X145609319Y-71760772D01*
X145609293Y-71761054D01*
X145601525Y-71760319D01*
X145532154Y-71762500D01*
X145502521Y-71762500D01*
X145495607Y-71763373D01*
X145489790Y-71763830D01*
X145443058Y-71765299D01*
X145443054Y-71765300D01*
X145423722Y-71770916D01*
X145404682Y-71774859D01*
X145384712Y-71777382D01*
X145384708Y-71777383D01*
X145341237Y-71794594D01*
X145335710Y-71796486D01*
X145290812Y-71809530D01*
X145290805Y-71809533D01*
X145273480Y-71819779D01*
X145256010Y-71828337D01*
X145237298Y-71835745D01*
X145199463Y-71863233D01*
X145194580Y-71866440D01*
X145154346Y-71890234D01*
X145140106Y-71904474D01*
X145125320Y-71917102D01*
X145109033Y-71928936D01*
X145109032Y-71928936D01*
X145079227Y-71964963D01*
X145075295Y-71969285D01*
X143886953Y-73157626D01*
X143874669Y-73167469D01*
X143874849Y-73167687D01*
X143868838Y-73172659D01*
X143821322Y-73223258D01*
X143800375Y-73244205D01*
X143796106Y-73249709D01*
X143792315Y-73254147D01*
X143760308Y-73288230D01*
X143760305Y-73288234D01*
X143750606Y-73305877D01*
X143739928Y-73322133D01*
X143727594Y-73338034D01*
X143727589Y-73338042D01*
X143709025Y-73380943D01*
X143706454Y-73386191D01*
X143683927Y-73427167D01*
X143678920Y-73446668D01*
X143672621Y-73465064D01*
X143665893Y-73480612D01*
X143664625Y-73483544D01*
X143664624Y-73483546D01*
X143657312Y-73529716D01*
X143656127Y-73535438D01*
X143644500Y-73580723D01*
X143644500Y-73600858D01*
X143642973Y-73620257D01*
X143639825Y-73640131D01*
X127254000Y-73640131D01*
X127254000Y-45847000D01*
X146934047Y-45847000D01*
X146951835Y-46107072D01*
X146951836Y-46107074D01*
X147004869Y-46362287D01*
X147004874Y-46362304D01*
X147092168Y-46607923D01*
X147092169Y-46607926D01*
X147092170Y-46607927D01*
X147212099Y-46839381D01*
X147362428Y-47052348D01*
X147362432Y-47052352D01*
X147362432Y-47052353D01*
X147428562Y-47123160D01*
X147540356Y-47242862D01*
X147742568Y-47407374D01*
X147852527Y-47474242D01*
X147965304Y-47542823D01*
X148204391Y-47646672D01*
X148204396Y-47646674D01*
X148455409Y-47717005D01*
X148713657Y-47752499D01*
X148713658Y-47752500D01*
X148713660Y-47752500D01*
X159134342Y-47752500D01*
X159134342Y-47752499D01*
X159392591Y-47717005D01*
X159643604Y-47646674D01*
X159765266Y-47593829D01*
X159882695Y-47542823D01*
X159882698Y-47542821D01*
X159882703Y-47542819D01*
X160105432Y-47407374D01*
X160307644Y-47242862D01*
X160485572Y-47052348D01*
X160635901Y-46839381D01*
X160755830Y-46607927D01*
X160843127Y-46362299D01*
X160843128Y-46362292D01*
X160843130Y-46362287D01*
X160869688Y-46234482D01*
X160896164Y-46107072D01*
X160913953Y-45847000D01*
X160896164Y-45586928D01*
X160869688Y-45459518D01*
X160843130Y-45331712D01*
X160843125Y-45331695D01*
X160755831Y-45086076D01*
X160755830Y-45086073D01*
X160635901Y-44854619D01*
X160485572Y-44641652D01*
X160485567Y-44641646D01*
X160397246Y-44547078D01*
X160307644Y-44451138D01*
X160105432Y-44286626D01*
X160105431Y-44286625D01*
X159882695Y-44151176D01*
X159643608Y-44047327D01*
X159392596Y-43976996D01*
X159392588Y-43976994D01*
X159134342Y-43941500D01*
X159134340Y-43941500D01*
X159004099Y-43941500D01*
X148844500Y-43941500D01*
X148844000Y-43941500D01*
X148713660Y-43941500D01*
X148713658Y-43941500D01*
X148455411Y-43976994D01*
X148455403Y-43976996D01*
X148204391Y-44047327D01*
X147965304Y-44151176D01*
X147742568Y-44286625D01*
X147540359Y-44451135D01*
X147362432Y-44641646D01*
X147362432Y-44641647D01*
X147212099Y-44854618D01*
X147092168Y-45086076D01*
X147004874Y-45331695D01*
X147004869Y-45331712D01*
X146951836Y-45586925D01*
X146951835Y-45586927D01*
X146934047Y-45847000D01*
X127254000Y-45847000D01*
X127254000Y-41780000D01*
X127273685Y-41712961D01*
X127326489Y-41667206D01*
X127378000Y-41656000D01*
X180470000Y-41656000D01*
X180537039Y-41675685D01*
G37*
%TD.AperFunction*%
%TD*%
M02*
